<svg xmlns="http://www.w3.org/2000/svg" width="206" height="275" viewBox="0 0 206 275">
    <g fill="none" fill-rule="evenodd">
        <path fill="#243D48" d="M107 6.32s2.807-6.797 8.696-6.293c5.889.504 7.096 5.58 7.096 5.58s1.588-1.063 5.745 1.254c2.624 1.465 3.529 8.53.438 8.67 0 0 3.091 2.159 1.635 5.5-1.459 3.335-9.307 1.425-9.307 1.425L107 6.32z" transform="matrix(-1 0 0 1 206 0)"/>
        <path fill="#FEC191" d="M125.678 17.274c3.885 11.04 9.733 20.021-.009 24.368-2.63 1.174-4.514 1.491-5.505 1.57-.55.045-1.018.402-1.162.907-.273.962-.723 5.545.448 7.302 0 0-3.765 4.326-15.331-1.343 0 0 1.783-9.767 1.087-13.802-.877-5.054-8.613-20.375-3.435-23.705 4.743-3.05 14.974-13.303 22.05.326.648 1.25 1.27 2.702 1.857 4.377" transform="matrix(-1 0 0 1 206 0)"/>
        <path fill="#243D48" d="M113.406 5.075s-8.793-5.266-15.504 0c-4.187 3.288-1.763 12.589-.793 13.42 0 0-4.334 1.978-4.1 5.411.234 3.431 3.773 7.3 10.988 10.082 0 0 4.533.551 2.049-5.946-2.484-6.498 1.294-9.046 4.127-5.796 1.415 1.625 1.487 4.245 1.883 5.568.4 1.323 2.19.388 2.19.388s-4.094-10.595.523-12.448c4.62-1.853 11.231-1.036 11.231-1.036l-6.683-10.866-5.91 1.223z" transform="matrix(-1 0 0 1 206 0)"/>
        <path fill="#243D48" d="M129.737 27.427l1.074 4.239s10.003 6.444 4.575 11.271c-5.424 4.827-22.647 4.505-22.799-5.003C112.435 28.426 112 22 112 22s1.71 5.806 4.26 8.145c2.549 2.338 4.073-5.117 13.477-2.718" transform="matrix(-1 0 0 1 206 0)"/>
        <path fill="#FEC191" d="M129.951 29.33c.32 1.218-.966 2.732-2.872 3.38-1.903.644-3.712.182-4.031-1.04-.316-1.216.966-2.73 2.875-3.378 1.904-.647 3.71-.182 4.028 1.039" transform="matrix(-1 0 0 1 206 0)"/>
        <path fill="#243D48" d="M127.658 124s29.381 40.222 24.871 70.917c-4.507 30.696-16.947 68.298-16.947 68.298s-9.78 4.773-10.604-9.221c-.376-6.344 1.125-48.958-3.51-59.05C117.194 185.637 90 124.517 90 124.517l37.658-.517z" transform="matrix(-1 0 0 1 206 0)"/>
        <path fill="#243D48" d="M69.459 205.202c-37.81-9.376-61.716-47.023-52.47-50.837 6.909-2.85 49.501 32.385 58.454 17.777 8.953-14.609 15.729-47.627 15.729-47.627L129 124s-18.316 91.426-59.541 81.202" transform="matrix(-1 0 0 1 206 0)"/>
        <path fill="#53B9C9" d="M132.397 58s4.54 7.464 15.56 15.777C158.447 81.68 185.2 84.042 185.2 84.042l.801 7.687s-30.78 7.935-48.104-.913C127.306 85.408 127 82.538 127 82.538L132.397 58z" transform="matrix(-1 0 0 1 206 0)"/>
        <path fill="#53B9C9" d="M104.51 48.473s5.275 4.921 12.366 2.126c0 0 6.607-.858 16.815 3.109 10.211 3.967 6.12 29.937 1.035 41.614-5.085 11.68-4.632 31.943-4.632 31.943L88.59 130s-5.163-19.641-8.64-33.019C76.47 83.6 66.213 79.038 60.304 85.851c-5.909 6.816 1.598 38.257 1.598 38.257l-6.545 1.204S31.901 90.48 47.155 65.077s57.354-16.604 57.354-16.604" transform="matrix(-1 0 0 1 206 0)"/>
        <path fill="#FEC191" d="M185 83.824s9.067-9.921 8.37-7.42c-.693 2.505-3.917 7.278-1.248 6.368 2.668-.91 13.76-3.992 12.893-2.808-.816 1.114-9.03 3.412-7.826 3.715 1.198.296 10.812.49 8.435 1.156-2.374.67-10.067 1.07-8.276 1.891 1.83.842 8.915 2.326 6.488 2.551-2.73.253-8.003-.003-6.864.725 1.142.728 6.647 2.052 4.087 1.996-2.557-.052-15.863-.163-15.863-.163L185 83.824z" transform="matrix(-1 0 0 1 206 0)"/>
        <path fill="#FDCB5B" d="M125.715 263.875s-6.105 10.346-.006 10.431c6.098.086 34.581 2.259 27.025-1.553-7.556-3.815-15.04-6.183-14.717-7.36.329-1.179 10.032-6.715 7.885-7.338-2.15-.622-11.862 4.218-15.28 3.467-3.417-.757-4.678-2.118-4.904-.876-.23 1.243-.003 3.23-.003 3.23" transform="matrix(-1 0 0 1 206 0)"/>
        <path fill="#243D48" d="M137.877 268.844L137.31 268.382 139.119 266.156 139.69 266.618zM139.877 269.844L139.31 269.382 141.119 267.156 141.69 267.618zM141.877 270.844L141.31 270.382 143.119 268.156 143.69 268.618zM143.876 271.844L143.312 271.382 145.121 269.156 145.688 269.618z" transform="matrix(-1 0 0 1 206 0)"/>
        <path fill="#FDCB5B" d="M20.589 153.546s-7.537-9.454-9.948-3.675c-2.41 5.776-15.342 32.14-8.825 26.286 6.518-5.854 11.635-12.15 12.633-11.426.998.724 2.579 11.914 3.994 10.086 1.413-1.826.502-12.78 2.52-15.77 2.02-2.99 3.801-3.708 2.7-4.364-1.094-.652-3.074-1.137-3.074-1.137" transform="matrix(-1 0 0 1 206 0)"/>
        <path fill="#FCA397" d="M12.216 164.745l-1.431-2.49 1.43 2.49z" transform="matrix(-1 0 0 1 206 0)"/>
        <path fill="#243D48" d="M11.899 164.927L10.468 162.436 11.101 162.073 12.532 164.564z" transform="matrix(-1 0 0 1 206 0)"/>
        <path fill="#FCA397" d="M10.216 166.745l-1.431-2.49 1.43 2.49z" transform="matrix(-1 0 0 1 206 0)"/>
        <path fill="#243D48" d="M9.896 166.927L8.468 164.44 9.101 164.073 10.532 166.564z" transform="matrix(-1 0 0 1 206 0)"/>
        <path fill="#FCA397" d="M9.216 168.745l-1.431-2.49 1.43 2.49z" transform="matrix(-1 0 0 1 206 0)"/>
        <path fill="#243D48" d="M8.898 168.927L7.466 166.436 8.102 166.073 9.534 168.564z" transform="matrix(-1 0 0 1 206 0)"/>
        <path fill="#FCA397" d="M7.214 169.745l-1.428-2.49 1.428 2.49z" transform="matrix(-1 0 0 1 206 0)"/>
        <path fill="#243D48" d="M6.897 169.928L5.466 167.438 6.103 167.072 7.534 169.562z" transform="matrix(-1 0 0 1 206 0)"/>
        <path fill="#FEC191" d="M63.03 124s9.317 7.175 7.804 7.288c-1.514.113-4.261-.615-4.99-.736-.725-.125 1.83 7.795-.606 7.436-2.43-.36-9.611-3.659-10.139-5.744-.527-2.082 1.219-7.38 1.219-7.38L63.03 124z" transform="matrix(-1 0 0 1 206 0)"/>
    </g>
</svg>
