<svg xmlns="http://www.w3.org/2000/svg" width="162" height="410" viewBox="0 0 162 410">
    <g fill="none" fill-rule="evenodd">
        <path fill="#E67962" d="M67 98.012s19.07-.29 26.459 1.96c7.307 2.225 11.541 4.713 11.541 4.713S97.324 115.43 96.955 118c0 0-14.603-3.833-29.528-4.784L67 98.012z" transform="matrix(-1 0 0 1 162 0)"/>
        <path fill="#3C1506" d="M90.89 77s5.315-1.133 7.265-4.48c1.954-3.35 4.12-11.884-3.632-15.989C86.77 52.426 77 54.548 77 54.548L90.89 77z" transform="matrix(-1 0 0 1 162 0)"/>
        <path fill="#E67962" d="M88.707 117.853s21.005 27.155 34.291 15.929c13.286-11.226 24-57.164 24-57.164L153 76s-5.828 60.848-14.398 72.504c-8.925 12.138-25.46 15.072-52.114-5.856-1.259-.985-5.488-3.333-5.488-3.333l7.707-21.462z" transform="matrix(-1 0 0 1 162 0)"/>
        <path fill="#E67962" d="M87 112s15.676 6.906 21.866 18.129C115.183 141.587 117 171.4 117 171.4L87.418 183 87 112z" transform="matrix(-1 0 0 1 162 0)"/>
        <path fill="#FEC191" d="M94.82 68.59c5.088 12.672 11.045 23.507-.325 28.456-3.07 1.336-5.261 1.683-6.415 1.762-.634.044-1.185.454-1.361 1.047-.258.885.418 8.485 1.545 14.489.246 1.311-12 4.657-20.027.995 0 0 3.321-20.106 2.558-24.826-.95-5.913-9.739-23.906-3.68-27.73 5.3-3.337 17.417-9.148 24.845.617 1.06 1.394 2.026 3.109 2.86 5.19" transform="matrix(-1 0 0 1 162 0)"/>
        <path fill="#3C1506" d="M89.367 59.618c1.3.272 4.462 1.51 3.862 4.576-.6 3.066-6.193 11.986-13.92 9.027-2.978-1.14 2.053 9.902-3.049 15.887-5.101 5.977-15.371 4.77-20.755-1.57-8.775-10.329-6.33-17.967-14.76-15.615-9.747 2.718-10.709-4.928-9.967-14.112.38-4.671-2.268-3.07-5.031-4.888-12.102-7.954-3.194-18.598-8.861-27.43-2.44-3.8-9.27-2.94-12.793-6.68C-.573 13.862-1.1 5.916 1.75 3.332 6.392-.87 12.428-.787 17.953 1.852c3.14 1.504 8.218-3.984 13.888.573 5.667 4.556 2.889 9.2 5.102 11.397 2.821 2.805 15.16-5.365 18.562.048 3.398 5.412 3.3 9.531 5.717 11.129 2.794 1.842 8.182-5.216 12.998-.37 4.819 4.84 1.828 16.573 7.212 15.149 5.384-1.425 12.024-.805 14.293 4.892 2.264 5.696-10.29 14.12-6.358 14.948" transform="matrix(-1 0 0 1 162 0)"/>
        <path fill="#FEC191" d="M76.756 79.528c-.436-1.11-2.07-3.479-4.15-2.117-2.078 1.361-2.866 6.314 2.194 11.366 5.06 5.056 2.817-7.055 1.956-9.249" transform="matrix(-1 0 0 1 162 0)"/>
        <path fill="#243D48" d="M100.19 190.79s57.562-27.635 61.424-4.663c3.862 22.98-22.524 103.395-22.524 103.395h-10.055s1.033-49.523 3.216-61.202c3.216-17.233-43.4-.986-49.975 17.803-6.938 19.85-11.374 45.563-19.169 97.188C57.33 381.596 52.814 391 52.814 391H42.572s-1.287-24.89 0-66.375c1.287-41.482 4.55-116.201 21.478-135.135 0 0 23.78 6.752 36.14 1.3" transform="matrix(-1 0 0 1 162 0)"/>
        <path fill="#FDCB5B" d="M88.157 113s17.955 21.579 17.842 27.58c-.183 9.417-11.875 35.594-5.37 48.855 0 0-30.606 19.386-42.629 11.807 0 0 16.16-35.617 7.089-54.56-7.198-15.03-5.78-26.57 3.466-33.682 0 0 13.647 6.479 19.602 0" transform="matrix(-1 0 0 1 162 0)"/>
        <path fill="#FEC191" d="M144.747 76.503s-6.978-4.87-5.556-4.892c1.422-.023 3.942.756 4.615.904.672.143-1.226-6.937 1.026-6.495 2.247.442 8.756 3.708 9.122 5.56.366 1.853-1.592 6.42-1.592 6.42l-7.615-1.497z" transform="matrix(-1 0 0 1 162 0)"/>
        <path fill="#E67962" d="M69.202 111s9.033 32.412 9.53 58.82C78.799 173.244 80 193 80 193l-36.497-1.101c-.824-19.848.567-29.318-1.738-43.355 0 0 .446-18.845-2.765-27.336L69.202 111z" transform="matrix(-1 0 0 1 162 0)"/>
        <path fill="#E67962" d="M40.712 120.748S-4.152 135.423.318 158.36C4.788 181.293 61 170.428 61 170.428v-6.86s-40.05 1.492-33.838-7.797c5.331-7.962 15.972-7.364 15.972-7.364l-2.422-27.659z" transform="matrix(-1 0 0 1 162 0)"/>
        <path fill="#FEC191" d="M62 162.804s3.67-8.033 3.987-6.642c.316 1.386.012 4.055 0 4.752-.016.693 7.013-2.9 7.013-.582s-2.085 9.5-3.95 10.309c-1.87.808-7.05 0-7.05 0v-7.837z" transform="matrix(-1 0 0 1 162 0)"/>
        <path fill="#FDCB5B" d="M125.413 278.912s-16.814 5.886-9.625 11.737c7.184 5.847 39.13 35.153 33.639 23.735-5.487-11.418-12.222-21.144-10.748-22.163 1.47-1.019 18.144 1.895 16.157-.83-1.983-2.73-18.022-6.44-21.406-10.503-3.375-4.071-3.621-6.793-5.037-5.61-1.42 1.181-2.98 3.634-2.98 3.634" transform="matrix(-1 0 0 1 162 0)"/>
        <path fill="#134F49" d="M137.208 297.006L137 295.91 140.795 294.994 141 296.09zM137.208 300.006L137 298.914 140.792 297.994 141 299.09zM139.208 303.006L139 301.91 142.795 300.994 143 302.09zM140.208 306.006L140 304.91 143.792 303.994 144 305.09z" transform="matrix(-1 0 0 1 162 0)"/>
        <path fill="#FDCB5B" d="M41.63 386.158s-12.407 12.726-3.277 14.8c9.134 2.078 51.233 14.278 41.077 6.45-10.155-7.829-20.656-13.595-19.796-15.16.857-1.563 17.164-6.318 14.131-7.89-3.028-1.567-19.132 2.19-24.03.031-4.896-2.162-6.36-4.499-7.092-2.811-.73 1.691-1.013 4.58-1.013 4.58" transform="matrix(-1 0 0 1 162 0)"/>
        <path fill="#134F49" d="M58.678 396.808L58 395.932 61.322 393.192 62 394.064zM61.678 399.808L61 398.932 64.326 396.192 65 397.064zM63.678 401.808L63 400.932 66.326 398.192 67 399.064zM66.678 403.808L66 402.932 69.322 400.192 70 401.064z" transform="matrix(-1 0 0 1 162 0)"/>
        <path fill="#E67962" d="M70.831 119s1.627-8.77 9.169-15.241c0 0-5.675-5.751-13.35-6.759 0 0-.96 13.951-2.65 15.958 0 0 1 5.321 6.831 6.042" transform="matrix(-1 0 0 1 162 0)"/>
    </g>
</svg>
