<svg xmlns="http://www.w3.org/2000/svg" width="306" height="508" viewBox="0 0 306 508">
    <g fill="none" fill-rule="evenodd">
        <g>
            <path fill="#F4F4F4" d="M271.353 225.553L131.958 318.883 16.004 106.269 155.399 12.94z" transform="translate(0 -15) translate(23) rotate(6 143.679 165.911)"/>
            <path fill="#F4F4F4" d="M26.865 100.744L179.083 12.033 199.82 49.704z" transform="translate(0 -15) translate(23) rotate(6 113.343 56.389)"/>
            <path fill="#F4F4F4" d="M26.865 100.744L174.882 9.317 183.522 24.835z" transform="translate(0 -15) translate(23) rotate(6 105.194 55.03)"/>
            <path fill="#FFF" d="M289.464 233.299L131.318 319.788 15.098 107.578 173.245 21.086z" transform="translate(0 -15) translate(23) rotate(6 152.28 170.437)"/>
            <path stroke="#7B8C93" d="M178.995 11.84L26.865 100.744 172.801 9.317" transform="translate(0 -15) translate(23) rotate(6 102.93 55.03)"/>
            <path fill="#243D48" d="M60.505 96.215L70.331 114.371 69.254 114.968 48.483 105.969 57.018 121.74 55.71 122.464 45.883 104.307 46.986 103.696 67.732 112.709 59.197 96.938z" transform="translate(0 -15) translate(23) rotate(6 58.107 109.34)"/>
            <path fill="#243D48" d="M90.5 106.385L91.158 107.561 78.533 114.318 68.521 96.426 80.754 89.879 81.412 91.054 70.511 96.888 74.459 103.942 84.209 98.724 84.852 99.875 75.103 105.093 79.208 112.429z" transform="translate(0 -15) translate(23) rotate(6 79.84 102.098)"/>
            <path fill="#243D48" d="M109.933 76.301L113.796 97.627 112.368 98.387 97.539 85.298 100.863 104.507 99.435 105.266 83.009 90.623 84.437 89.863 99.189 103.059 95.863 83.785 97.158 83.096 112.058 96.247 108.611 77.004z" transform="translate(0 -15) translate(23) rotate(6 98.403 90.784)"/>
            <path fill="#243D48" d="M124.654 94.307c-1.489.047-2.754-.167-3.8-.64l.198-1.312c.983.432 2.148.635 3.49.605 1.344-.03 2.652-.308 3.925-.838 1.846-.767 3.093-1.696 3.741-2.786.647-1.09.736-2.195.264-3.316-.363-.865-.902-1.45-1.617-1.757-.714-.308-1.499-.445-2.353-.415-.855.033-1.971.162-3.35.39-1.569.242-2.85.375-3.848.401-.997.026-1.941-.18-2.83-.62-.891-.44-1.578-1.24-2.065-2.397-.394-.937-.506-1.9-.337-2.888.17-.988.67-1.925 1.502-2.81s2.013-1.648 3.545-2.284c1.07-.445 2.188-.726 3.354-.844 1.164-.117 2.237-.066 3.219.152l-.051 1.35c-1-.212-2.024-.261-3.072-.15-1.048.113-2.024.357-2.929.732-1.79.745-2.996 1.667-3.617 2.768-.622 1.1-.693 2.22-.214 3.36.364.863.902 1.45 1.617 1.756.715.308 1.499.446 2.353.414.855-.03 1.985-.155 3.389-.372 1.568-.242 2.846-.375 3.835-.397.988-.021 1.923.178 2.805.599.882.422 1.562 1.203 2.041 2.342.395.936.5 1.897.317 2.88-.183.983-.703 1.923-1.563 2.82-.859.897-2.054 1.664-3.587 2.3-1.422.592-2.874.91-4.362.957" transform="translate(0 -15) translate(23)"/>
            <path stroke="#243D48" stroke-width="2" d="M44.07 107.08L181.712 31.041" transform="translate(0 -15) translate(23) rotate(6 112.89 69.06)"/>
            <path stroke="#0A5265" stroke-width="2" d="M127.378 305.307L265.019 229.269" transform="translate(0 -15) translate(23) rotate(6 196.199 267.288)"/>
            <path stroke="#243D48" stroke-width="2" d="M54.937 132.423L141.868 84.446" transform="translate(0 -15) translate(23) rotate(6 98.403 108.434)"/>
            <path fill="#243D48" d="M159.978 43.171L182.291 30.138 184.427 34.305 162.114 47.337z" transform="translate(0 -15) translate(23) rotate(6 172.202 38.738)"/>
            <path fill="#80C0A1" d="M169.033 141.143L81.657 189.447 55.844 141.802 143.218 93.498z" opacity=".496" transform="translate(0 -15) translate(23) rotate(6 112.438 141.472)"/>
            <path fill="#FDCB5B" d="M202.537 76.176L159.262 99.836 156.355 94.53 199.631 70.87z" transform="translate(0 -15) translate(23) rotate(6 179.446 85.353)"/>
            <path fill="#FDCB5B" d="M207.065 85.228L163.789 108.888 160.883 103.582 204.158 79.921z" transform="translate(0 -15) translate(23) rotate(6 183.974 94.404)"/>
            <path fill="#FDCB5B" d="M210.687 94.279L167.412 117.939 164.505 112.633 207.781 88.973z" transform="translate(0 -15) translate(23) rotate(6 187.596 103.456)"/>
            <path fill="#FDCB5B" d="M212.498 102.426L169.223 126.086 166.316 120.779 209.59 97.119z" transform="translate(0 -15) translate(23) rotate(6 189.407 111.602)"/>
            <path fill="#FDCB5B" d="M217.026 110.573L173.75 134.232 170.844 128.925 214.119 105.265z" transform="translate(0 -15) translate(23) rotate(6 193.935 119.749)"/>
            <path fill="#E2E6E7" d="M199.089 268.194L273.166 227.561 212.322 116.127 138.247 156.764z" transform="translate(0 -15) translate(23) rotate(6 205.707 192.16)"/>
            <path fill="#FDCB5B" d="M159.072 196.355L97.91 230.178 78.481 194.303 139.644 160.479z" opacity=".874" transform="translate(0 -15) translate(23) rotate(6 118.777 195.329)"/>
            <path stroke="#FFF" stroke-width="2" d="M88.441 196.687L139.151 169.531" transform="translate(0 -15) translate(23) rotate(6 113.796 183.11)"/>
            <path stroke="#FFF" stroke-width="2" d="M90.252 202.118L140.962 174.962" transform="translate(0 -15) translate(23) rotate(6 115.607 188.54)"/>
            <path stroke="#FFF" stroke-width="2" d="M92.969 207.549L143.679 180.392" transform="translate(0 -15) translate(23) rotate(6 118.324 193.97)"/>
            <path stroke="#FFF" stroke-width="2" d="M95.686 214.79L146.396 187.634" transform="translate(0 -15) translate(23) rotate(6 121.04 201.212)"/>
            <path stroke="#FFF" stroke-width="2" d="M97.497 222.032L148.207 194.875" transform="translate(0 -15) translate(23) rotate(6 122.852 208.453)"/>
            <path fill="#243D48" d="M212.497 251.959L127.965 298.969 94.781 237.359 179.315 190.349z" transform="translate(0 -15) translate(23) rotate(6 153.64 244.66)"/>
            <path fill="#243D48" d="M178.088 71.715L195.027 62.724 197.104 66.405 180.164 75.397z" transform="translate(0 -15) translate(23) rotate(6 187.596 69.06)"/>
            <path fill="#243D48" d="M182.616 64.648L193.273 59.103 195.293 62.611 184.636 68.155z" transform="translate(0 -15) translate(23) rotate(6 188.954 63.63)"/>
        </g>
        <g>
            <path fill="#243D48" d="M98.068 346.696c10.487 15.155-1.976 78.56-1.976 78.56H91.46s-1.753-64.55-16.894-85.406c-15.137-20.862-29.436-97.347-24.193-124.593 0 0 41.705 1.508 42.63 37.414 0 0-21.418 55.755 5.066 94.025z" transform="translate(0 -15) translate(0 89)"/>
            <path fill="#FEC191" d="M75.102 61.154c-4.804 11.808-10.43 21.904.307 26.515 2.898 1.244 4.97 1.567 6.056 1.639.6.042 1.12.424 1.287.976.247.824-.392 7.906-1.458 13.502-.234 1.222 11.333 4.334 18.916.92 0 0-3.137-18.727-2.417-23.126.895-5.506 9.198-22.277 3.478-25.83-5.008-3.117-15.416-11.468-22.431-2.374-1.002 1.304-2.95 5.838-3.738 7.778" transform="translate(0 -15) translate(0 89)"/>
            <path fill="#134F49" d="M75.262 57.044c-2.365 0-4.435 1.605-5.035 3.894-.352 1.35-.158 2.751.543 3.955.705 1.2 1.831 2.054 3.18 2.407.433.113.879.17 1.32.17 2.366 0 4.44-1.6 5.04-3.894.352-1.345.158-2.747-.547-3.95-.701-1.204-1.831-2.06-3.176-2.412-.433-.113-.879-.17-1.325-.17m.009 12.213c-.596 0-1.191-.077-1.775-.227-1.806-.474-3.321-1.62-4.265-3.238-.948-1.612-1.207-3.497-.733-5.304.806-3.08 3.585-5.231 6.764-5.231.596 0 1.195.077 1.775.23 1.81.471 3.325 1.622 4.269 3.234.944 1.613 1.203 3.497.73 5.309-.803 3.08-3.586 5.227-6.765 5.227M90.26 61.078c-2.803 0-5.26 1.9-5.97 4.616-.863 3.295 1.12 6.677 4.414 7.54.516.136 1.04.202 1.565.202 2.807 0 5.264-1.9 5.974-4.616.417-1.598.186-3.262-.648-4.683-.83-1.424-2.168-2.44-3.766-2.857-.516-.132-1.044-.202-1.569-.202m.009 14.179c-.682 0-1.363-.087-2.028-.26-4.265-1.115-6.829-5.496-5.714-9.761.92-3.522 4.1-5.98 7.733-5.98.682 0 1.367.092 2.028.265 2.068.537 3.802 1.85 4.88 3.696 1.082 1.841 1.375 3.997.834 6.065-.92 3.518-4.1 5.975-7.733 5.975" transform="translate(0 -15) translate(0 89)"/>
            <path fill="#134F49" d="M84.062 65.309L80.822 64.309 81.467 62.204 84.712 63.199z" transform="translate(0 -15) translate(0 89)"/>
            <path fill="#243D48" d="M92.267 249.862s-48.106 27.624-59.233 35.726c-11.123 8.097 9.067 4.362 40.792 64.485l-3.877 3.184s-27.31-25.322-52.16-43.37c-26.607-19.322-21.72-26.678 6.59-55.247 18.71-18.878 38.324-37.383 38.324-37.383s23.693 1.039 29.564 32.605" transform="translate(0 -15) translate(0 89)"/>
            <path fill="#FEC191" d="M42.252 18.257s11.701-9.17 9.807-9.324c-1.89-.16-5.326.763-6.238.914-.909.155 2.342-10.02-.702-9.576-3.044.444-12.042 4.645-12.722 7.32-.672 2.675 1.472 9.513 1.472 9.513l8.383 1.153zM80.252 102.738l-11.985-1.481s12.775 52.48 76 11.109c0 0-22.107-7.588-27.828-8.736-5.547-1.106-18.344-1.118-18.344-1.118l-17.843.226z" transform="translate(0 -15) translate(0 89)"/>
            <path fill="#243D48" d="M78.406 52.697s10.808 2.615 16.176 14.761c2.055 4.658 1.598 14.274 2.773 20.603 1.248 6.71.458 7.953 10.309-2.491 6.363-6.748 22.826-18.112 17.59-33.71-5.594-16.664-29.783-25.963-46.43-11.304-10.004 8.808-.418 12.141-.418 12.141" transform="translate(0 -15) translate(0 89)"/>
            <path fill="#E67962" d="M77.625 102.466s.415 38.348 53.9 5.944c0 0 51.821 14.787 60.53 43.806 8.708 29.02-8.294 60.522-50.997 73.79l-6.424-5.492s21.767-35.238 12.436-40.836c-9.326-5.593-23.983 57.518-53.501 70.579 0 0-13.194-22.999-44.908-31.084 0 0-12.288-60.755-40.274-98.16C-19.6 83.61 33.737 17.258 33.737 17.258l8.239 1.163s-20.739 80.517 35.649 84.046" transform="translate(0 -15) translate(0 89)"/>
            <path fill="#FEC191" d="M95.588 426.257s4.652 7.28-1.533 6.992c-6.188-.294-13.451.436-21.172-.583-7.721-1.023 14.531-3.643 18.165-6.41h4.54zM73.383 349.257s5.165 1.165 4.872 4.055c-.294 2.894-1.872 5.138-2.165 10.982-.298 5.844-.149 11.296-4.724 14.298-4.574 3.005-.148-4.739-.811-11.929-.659-7.12-.876-14.177-.876-14.177l3.704-3.23zM136.426 220.257s-14.4.716-13.02 1.926c1.376 1.21 4.58 2.433 5.373 2.826.798.398-7.626 6.763-5.005 8.14 2.625 1.382 12.049 3.132 14.124 1.357 2.075-1.776 4.369-8.521 4.369-8.521l-5.84-5.728z" transform="translate(0 -15) translate(0 89)"/>
        </g>
    </g>
</svg>
