<svg xmlns="http://www.w3.org/2000/svg" width="11" height="29" viewBox="0 0 11 29">
    <path fill="#FFF" fill-rule="evenodd" d="M10.1 21.02c.085-.364.007-.748-.225-.994.145-2.139-.74-4.314-1.643-6.252-1.18-2.53-2.773-5.033-4.63-7.183 2.342-1.11 4.257-2.755 5.255-5.294C9.367.001 7.28-.555 6.777.724c-.907 2.31-3.044 3.62-5.284 4.424-.754.271-1.074 1.19-.476 1.803 1.727 1.775 3.113 3.874 4.353 6.007 1.034 1.783 2.728 4.728 2.417 7.067-3.71.876-10.125 3.726-6.915 7.695 3.087 3.816 8.83-3.127 9.278-6.144.029-.199.008-.386-.05-.556"/>
</svg>
