<svg xmlns="http://www.w3.org/2000/svg" width="32" height="26" viewBox="0 0 32 26">
    <path fill="#FDCB5B" fill-rule="evenodd" d="M27.694 22.629c.624-.937 1.004-2.1 1.225-3.517.712-4.564 1.677-8.95 2.715-13.452.116-.5-.298-.996-.723-1.176C25.828 2.34 20.443 1.06 15.04.018c-.76-.146-1.294.63-1.236 1.299.258 2.935-.32 5.914-1.991 8.287C9.466 8.164 6.952 6.6 4.148 6.507 2.016 6.437-.64 8.219.138 10.622c.716 2.203 3.436 3.158 5.46 3.612 2.497.56 5.274.1 7.007-1.876.099-.112.152-.245.186-.382 2.299-2.631 3.328-5.961 3.32-9.445 4.452.9 8.857 2.02 13.079 3.704-.65 2.698-1.406 5.366-1.92 8.093-.366 1.943-.26 4.309-.99 6.116-2.227-1.362-4.608-2.752-7.246-2.84-2.132-.07-4.788 1.712-4.01 4.117.716 2.202 3.435 3.157 5.46 3.612 2.497.56 5.273.099 7.007-1.878.202-.23.253-.534.203-.826"/>
</svg>
