<svg xmlns="http://www.w3.org/2000/svg" width="292" height="46" viewBox="0 0 292 46">
    <g fill="#FFF">
        <g>
            <path d="M3.601 34.386L3.601 18.654 24.917 18.654 24.917 34.386 28.47 34.386 28.47.292 24.917.292 24.917 15.488 3.601 15.488 3.601.292 0 .292 0 34.386zM43.021 34.386V7.257l13.384 22.795h1.703l13.383-22.94v27.274h3.456V.292h-2.969L57.329 25.571 42.535.292h-2.969v34.094h3.455zm54.702 0V22.6L111.349.292h-3.601l-11.68 19.142L84.388.292h-3.845L94.17 22.6v11.786h3.553zM119.817 34.386V23.622h9.15c4.347 0 7.754-1.03 10.22-3.092 2.465-2.062 3.698-4.912 3.698-8.548 0-3.637-1.233-6.494-3.698-8.573-2.466-2.078-5.873-3.117-10.22-3.117h-12.751v34.094h3.601zm9.052-13.93h-9.052V3.41h9.052c3.375 0 5.954.74 7.738 2.217 1.785 1.477 2.677 3.596 2.677 6.356 0 2.695-.892 4.78-2.677 6.258-1.784 1.478-4.363 2.216-7.738 2.216zm37.182 14.223c3.374 0 6.416-.747 9.125-2.24 2.709-1.495 4.842-3.565 6.4-6.21 1.557-2.647 2.335-5.61 2.335-8.89 0-3.28-.778-6.242-2.336-8.889-1.557-2.646-3.69-4.716-6.4-6.21C172.468.747 169.426 0 166.052 0c-3.375 0-6.432.755-9.174 2.265-2.742 1.51-4.883 3.58-6.424 6.21-1.541 2.63-2.312 5.585-2.312 8.864 0 3.28.77 6.235 2.312 8.865 1.541 2.63 3.682 4.7 6.424 6.21 2.742 1.51 5.8 2.265 9.174 2.265zm0-3.215c-2.693 0-5.135-.609-7.325-1.826-2.19-1.218-3.91-2.907-5.158-5.066-1.25-2.16-1.874-4.57-1.874-7.233 0-2.662.625-5.073 1.874-7.233 1.249-2.159 2.968-3.847 5.158-5.065 2.19-1.218 4.632-1.826 7.325-1.826 2.693 0 5.126.608 7.3 1.826 2.173 1.218 3.877 2.906 5.11 5.065 1.233 2.16 1.849 4.57 1.849 7.233 0 2.663-.616 5.074-1.85 7.233-1.232 2.16-2.936 3.848-5.11 5.066-2.173 1.217-4.606 1.826-7.3 1.826zm39.809 2.922c3.601 0 6.78-.722 9.539-2.167 2.757-1.445 4.899-3.458 6.424-6.04 1.525-2.581 2.287-5.528 2.287-8.84 0-3.312-.762-6.258-2.287-8.84-1.525-2.581-3.667-4.594-6.424-6.04C212.64 1.016 209.46.293 205.86.293h-13.87v34.094h13.87zm-.195-3.117h-10.074V3.41h10.074c2.985 0 5.597.593 7.836 1.778 2.238 1.185 3.974 2.825 5.207 4.92 1.233 2.094 1.85 4.505 1.85 7.232 0 2.728-.617 5.139-1.85 7.233-1.233 2.094-2.969 3.734-5.207 4.92-2.239 1.185-4.85 1.777-7.836 1.777zm28.616-7.11l.73-23.867h-4.088l.682 23.866h2.676zm-1.314 10.47c.714 0 1.314-.25 1.801-.754.487-.503.73-1.096.73-1.778 0-.714-.243-1.307-.73-1.778-.487-.47-1.087-.706-1.8-.706-.747 0-1.363.236-1.85.706-.487.471-.73 1.064-.73 1.778 0 .682.251 1.275.754 1.778.503.503 1.112.755 1.825.755z" transform="translate(54.215 6.202)"/>
        </g>
        <path d="M22.981 0c12.693 0 22.982 10.297 22.982 23s-10.29 23-22.982 23S0 35.703 0 23 10.29 0 22.981 0zm0 6.765C14.022 6.765 6.76 14.033 6.76 23c0 8.967 7.263 16.235 16.222 16.235 8.96 0 16.223-7.268 16.223-16.235 0-8.967-7.263-16.235-16.223-16.235z"/>
    </g>
</svg>
