<svg xmlns="http://www.w3.org/2000/svg" width="221" height="15" viewBox="0 0 221 15">
    <g fill="#FFF" fill-rule="evenodd">
        <text font-family="Montserrat-Regular, Montserrat" font-size="11" letter-spacing="1.952" transform="translate(-1)">
            <tspan x="0" y="12">powered by</tspan>
        </text>
        <g>
            <path d="M29 0L29 13 27.73 13 27.73 2.603 22.81 11.349 22.19 11.349 17.27 2.659 17.27 13 16 13 16 0.004 17.09 0.004 22.529 9.641 27.914 0.004z" transform="translate(-1) translate(89)"/>
            <path fill-rule="nonzero" d="M44 4.452c0 2.768-1.774 4.44-4.698 4.44h-3.087V13H35V0h4.303C42.226-.004 44 1.667 44 4.452zm-1.216 0c0-2.079-1.215-3.267-3.515-3.267h-3.054v6.5h3.054c2.3 0 3.517-1.19 3.517-3.233h-.002zM56.044 9.524h-7.112L47.398 13H46l5.837-13h1.331L59 13h-1.424l-1.532-3.476zm-.486-1.112l-3.063-6.984-3.072 6.984h6.135z" transform="translate(-1) translate(89)"/>
            <path d="M62.913 1.188L59 1.188 59 0 68 0 68 1.188 64.089 1.188 64.089 13 62.913 13zM83 0L83 13 81.627 13 81.627 7 73.391 7 73.391 13 72 13 72 .004 73.391.004 73.391 5.796 81.627 5.796 81.627 0zM93.693 8.502L93.693 13 92.307 13 92.307 8.502 87 0 88.497 0 93.048 7.301 97.596.004 99 .004z" transform="translate(-1) translate(89)"/>
            <path fill-rule="nonzero" d="M11.218 3.12c-.494-.952-1.234-1.746-2.14-2.296-.93-.553-1.99-.838-3.066-.823-1.081-.014-2.146.275-3.078.835-.913.557-1.658 1.36-2.153 2.321C.252 4.189-.016 5.34.001 6.505c-.02 1.174.267 2.332.83 3.357.542.968 1.336 1.765 2.294 2.303 1.024.567 2.175.854 3.34.834.919.007 1.83-.178 2.678-.542.797-.34 1.503-.872 2.058-1.548l.029-.038-.764-.874-.042.051c-.454.572-1.04 1.02-1.706 1.304-.706.3-1.465.452-2.23.445-.914.014-1.817-.201-2.63-.627-.764-.405-1.404-1.016-1.85-1.768-.454-.773-.704-1.653-.728-2.555H11.97L12 6.456c.018-1.162-.25-2.31-.781-3.337zM1.306 5.796c.056-.832.3-1.64.714-2.36.4-.693.972-1.266 1.66-1.66.715-.396 1.518-.599 2.332-.587 1.635-.032 3.161.83 4.004 2.261.42.71.662 1.517.703 2.346H1.306z" transform="translate(-1) translate(89)"/>
            <path d="M99.29 12.706c-.192-.19-.296-.449-.29-.716-.006-.265.099-.52.29-.706.183-.185.436-.288.7-.284.266-.004.523.099.71.284.197.183.306.44.3.706.005.269-.103.528-.3.716-.185.19-.442.297-.71.294-.266.003-.52-.103-.7-.294zM108.437 12.162c-1.051-.541-1.924-1.347-2.523-2.33-1.219-2.072-1.219-4.595 0-6.667.601-.982 1.478-1.786 2.532-2.323 1.112-.568 2.358-.858 3.62-.841.948-.01 1.89.151 2.774.475.822.3 1.561.775 2.16 1.388l-.906.86c-1.056-1.012-2.385-1.517-3.986-1.517-1.016-.012-2.018.227-2.907.694-.854.444-1.563 1.1-2.05 1.9-.99 1.68-.99 3.727 0 5.407.487.799 1.196 1.456 2.05 1.9.889.464 1.89.7 2.904.686 1.618 0 2.947-.511 3.986-1.534l.906.858c-.599.615-1.338 1.093-2.16 1.397-.886.329-1.83.493-2.782.484-1.262.02-2.507-.269-3.618-.837z" transform="translate(-1) translate(89)"/>
            <path fill-rule="nonzero" d="M123.175 12.143c-.97-.538-1.777-1.341-2.335-2.322-1.12-2.065-1.12-4.584 0-6.65.558-.98 1.365-1.783 2.335-2.321 2.081-1.13 4.567-1.133 6.652-.009.965.541 1.769 1.344 2.325 2.323 1.13 2.069 1.13 4.598 0 6.667-.555.98-1.359 1.786-2.325 2.329-2.085 1.123-4.57 1.12-6.652-.008v-.009zm5.988-1.042c.775-.445 1.416-1.102 1.851-1.9.896-1.69.896-3.735 0-5.425-.435-.798-1.076-1.456-1.851-1.9-1.662-.913-3.654-.913-5.315 0-.783.442-1.432 1.1-1.876 1.9-.908 1.686-.908 3.738 0 5.425.444.8 1.093 1.457 1.876 1.9 1.661.913 3.653.913 5.315 0z" transform="translate(-1) translate(89)"/>
        </g>
    </g>
</svg>
