<svg xmlns="http://www.w3.org/2000/svg" width="45" height="96" viewBox="0 0 45 96">
    <path fill="#FDCB5B" d="M20.08 72.504c.708-.025 1.048-.435 1.02-1.232-.019-.53-.077-.927-.174-1.19-1.183-3.414-1.799-5.829-1.848-7.245-.142-4.07 2.92-9.006 9.185-14.807 5.237-4.79 8.41-7.803 9.519-9.038 1.109-1.235 2.247-2.891 3.415-4.97 2.25-4.066 3.292-8.488 3.125-13.267-.216-6.194-2.492-11.099-6.827-14.713C33.16 2.428 27.542.742 20.64.982c-6.283.22-11.333 2.124-15.151 5.713-3.817 3.588-5.632 8.082-5.443 13.48.105 3.009.985 5.393 2.642 7.151 1.656 1.759 3.856 2.59 6.599 2.494 4.602-.16 6.828-2.365 6.68-6.613-.142-4.07-2.204-6.036-6.187-5.897-2.389.083-3.997.981-4.823 2.694-.418.723-.668 1.175-.75 1.355-.266.009-.415-.473-.45-1.447-.15-4.336 1.095-7.99 3.738-10.962 2.643-2.972 6-4.529 10.07-4.67 4.425-.155 7.97 1.116 10.633 3.814 2.664 2.698 4.08 6.481 4.25 11.348.186 5.31-2.426 11.692-7.837 19.146-3.635 5-6.106 9.096-7.412 12.287-1.306 3.191-1.897 6.556-1.774 10.096.093 2.655.649 5.25 1.667 7.783 1.02 2.534 2.015 3.784 2.989 3.75zm.811 23.23c2.035-.071 3.714-.839 5.036-2.302 1.323-1.464 1.95-3.17 1.882-5.116-.068-1.947-.813-3.605-2.234-4.973-1.421-1.368-3.105-2.018-5.052-1.95-2.035.071-3.737.817-5.105 2.239-1.368 1.42-2.016 3.149-1.945 5.184.068 1.947.834 3.604 2.3 4.97 1.465 1.367 3.171 2.016 5.118 1.948z"/>
</svg>
