<svg xmlns="http://www.w3.org/2000/svg" width="352" height="587" viewBox="0 0 352 587">
    <path d="M281.952 562.517c-54.53 34.747-128.484 32.24-182.197-14.591-53.713-46.832-88.746-129.158-96.918-215.498-8.172-86.34 9.334-175.55 43.794-248.776 12.183-25.886 26.82-50.444 46.036-66.497 19.216-16.05 43.667-22.586 64.669-11.464 21.172 11.214 35.764 38.157 45.61 66.115 9.845 27.957 16.167 58.176 27.345 85.184 14.32 34.596 35.895 62.28 56.35 90.541 20.455 28.261 36.137 61.5 50.719 95.894 37.72 88.962-8.996 189.517-55.408 219.092" style="mix-blend-mode:multiply" fill="#E2E6E7" fill-rule="evenodd" opacity=".51"/>
</svg>
