<svg xmlns="http://www.w3.org/2000/svg" width="591" height="329" viewBox="0 0 591 329">
    <path d="M583.61 112.526c19.45 61.665-2.112 132.45-61.25 172.212-59.137 39.762-147.726 52.293-233.238 37.84-85.513-14.452-167.153-54.45-228.965-106.69-21.85-18.467-41.783-38.96-52.316-61.677-10.53-22.715-10.514-48.025 5.664-65.432 16.311-17.55 46.114-24.67 75.667-26.944 29.553-2.274 60.378-.56 89.359-4.367 37.123-4.879 69.448-18.552 102.04-30.996C313.163 14.03 349.33 7.484 386.324 2.3c95.694-13.41 180.732 57.74 197.287 110.226" style="mix-blend-mode:multiply" fill="#E2E6E7" fill-rule="evenodd" opacity=".51"/>
</svg>
