<svg xmlns="http://www.w3.org/2000/svg" width="376" height="154" viewBox="0 0 376 154">
    <g fill="none" fill-rule="evenodd">
        <path fill="#FDCB5B" d="M83.752 86.458c0 1.312-1.064 2.376-2.376 2.376-1.312 0-2.376-1.064-2.376-2.376 0-1.313 1.064-2.377 2.376-2.377 1.312 0 2.376 1.064 2.376 2.377M376 53c0 1.657-1.343 3-3 3s-3-1.343-3-3 1.343-3 3-3 3 1.343 3 3" transform="translate(0 -.08)"/>
        <path fill="#243D48" d="M6 151.081c0 1.656-1.343 3-3 3s-3-1.344-3-3c0-1.657 1.343-3 3-3s3 1.343 3 3" opacity=".35" transform="translate(0 -.08)"/>
        <path fill="#FDCB5B" d="M320.014 0L319.465 7.051 326.001 9.752 319.126 11.409 318.576 18.46 314.876 12.433 308 14.089 312.589 8.708 308.888 2.68 315.425 5.382 320.014 0" transform="translate(0 -.08)"/>
    </g>
</svg>
