<svg xmlns="http://www.w3.org/2000/svg" width="250" height="250" viewBox="0 0 250 250">
    <g fill="none" fill-rule="evenodd">
        <circle cx="125" cy="125" r="118.5" stroke="#CFD4D7" stroke-opacity=".494" stroke-width="13"/>
        <circle cx="125.5" cy="125.5" r="114.5" fill="#FFF"/>
        <path fill="#53B9C9" d="M64.717 198.201c.277-33.902 1.021-52.582 2.234-56.038 1.819-5.185 14.045-16.81 21.934-20.331 5.26-2.348 11.48-5.075 18.661-8.18L125 137.958l19.18-24.306c18.207 7.948 28.449 13.233 30.726 15.855 3.416 3.934 9.743 13.568 11.55 36.253 1.205 15.124 1.205 25.937 0 32.441H64.717z"/>
        <path fill="#FFF" d="M152.262 47.53c-11.924 10.325-23.336 16.79-34.237 19.39-10.9 2.602-20.68 3.983-29.338 4.143C93.04 84.64 96.79 92.735 99.935 95.35c3.143 2.614 5.494 4.721 7.05 6.323v8.887L125 137.958l19.18-24.306v-11.98c11.467-11.083 17.2-18.955 17.2-23.616 0-6.993-2.344-22.343-4.59-25.21-1.499-1.913-3.008-3.685-4.528-5.317z"/>
        <g>
            <path fill="#FDCB5B" d="M26.687 43.392c19.15-3.022 30.574-5.403 34.274-7.144C66.51 33.636 88.78 23.417 90.18 20.563c1.4-2.854-15.257-19.028-27.766-15.86-12.51 3.169-28.998 13.673-31.349 16.881-2.352 3.208-4.378 15.287-4.378 17.48v4.328z" transform="translate(62 32)"/>
            <path fill="#243D48" stroke="#243D48" stroke-width="1.995" d="M24.164 135.63v30.204c0 1.495 1.221 2.721 2.721 2.721s2.722-1.226 2.722-2.721V135.63c0-1.5-1.221-2.721-2.722-2.721-1.5 0-2.72 1.22-2.72 2.72zM99.38 132.909c-1.5 0-2.721 1.22-2.721 2.72v30.205c0 1.495 1.22 2.721 2.721 2.721 1.5 0 2.721-1.226 2.721-2.721V135.63c0-1.5-1.22-2.721-2.721-2.721M73.313 50.53c-2.716 2.712-6.327 4.217-10.18 4.217-3.847 0-7.468-1.505-10.18-4.221-.956-.942-2.498-.952-3.45.004-.459.464-.714 1.08-.714 1.723 0 .658.255 1.268.714 1.727 3.635 3.635 8.476 5.637 13.63 5.637s9.991-2.002 13.63-5.637c.46-.459.71-1.07.71-1.727 0-.644-.25-1.259-.71-1.727-.95-.942-2.494-.952-3.45.004" transform="translate(62 32)"/>
            <path fill="#243D48" stroke="#243D48" stroke-width="1.995" d="M79.395 68.264c-2.494 1.335-5.05 2.376-7.657 3.072-.052.009-.104.023-.152.037-1.344.35-2.692.616-4.05.8-.062.005-.12.02-.176.029-1.628.208-3.26.265-4.893.232-1.61-.034-3.186-.204-4.728-.46-.696-.108-1.392-.25-2.083-.407-1.282-.293-2.532-.667-3.753-1.107-.487-.17-.98-.298-1.462-.492-11.396-4.69-19.66-15.467-20.7-28.278h.77c22.036 0 43.262-7.743 59.926-21.95l.066-.071c3.866 5.466 6.157 12.11 6.157 19.3 0 12.589-6.98 23.564-17.265 29.295h0zm-.856 12.163l-15.405 23.114-15.405-23.114v-5.68c4.728 2.045 9.934 3.19 15.405 3.19 5.47 0 10.672-1.145 15.405-3.19v5.68zM63.134 5.443c9.342 0 17.795 3.847 23.88 10.033l-.269.274C71.227 28.97 51.255 36.248 30.512 36.248h-.772C31.136 19.03 45.566 5.443 63.134 5.443h0zm44.714 86.068L83.977 79.58v-7.743c10.875-6.924 18.12-19.054 18.12-32.868C102.098 17.482 84.62 0 63.135 0S24.165 17.482 24.165 38.969c0 13.814 7.25 25.944 18.126 32.868v7.743L18.363 91.54C7.037 97.54 0 108.874 0 121.127v44.705c0 1.5 1.216 2.721 2.721 2.721 1.5 0 2.722-1.22 2.722-2.721v-44.705c0-10.237 5.92-19.73 15.41-24.757l23.222-11.609 16.338 24.506v23.341c0 1.496 1.22 2.717 2.72 2.717 1.501 0 2.717-1.221 2.717-2.717v-23.341l16.338-24.506 23.17 11.581c9.542 5.054 15.467 14.553 15.467 24.785v44.705c0 1.5 1.221 2.721 2.721 2.721s2.717-1.22 2.717-2.721v-44.705c0-12.253-7.033-23.588-18.415-29.617h0z" transform="translate(62 32)"/>
        </g>
    </g>
</svg>
