<?xml version="1.0" encoding="UTF-8"?>
<svg width="215px" height="400px" viewBox="0 0 217 604" version="1.1" xmlns="http://www.w3.org/2000/svg" xmlns:xlink="http://www.w3.org/1999/xlink">
    <!-- Generator: sketchtool 63.1 (101010) - https://sketch.com -->
    <title>A53A8F2E-068B-440E-B107-5550888919E5</title>
    <desc>Created with sketchtool.</desc>
    <g id="symbols" stroke="none" stroke-width="1" fill="none" fill-rule="evenodd">
        <g id="10_illustration/404/girl-green/all">
            <g id="10_illustration/404/girl-green/4" transform="translate(0.000000, 376.233344)" fill="#53B9C9" fill-rule="nonzero">
                <polygon id="4" transform="translate(108.615000, 113.500000) rotate(14.000000) translate(-108.615000, -113.500000) " points="165.45 208 165.45 168.31 196.23 168.31 196.23 132.67 165.45 132.67 165.45 97.3 124.14 97.3 124.14 132.67 73.38 132.67 156 19 110.1 19 21 138.88 21 168.31 122.79 168.31 122.79 208"></polygon>
            </g>
            <g id="10_illustration/404/girl-green/only" transform="translate(32.967581, 177.521540)">
                <g id="Group-9">
                    <g id="Group-8" transform="translate(67.414774, 210.073859) rotate(3.000000) translate(-67.414774, -210.073859) translate(22.914774, 127.573859)">
                        <g id="Group-7">
                            <path d="M45.7330069,9.73018601 C45.7330069,9.73018601 86.026746,-9.76935568 88.7298143,6.44007145 C91.4328827,22.6550421 72.9633017,79.3963524 72.9633017,79.3963524 L65.9242345,79.3963524 C65.9242345,79.3963524 66.6478251,44.4523976 68.1754053,36.2118664 C70.426576,24.0520242 37.7956893,35.5161471 33.1935421,48.773618 C28.3363362,62.7794722 25.231273,80.9236087 19.7752335,117.350471 C15.7303343,144.364335 12.5698236,151 12.5698236,151 L5.40045457,151 C5.40045457,151 4.49943178,133.437939 5.40045457,104.165067 C6.30147736,74.8949657 8.58591667,22.1727507 20.4350594,8.81272357 C20.4350594,8.81272357 37.0804158,13.5774303 45.7330069,9.73018601" id="Fill-67" fill="#E67962"></path>
                            <path d="M64.0724431,71.7941515 C64.0724431,71.7941515 52.1798037,75.9982778 57.2643981,80.1776902 C62.346226,84.3543565 84.9419642,105.287116 81.0579759,97.1314956 C77.176754,88.9758749 72.4130589,82.0284943 73.4559817,81.3008043 C74.4961381,80.5731142 86.289188,82.6545824 84.8838703,80.7076682 C83.481319,78.7580081 72.1364216,76.1081178 69.7435086,73.2055956 C67.3561283,70.2975813 67.1818468,68.3534132 66.1804196,69.1991813 C65.176226,70.0422033 64.0724431,71.7941515 64.0724431,71.7941515" id="Fill-79" fill="#FDCB5B"></path>
                            <polygon id="Fill-81" fill="#134F49" points="71.1562224 84.2545 71 83.4325 73.8464254 82.7455 74 83.5675"></polygon>
                            <polygon id="Fill-83" fill="#134F49" points="72.1562224 86.2545 72 85.4355 74.8437776 84.7455 75 85.5675"></polygon>
                            <polygon id="Fill-85" fill="#134F49" points="73.1562224 89.2545 73 88.4325 75.8464254 87.7455 76 88.5675"></polygon>
                            <polygon id="Fill-87" fill="#134F49" points="74.1562224 91.2545 74 90.4325 76.8437776 89.7455 77 90.5675"></polygon>
                            <path d="M4.61205699,147.735289 C4.61205699,147.735289 -4.01848177,156.950393 2.33280768,158.452217 C8.68683004,159.956838 37.9727241,168.791591 30.9081444,163.122695 C23.8435647,157.453798 16.5384886,153.278335 17.1369966,152.145674 C17.7327716,151.013014 29.0770928,147.570285 26.9672841,146.43203 C24.8602083,145.296573 13.6579985,148.017755 10.2500562,146.454404 C6.84484678,144.888256 5.82547029,143.196257 5.3171485,144.418412 C4.80882671,145.643363 4.61205699,147.735289 4.61205699,147.735289" id="Fill-89" fill="#FDCB5B"></path>
                            <polygon id="Fill-91" fill="#134F49" points="16.5082285 155.856 16 155.199 18.4917715 153.144 19 153.798"></polygon>
                            <polygon id="Fill-93" fill="#134F49" points="18.5087209 157.856 18 157.199 20.494186 155.144 21 155.798"></polygon>
                            <polygon id="Fill-97" fill="#134F49" points="22.5082285 160.856 22 160.199 24.4917715 158.144 25 158.798"></polygon>
                        </g>
                        <polygon id="Fill-95" fill="#134F49" points="20.5087209 158.856 20 158.199 22.494186 156.144 23 156.798"></polygon>
                    </g>
                    <g id="Group-3" transform="translate(60.000000, 74.500000) rotate(3.000000) translate(-60.000000, -74.500000) translate(4.000000, 3.000000)">
                        <path d="M48,68.0084903 C48,68.0084903 61.5496324,67.8058735 66.7996324,69.3802606 C71.9917279,70.9382193 75,72.6796284 75,72.6796284 C75,72.6796284 69.5459559,80.2010916 69.2840074,82 C69.2840074,82 58.9080882,79.3166968 48.3033088,78.6513471 L48,68.0084903 Z" id="Fill-53" fill="#E67962"></path>
                        <path d="M65.6632459,54 C65.6632459,54 69.359737,53.2118617 70.7163241,50.8835234 C72.0756968,48.5524101 73.5827063,42.6163964 68.189785,39.7607825 C62.7968637,36.9051686 56,38.3815404 56,38.3815404 L65.6632459,54 Z" id="Fill-55" fill="#3C1506"></path>
                        <path d="M64.3522365,82.0926634 C64.3522365,82.0926634 78.9390043,100.968673 88.1652929,93.1655544 C97.3915815,85.362436 101.76649,52.6176715 101.76649,52.6176715 L104.5,55.2995605 C104.5,55.2995605 108.469238,91.347168 99.0016485,103.398834 C89.5340588,115.450501 81.3211342,113.875962 62.8108583,99.3282445 C61.9371359,98.643809 59,97.0116937 59,97.0116937 L64.3522365,82.0926634 Z" id="Fill-57" fill="#80C0A1"></path>
                        <path d="M63,78 C63,78 73.973144,82.9607131 78.3060039,91.0222174 C82.7283409,99.252303 84,120.66766 84,120.66766 L63.2928341,129 L63,78 Z" id="Fill-59" fill="#80C0A1"></path>
                        <path d="M67.7079389,48.3592967 C71.2417987,57.165127 75.3786692,64.6945512 67.482489,68.1339855 C65.3502215,69.0617819 63.8291135,69.3033383 63.0278155,69.3582375 C62.5877807,69.3884321 62.2047875,69.6739079 62.0825556,70.0856518 C61.9032821,70.7005227 62.3731958,75.981825 63.15548,80.1541636 C63.3266046,81.0654901 54.8219812,83.3904709 49.2482069,80.8458934 C49.2482069,80.8458934 51.5543152,66.8740491 51.0246437,63.5938224 C50.3645915,59.4846179 44.2611456,46.981327 48.468639,44.3242061 C52.1491771,42.0047152 60.5641638,37.9668797 65.7223497,44.7524198 C66.4584573,45.7213905 67.1293746,46.912703 67.7079389,48.3592967" id="Fill-61" fill="#FEC191"></path>
                        <path d="M64.3017625,41.6683397 C65.2218399,41.8585987 67.4622701,42.7244152 67.0369775,44.8668973 C66.611685,47.0093794 62.6506266,53.2438094 57.1774168,51.1757764 C55.0676321,50.3788944 58.6311948,58.0967933 55.0175976,62.2797346 C51.4040005,66.4571611 44.1295516,65.6134037 40.3158168,61.1822985 C34.1004298,53.9634848 35.8321767,48.6252025 29.8614024,50.2685993 C22.9566523,52.1684322 22.2756282,46.8246352 22.8009896,40.4054609 C23.0706196,37.1407263 21.1943288,38.2602214 19.237427,36.9890705 C10.6648628,31.430198 16.9747592,23.9907942 12.9608868,17.8170266 C11.2319195,15.1616723 6.39525881,15.7627805 3.89909712,13.1487869 C0.594045619,9.68827846 0.221567149,4.1349207 2.23962215,2.3288386 C5.52799551,-0.607768159 9.80315885,-0.549863237 13.7169625,1.29482214 C15.9407145,2.34538287 19.5376335,-1.49012888 23.5542857,1.69464184 C27.5681581,4.87941255 25.6001376,8.12484557 27.1678828,9.66070469 C29.1664799,11.6211999 37.9058255,5.91067164 40.3158168,9.69379322 C42.7230284,13.4769148 42.6535362,16.3556166 44.3658253,17.4723544 C46.3449646,18.7600496 50.1614791,13.8271017 53.5721588,17.213161 C56.9856182,20.5964628 54.8674944,28.7969027 58.6812292,27.8014896 C62.494964,26.8060764 67.1981996,27.2389846 68.8048604,31.2206373 C70.4087416,35.2022901 61.5165131,41.0892905 64.3017625,41.6683397" id="Fill-63" fill="#3C1506"></path>
                        <path d="M55.1115221,55.7504905 C54.7998349,54.9815158 53.6323749,53.3415877 52.1477595,54.2842018 C50.663144,55.226816 50.0999198,58.6555059 53.7143978,62.1531003 C57.3288758,65.653451 55.7266942,57.2691465 55.1115221,55.7504905" id="Fill-65" fill="#FEC191"></path>
                        <path d="M75.9996241,98.612203 C75.8699599,105.308985 67.5880001,123.923442 72.1952196,133.353662 C72.1952196,133.353662 49.7049355,147.088461 41.1884766,141.698975 C41.1884766,141.698975 53.4463194,116.422383 47.0210415,102.951431 C41.9227532,92.2636643 42.9269615,84.0578257 49.476386,79 C49.476386,79 59.1432704,83.6073199 63.361497,79 C63.361497,79 76.0796297,94.3448352 75.9996241,98.612203 Z" id="Fill-69" fill="#FCCAC5"></path>
                        <path d="M105,54 C105,54 99.1795333,49.2253481 100.127424,49.2083363 C101.075315,49.1913245 102.755409,49.7753971 103.203812,49.8859739 C103.652215,49.9937155 102.386469,44.6831911 103.887769,45.0149217 C105.386231,45.3466523 109.725527,47.7963549 109.969595,49.1856538 C110.213663,50.5749528 108.908184,54 108.908184,54 L105,54 Z" id="Fill-71" fill="#FEC191" transform="translate(105.011526, 49.500000) rotate(46.000000) translate(-105.011526, -49.500000) "></path>
                        <path d="M49.3627018,78 C49.3627018,78 55.7517294,100.925817 56.1028055,119.604872 C56.1501729,122.02561 57,136 57,136 L31.1847617,135.221008 C30.6024212,121.1824 31.5859915,114.484186 29.9559954,104.555529 C29.9559954,104.555529 27.2805176,92.9992676 28,85.2203341 L49.3627018,78 Z" id="Fill-73" fill="#80C0A1"></path>
                        <path d="M28,85.2203341 C28,85.2203341 -1.92652777,95.4761223 1.22447767,111.056067 C4.3754831,126.633271 44,119.252865 44,119.252865 L44,114.592854 C44,114.592854 15.7684324,115.606495 20.1471383,109.297262 C23.9050656,103.889347 30.902681,104.081117 30.902681,104.081117 L28,85.2203341 Z" id="Fill-75" fill="#80C0A1"></path>
                        <path d="M44,114.536318 C44,114.536318 46.6696165,109.180997 46.899705,110.10777 C47.1297935,111.031691 46.9085546,112.811095 46.899705,113.275907 C46.8879056,113.737867 52,111.342516 52,112.888088 C52,114.43366 50.4837758,119.221511 49.1268437,119.760465 C47.7669617,120.299419 44,119.760465 44,119.760465 L44,114.536318 Z" id="Fill-77" fill="#FEC191"></path>
                        <path d="M50.6965361,83 C50.6965361,83 51.814759,77.0206372 57,72.6080739 C57,72.6080739 53.0986446,68.6870022 47.8222892,68 C47.8222892,68 47.1623996,77.5121289 46,78.8807024 C46,78.8807024 46.6875,82.5085083 50.6965361,83" id="Fill-99" fill="#E67962"></path>
                    </g>
                </g>
            </g>
            <g id="10_illustration/404/girl-green/grey-line" transform="translate(142.645000, 0.000000)" stroke="#979797" stroke-linecap="square" stroke-width="2">
                <path d="M0.5,5.68434189e-14 L0.5,118 M0.5,168.785156 L0.5,401.635742" id="Shape"></path>
            </g>
            <g id="10_illustration/404/girl-green/text" transform="translate(109.145000, 119.000000)" fill="#53B9C9" fill-rule="nonzero">
                <g id="Group-2" transform="translate(34.000000, 24.000000) rotate(-12.000000) translate(-34.000000, -24.000000) translate(3.000000, 7.000000)">
                    <polygon id="H" points="42.768 30 42.768 18.372 58.536 18.372 58.536 30 61.164 30 61.164 4.8 58.536 4.8 58.536 16.032 42.768 16.032 42.768 4.8 40.104 4.8 40.104 30"></polygon>
                    <path d="M17,0 C26.3888407,0 34,7.61115925 34,17 C34,26.3888407 26.3888407,34 17,34 C7.61115925,34 0,26.3888407 0,17 C0,7.61115925 7.61115925,0 17,0 Z M17,5 C10.372583,5 5,10.372583 5,17 C5,23.627417 10.372583,29 17,29 C23.627417,29 29,23.627417 29,17 C29,10.372583 23.627417,5 17,5 Z" id="Oval-Copy-4"></path>
                </g>
            </g>
        </g>
    </g>
</svg>
