<?xml version="1.0" encoding="UTF-8"?>
<svg width="215px" height="400px" viewBox="0 0 215 763" version="1.1" xmlns="http://www.w3.org/2000/svg" xmlns:xlink="http://www.w3.org/1999/xlink">
    <!-- Generator: sketchtool 63.1 (101010) - https://sketch.com -->
    <title>F2133F59-E4BC-49F2-9166-7369E29CFBE0</title>
    <desc>Created with sketchtool.</desc>
    <g id="symbols" stroke="none" stroke-width="1" fill="none" fill-rule="evenodd">
        <g id="10_illustration/404/boy/all">
            <g id="10_illustration/404/boy/0" transform="translate(0.000000, 566.260000)" fill="#53B9C9" fill-rule="nonzero">
                <path d="M81,195.48 C96.66,195.48 110.61,191.61 122.85,183.87 C135.09,176.13 144.675,164.925 151.605,150.255 C158.535,135.585 162,118.08 162,97.74 C162,77.4 158.535,59.895 151.605,45.225 C144.675,30.555 135.09,19.35 122.85,11.61 C110.61,3.87 96.66,0 81,0 C65.34,0 51.39,3.87 39.15,11.61 C26.91,19.35 17.325,30.555 10.395,45.225 C3.465,59.895 0,77.4 0,97.74 C0,118.08 3.465,135.585 10.395,150.255 C17.325,164.925 26.91,176.13 39.15,183.87 C51.39,191.61 65.34,195.48 81,195.48 Z M81,158.49 C69.66,158.49 60.705,153.54 54.135,143.64 C47.565,133.74 44.28,118.44 44.28,97.74 C44.28,77.04 47.565,61.74 54.135,51.84 C60.705,41.94 69.66,36.99 81,36.99 C92.52,36.99 101.565,41.94 108.135,51.84 C114.705,61.74 117.99,77.04 117.99,97.74 C117.99,118.44 114.705,133.74 108.135,143.64 C101.565,153.54 92.52,158.49 81,158.49 Z" id="0"></path>
            </g>
            <g id="Group-2" transform="translate(49.118848, 243.759036)">
                <g id="10_illustration/404/boy/only">
                    <g id="Group-6">
                        <g>
                            <g id="Group" transform="translate(35.168535, 160.077175)">
                                <path d="M61.2483077,2.97577228 C61.2483077,2.97577228 66.1678439,9.02900726 67.5842171,32.9263164 C69.0005904,56.8205006 40.4590964,92.9555321 39.568355,102.793211 C38.6807612,112.634015 72.4450939,172.693925 72.4450939,172.693925 L57.9339943,174.975772 C57.9339943,174.975772 3.57044301,125.471748 8.29168704,92.674277 C13.0097836,59.8768061 29.9149847,4.81330566 29.9149847,4.81330566 L61.2483077,2.97577228 Z" id="Fill-3" fill="#0086B2" transform="translate(40.223076, 88.975772) rotate(5.000000) translate(-40.223076, -88.975772) "></path>
                                <path d="M64.817529,174.294217 C64.817529,174.294217 72.6865919,187.075037 64.817529,187.176301 C56.9453851,187.277566 20.197416,189.941132 29.949015,185.233862 C39.7006141,180.53273 49.3566999,177.6114 48.9407549,176.156872 C48.5217289,174.705413 36.0033254,167.853175 38.7762919,167.086019 C41.5492585,166.318863 54.0799863,172.308817 58.4859221,171.382093 C62.89802,170.455368 64.5217459,168.773762 64.817529,170.308074 C65.1102311,171.839318 64.817529,174.294217 64.817529,174.294217" id="Fill-5" fill="#E67962" transform="translate(48.314890, 177.517950) rotate(5.000000) translate(-48.314890, -177.517950) "></path>
                                <polygon id="Fill-7" fill="#FFFFFF" transform="translate(47.686059, 178.968664) rotate(5.000000) translate(-47.686059, -178.968664) " points="48.4495594 180.968664 46.2265594 177.658319 46.9225594 176.968664 49.1455594 180.282639"></polygon>
                                <polygon id="Fill-9" fill="#FFFFFF" transform="translate(45.606514, 179.790547) rotate(5.000000) translate(-45.606514, -179.790547) " points="46.3685142 181.790547 44.1455142 178.476573 44.8445142 177.790547 47.0675142 181.104522"></polygon>
                                <polygon id="Fill-11" fill="#FFFFFF" transform="translate(42.487197, 181.023372) rotate(5.000000) translate(-42.487197, -181.023372) " points="43.2491965 182.523372 41.0261965 180.037891 41.7251965 179.523372 43.9481965 182.008853"></polygon>
                                <polygon id="Fill-13" fill="#FFFFFF" transform="translate(39.411457, 181.758100) rotate(5.000000) translate(-39.411457, -181.758100) " points="40.1749567 183.2581 37.9519567 180.775341 38.6479567 180.2581 40.8709567 182.743581"></polygon>
                            </g>
                            <path d="M42.8026389,103.24367 C19.2599075,101.469188 29.7288867,77.0097161 29.7288867,77.0097161 L21.2925233,75.2842861 C21.2925233,75.2842861 1.7047134,123.553981 39.0004532,127.879869 C76.296193,132.205757 84.903433,110.125657 84.903433,110.125657 C84.903433,110.125657 84.5920877,92.2243539 77.7393478,90.6814618 C67.0781323,88.2748006 66.3453702,105.018152 42.8026389,103.24367 Z" id="Fill-25" fill="#FDCB5B" transform="translate(50.527641, 101.862933) rotate(5.000000) translate(-50.527641, -101.862933) "></path>
                            <path d="M99.2738925,47.9024825 C99.2738925,47.9024825 96.355086,40.8064651 90.2221733,41.3274222 C84.0892605,41.8483792 82.827242,47.1485509 82.827242,47.1485509 C82.827242,47.1485509 81.1797793,46.0354501 76.8435334,48.4525614 C74.1081237,49.9798392 73.1662724,57.3541317 76.3834872,57.5029766 C76.3834872,57.5029766 73.163164,59.7518284 74.680073,63.2367398 C76.1938736,66.724887 84.3659099,64.7348958 84.3659099,64.7348958 L99.2738925,47.9024825 Z" id="Fill-27" fill="#3C1506" transform="translate(86.773892, 53.300080) rotate(5.000000) translate(-86.773892, -53.300080) "></path>
                            <path d="M78.149578,59.2812204 C74.1372198,70.7886112 68.093991,80.1497574 78.1434051,84.6842099 C80.8563765,85.9097376 82.800827,86.2428298 83.8224352,86.3245316 C84.3872517,86.3716673 84.8718212,86.742468 85.0199698,87.27353 C85.3008348,88.2790912 85.7637992,93.0523645 84.5539189,94.8843712 C84.5539189,94.8843712 88.4366471,99.3968271 100.37187,93.4985822 C100.37187,93.4985822 98.5385305,83.307848 99.2638414,79.1064877 C100.171252,73.839861 108.165104,57.8702923 102.822494,54.3948215 C97.9274174,51.2147342 87.3810882,40.5117923 80.0724235,54.7216288 C79.4026683,56.0225736 78.7576046,57.5340578 78.149578,59.2812204" id="Fill-29" fill="#FEC191" transform="translate(88.648193, 72.034727) rotate(5.000000) translate(-88.648193, -72.034727) "></path>
                            <g id="Group-5" transform="translate(0.365800, 157.981815)">
                                <path d="M65.9233997,4 C65.9233997,4 9.81990358,52.1425199 7.00593513,77.2563967 C4.20138844,102.307465 32.6017419,153 32.6017419,153 L44.0586135,153 C44.0586135,153 30.1049731,100.580239 39.0493728,90.2200185 C47.9969131,79.8597985 96.8111003,12.0865616 96.8111003,12.0865616 L65.9233997,4 Z" id="Fill-1" fill="#0086B2" transform="translate(51.811100, 78.500000) rotate(5.000000) translate(-51.811100, -78.500000) "></path>
                                <path d="M38.9084249,146.512214 C38.9084249,146.512214 49.9984189,157.343238 42.2514773,159.513283 C34.49824,161.680128 -1.14209837,174.018661 7.27849031,166.711561 C15.699079,159.40126 24.4879701,153.915334 23.6978513,152.561456 C22.9077325,151.204377 8.75799561,147.578033 11.2983377,146.076925 C13.8418277,144.575817 27.7775084,147.325181 31.8949402,145.235152 C36.0155199,143.141922 37.1865326,141.016686 37.8727712,142.488988 C38.5621577,143.95809 38.9084249,146.512214 38.9084249,146.512214" id="Fill-15" fill="#E67962" transform="translate(25.500000, 155.499844) rotate(5.000000) translate(-25.500000, -155.499844) "></path>
                                <polygon id="Fill-17" fill="#FFFFFF" transform="translate(23.507611, 155.325533) rotate(5.000000) translate(-23.507611, -155.325533) " points="24.5333655 156.731033 22.0076106 154.643033 22.4818557 153.920033 25.0076106 156.005033"></polygon>
                                <polygon id="Fill-19" fill="#FFFFFF" transform="translate(21.340910, 157.143611) rotate(5.000000) translate(-21.340910, -157.143611) " points="22.3689097 158.549111 19.8409097 156.464111 20.3129097 155.738111 22.8409097 157.826111"></polygon>
                                <polygon id="Fill-21" fill="#FFFFFF" transform="translate(18.676111, 158.918111) rotate(5.000000) translate(-18.676111, -158.918111) " points="20.0467782 160.323611 16.6761115 158.238611 17.3054448 157.512611 20.6761115 159.600611"></polygon>
                                <polygon id="Fill-23" fill="#FFFFFF" transform="translate(16.509411, 160.736189) rotate(5.000000) translate(-16.509411, -160.736189) " points="17.8765217 162.141689 14.5094106 160.053689 15.1387439 159.330689 18.5094106 161.415689"></polygon>
                            </g>
                            <path d="M91.2268009,46.8068108 C91.2268009,46.8068108 100.301831,41.660442 107.414848,47.2681632 C111.857308,50.7722041 109.275664,60.6720614 108.249993,61.557491 C108.249993,61.557491 112.841699,63.6674511 112.594014,67.3190635 C112.343153,70.970676 108.586591,75.086982 100.927396,78.0446939 C100.927396,78.0446939 96.1197581,78.6255609 98.7617359,71.7116739 C101.403714,64.7977868 97.3931152,62.0818412 94.3891357,65.5419245 C92.8839705,67.2656866 92.8077596,70.0569879 92.3822487,71.463628 C91.9599133,72.8765476 90.0641673,71.8780844 90.0641673,71.8780844 C90.0641673,71.8780844 94.4145393,60.5998455 89.5148137,58.6248977 C84.6182636,56.6530898 77.6036856,57.5165407 77.6036856,57.5165407 L84.7008254,45.9494382 L91.2268009,46.8068108 Z" id="Fill-31" fill="#3C1506" transform="translate(95.103686, 61.353528) rotate(5.000000) translate(-95.103686, -61.353528) "></path>
                            <path d="M73.5151475,69.3288111 L72.4424152,73.749369 C72.4424152,73.749369 62.4393379,80.4530042 67.8575452,85.490024 C73.2787828,90.523946 90.4940153,90.1955794 90.6485615,80.2919187 C90.8091683,70.3851603 91.2485643,63.6877207 91.2485643,63.6877207 C91.2485643,63.6877207 89.5334047,69.7346226 86.9849079,72.1725898 C84.4364111,74.6074591 82.9182221,66.8350836 73.5151475,69.3288111" id="Fill-33" fill="#3C1506" transform="translate(78.748564, 76.187721) rotate(5.000000) translate(-78.748564, -76.187721) "></path>
                            <path d="M72.4886061,72.8059146 C72.1216644,74.0216622 73.589431,75.536309 75.7708823,76.1844839 C77.9456007,76.8326587 80.0092267,76.3691969 80.3761683,75.1500909 C80.74311,73.9309849 79.2753434,72.4196964 77.0972586,71.7681632 C74.9191737,71.1233468 72.8521813,71.5868086 72.4886061,72.8059146" id="Fill-35" fill="#FEC191" transform="translate(76.432389, 73.977442) rotate(5.000000) translate(-76.432389, -73.977442) "></path>
                            <path d="M71.0166158,94.7307277 C71.0166158,94.7307277 114.795661,83.9639976 121.952671,94.8058225 C129.109682,105.647648 110.114863,170.967687 110.114863,170.967687 L72.8421903,167.406938 C72.8421903,167.406938 41.9716621,100.569355 71.0166158,94.7307277" id="Fill-37" fill="#FDCB5B" transform="translate(91.064620, 130.467687) rotate(5.000000) translate(-91.064620, -130.467687) "></path>
                            <path d="M108.744129,95.1157333 C108.744129,95.1157333 131.379009,83.059455 137.239192,67.0200744 C143.10555,50.9838399 145.779374,28.3374174 145.779374,28.3374174 L154.010801,28.3374174 C154.010801,28.3374174 158.845915,64.0563442 152.365133,78.5886901 C145.881264,93.1210359 125.203895,117.337417 125.203895,117.337417 L108.744129,95.1157333 Z" id="Fill-39" fill="#FDCB5B" transform="translate(132.244129, 72.837417) rotate(5.000000) translate(-132.244129, -72.837417) "></path>
                            <path d="M151.294866,30 C151.294866,30 142.43078,16.7344085 145.450978,17.9785437 C148.4742,19.2195686 150.892777,21.707839 152.301599,19.8416362 C153.713443,17.9785437 151.699978,-1.0909384 153.912976,1.18893934 C156.132021,3.46881707 155.324821,12.588328 158.348043,14.2492485 C161.368241,15.9070586 163.584263,15.0765984 162.57753,18.8058936 C161.567774,22.5382992 159.354775,30 159.354775,30 L151.294866,30 Z" id="Fill-41" fill="#FEC191" transform="translate(153.823531, 15.500000) rotate(5.000000) translate(-153.823531, -15.500000) "></path>
                            <path d="M95.2492741,91.4353559 C95.2492741,91.4353559 94.2082915,110.683826 89.4331419,118.035346 C84.6611757,125.383738 86.0778035,131.008433 90.5409766,142.110793 C95.0009663,153.213152 108.205847,168.848428 111.233292,172.755683 C114.254369,176.666066 125.125793,160.561544 127.166374,154.461347 C129.210138,148.364277 119.92088,122.16471 119.92088,122.16471 C119.92088,122.16471 101.167276,103.616981 104.812307,91.3602765 L95.2492741,91.4353559 Z" id="Fill-45" fill="#243D48" transform="translate(106.960157, 132.360277) rotate(5.000000) translate(-106.960157, -132.360277) "></path>
                            <path d="M75.7852817,91.9990725 C75.7852817,91.9990725 69.7853608,111.74793 74.2941962,119.27071 C77.3960421,124.438722 78.3922554,121.556861 76.5583173,141.61137 C75.4780081,153.466299 74.5044361,163.621428 71.9524481,167.850653 C69.4036947,172.086115 64.0862446,163.665093 61.2496243,157.876419 C58.413004,152.090865 59.8296969,128.649234 59.8296969,128.649234 C59.8296969,128.649234 61.6830417,107.47504 68.1002078,92.9784062 L75.7852817,91.9990725 Z" id="Fill-47" fill="#243D48" transform="translate(68.475928, 130.499072) rotate(5.000000) translate(-68.475928, -130.499072) "></path>
                            <path d="M83.9509699,98.2157663 C82.6059458,106.84022 78.8986267,127.390725 71.9014097,145.284451 C71.8395695,145.445656 71.9014097,145.284451 71.9539739,145.445656 L75.6396489,154.637426 C75.7231332,154.907134 75.9704939,154.916435 76.1127264,154.659127 L83.3727641,146.787995 C83.4222363,146.698093 83.5521007,146.177278 83.5521007,146.065674 L84.875556,98.2715679 C84.8847567,97.7445524 84.0344541,97.6856507 83.9509699,98.2157663" id="Fill-49" fill="#53B9C9" transform="translate(78.375556, 126.346079) rotate(5.000000) translate(-78.375556, -126.346079) "></path>
                            <path d="M89.9070351,91.4479179 L83.1814754,92.0486033 C82.7057333,92.0903621 82.4450527,92.610742 82.6992163,93.0058452 L86.6485275,99.1540367 C86.9255007,99.5844743 87.5837192,99.5266544 87.7792297,99.0544578 L90.5522196,92.305581 C90.7314375,91.8719311 90.3827772,91.406159 89.9070351,91.4479179" id="Fill-51" fill="#53B9C9" transform="translate(86.600033, 95.445302) rotate(5.000000) translate(-86.600033, -95.445302) "></path>
                        </g>
                    </g>
                    <path d="M41.019552,72.4962204 C41.019552,72.4962204 43.0826976,56.8086164 40.8238259,59.3010395 C38.5649541,61.7873537 37.4676045,65.0769856 35.2536535,64.1087281 C33.0397025,63.1374161 25.8940954,45.5713315 24.8865872,48.5891183 C23.8790791,51.606905 28.9647492,59.1849708 26.9016035,62.0347633 C24.8416665,64.8845558 22.358191,65.1899998 25.0791047,67.9787036 C27.7968098,70.7643529 33.3093262,76.3305069 33.3093262,76.3305069 L41.019552,72.4962204 Z" id="Fill-43" fill="#FEC191" transform="translate(32.881152, 62.285735) rotate(43.000000) translate(-32.881152, -62.285735) "></path>
                </g>
            </g>
            <g id="10_illustration/404/boy/grey-line" transform="translate(82.135000, 0.000000)" stroke="#979797" stroke-linecap="square" stroke-width="2">
                <path d="M0.5,-1.13686838e-13 L0.5,215.871094 M0.5,268.5 L0.5,567" id="Shape"></path>
            </g>
            <g id="10_illustration/404/boy/text" transform="translate(55.135000, 231.000000)" fill="#9EA9AF" fill-rule="nonzero">
                <g id="MY-2">
                    <path d="M2.556,25.2 L2.556,5.148 L12.456,21.996 L13.716,21.996 L23.616,5.04 L23.616,25.2 L26.172,25.2 L26.172,-9.05941988e-14 L23.976,-9.05941988e-14 L13.14,18.684 L2.196,-9.05941988e-14 L-7.21200877e-13,-9.05941988e-14 L-7.21200877e-13,25.2 L2.556,25.2 Z M43.02,25.2 L43.02,16.488 L53.1,-9.05941988e-14 L50.436,-9.05941988e-14 L41.796,14.148 L33.156,-9.05941988e-14 L30.312,-9.05941988e-14 L40.392,16.488 L40.392,25.2 L43.02,25.2 Z" id="MY"></path>
                </g>
            </g>
        </g>
    </g>
</svg>
