<?xml version="1.0" encoding="UTF-8"?>
<svg width="217px" height="400px" viewBox="0 0 207 654" version="1.1" xmlns="http://www.w3.org/2000/svg" xmlns:xlink="http://www.w3.org/1999/xlink">
    <!-- Generator: sketchtool 63.1 (101010) - https://sketch.com -->
    <title>76CDF5C5-F422-4A38-B856-E2346B348D5E</title>
    <desc>Created with sketchtool.</desc>
    <g id="symbols" stroke="none" stroke-width="1" fill="none" fill-rule="evenodd">
        <g id="10_illustration/404/girl-orange/all">
            <g id="10_illustration/404/girl-orange/4" transform="translate(0.000000, 436.733344)" fill="#53B9C9" fill-rule="nonzero">
                <polygon id="4" transform="translate(103.615000, 108.500000) rotate(-10.000000) translate(-103.615000, -108.500000) " points="160.45 203 160.45 163.31 191.23 163.31 191.23 127.67 160.45 127.67 160.45 92.3 119.14 92.3 119.14 127.67 68.38 127.67 151 14 105.1 14 16 133.88 16 163.31 117.79 163.31 117.79 203"></polygon>
            </g>
            <g id="10_illustration/404/girl-orange/only" transform="translate(63.771381, 197.569410)">
                <g id="Group">
                    <g id="Group-4" transform="translate(0.000000, 9.196293)">
                        <path d="M56.5593228,136.893985 C56.5593228,136.893985 44.1852749,168.862362 59.4864385,190.805397 C65.544718,199.494673 58.3447419,235.850199 58.3447419,235.850199 L55.6678278,235.850199 C55.6678278,235.850199 54.6548757,198.838787 45.9075363,186.879797 C37.1626262,174.918377 28.9011152,131.063886 31.9302549,115.44165 C31.9302549,115.44165 56.0249116,116.306448 56.5593228,136.893985" id="Fill-139" fill="#FDCB5B" transform="translate(46.601810, 175.645925) rotate(-1.000000) translate(-46.601810, -175.645925) "></path>
                        <path d="M44.0439103,26.203692 C41.3062676,32.9593192 38.0998005,38.7359757 44.2188085,41.3740955 C45.8706249,42.0858534 47.0511878,42.2704732 47.6706189,42.3117697 C48.0131279,42.3360618 48.3094832,42.5546905 48.4042197,42.8704876 C48.5451099,43.3417539 48.1807387,47.3936727 47.5734532,50.5953687 C47.4398504,51.2949806 54.0325411,53.07559 58.3539842,51.1225069 C58.3539842,51.1225069 56.5661359,40.4072707 56.9766608,37.8906113 C57.4867806,34.7399286 62.2187486,25.1445574 58.9588405,23.1113103 C56.1045989,21.3282717 50.1726349,16.5500197 46.1742676,21.7533831 C45.6034193,22.4991499 44.4933015,25.093544 44.0439103,26.203692" id="Fill-141" fill="#FEC191" transform="translate(50.407241, 35.702969) rotate(-1.000000) translate(-50.407241, -35.702969) "></path>
                        <path d="M43.9187753,24.1698883 C42.5001566,24.1698883 41.2588651,25.1318546 40.8993522,26.5043571 C40.6880168,27.3132833 40.8046156,28.1537893 41.2248572,28.875264 C41.6475278,29.5943096 42.3228292,30.1068725 43.1317334,30.3182135 C43.3916516,30.3862314 43.6588572,30.4202403 43.9236336,30.4202403 C45.3422524,30.4202403 46.5859729,29.4607031 46.9454859,28.0857715 C47.1568212,27.2792744 47.0402224,26.4387685 46.6175518,25.7172937 C46.1973102,24.995819 45.5195797,24.4832561 44.7131047,24.271915 C44.4531865,24.2038972 44.1859809,24.1698883 43.9187753,24.1698883 M43.9236336,31.491521 C43.5665498,31.491521 43.2094659,31.445366 42.8596695,31.3554853 C41.7762723,31.071268 40.8677733,30.3838022 40.3017833,29.4145482 C39.7333641,28.4477234 39.5778991,27.3181418 39.8621086,26.234715 C40.3455078,24.388517 42.0118991,23.0986076 43.9187753,23.0986076 C44.2758591,23.0986076 44.6353721,23.1447626 44.9827394,23.2370725 C46.0685657,23.5188606 46.9770647,24.2087556 47.5430548,25.1755804 C48.1090448,26.1424051 48.2645098,27.2719868 47.9803003,28.3578427 C47.4993302,30.2040408 45.8305098,31.491521 43.9236336,31.491521" id="Fill-143" fill="#134F49" transform="translate(43.921247, 27.295064) rotate(-1.000000) translate(-43.921247, -27.295064) "></path>
                        <path d="M52.9680336,26.251819 C51.3186464,26.251819 49.8733071,27.3692546 49.4554947,28.9676735 C48.9478041,30.9061814 50.1137921,32.8957027 52.0522472,33.4034071 C52.3558899,33.483571 52.6643909,33.5224383 52.9728919,33.5224383 C54.6247083,33.5224383 56.0700476,32.4050027 56.48786,30.8065839 C56.7332033,29.8664804 56.5971713,28.8875096 56.1064847,28.0518621 C55.6182272,27.2137853 54.8311853,26.6162002 53.8911075,26.3708502 C53.5874647,26.2931155 53.2765346,26.251819 52.9680336,26.251819 M52.9728919,34.593719 C52.5720835,34.593719 52.1712751,34.5427056 51.7801833,34.4406789 C49.2708799,33.7847928 47.7623829,31.2074032 48.4182512,28.6980314 C48.9599498,26.625917 50.8303889,25.1805383 52.9680336,25.1805383 C53.368842,25.1805383 53.7720795,25.2339809 54.1607422,25.3360076 C55.3777422,25.6518046 56.3979817,26.4242928 57.0319877,27.5101487 C57.6684228,28.5935754 57.8408919,29.861622 57.5226743,31.0786551 C56.9809757,33.1483403 55.1105366,34.593719 52.9728919,34.593719" id="Fill-145" fill="#134F49" transform="translate(52.971624, 29.887129) rotate(-1.000000) translate(-52.971624, -29.887129) "></path>
                        <polygon id="Fill-147" fill="#134F49" transform="translate(48.291607, 28.155382) rotate(-1.000000) translate(-48.291607, -28.155382) " points="48.9207548 28.9096507 47.3466709 28.4238091 47.6600302 27.4011126 49.2365432 27.884525"></polygon>
                        <path d="M56.2062733,135.283263 C56.2062733,135.283263 28.4193212,151.111981 21.9918123,155.754198 C15.5667324,160.393985 27.2290418,158.253853 45.5544869,192.704879 L43.3148182,194.529215 C43.3148182,194.529215 27.5399719,180.019556 13.1861735,169.678418 C-2.1830061,158.606088 0.63965657,154.391412 16.9926386,138.02098 C27.7998901,127.203717 39.1294071,116.600224 39.1294071,116.600224 C39.1294071,116.600224 52.8151915,117.19538 56.2062733,135.283263" id="Fill-149" fill="#FDCB5B" transform="translate(29.635326, 155.564720) rotate(-1.000000) translate(-29.635326, -155.564720) "></path>
                        <path d="M47.9501808,50.3808907 L41.0951428,49.5379555 C41.0951428,49.5379555 48.4020011,79.4099253 84.5622047,55.8611837 C84.5622047,55.8611837 71.9185221,51.5420521 68.6464682,50.8885951 C65.4740091,50.2594303 58.1550051,50.2521426 58.1550051,50.2521426 L47.9501808,50.3808907 Z" id="Fill-153" fill="#FEC191" transform="translate(62.828674, 57.222319) rotate(-1.000000) translate(-62.828674, -57.222319) "></path>
                        <path d="M46.3334209,21.6965302 C46.3334209,21.6965302 52.4767203,23.1832054 55.5277223,30.0870143 C56.6961394,32.734851 56.4362213,38.2005688 57.1042352,41.7982257 C57.8135446,45.6120821 57.3641534,46.3189816 62.963325,40.3819975 C66.5803171,36.5462782 75.937371,30.0870143 72.9616724,21.2204054 C69.7819258,11.7489237 56.0329837,6.46296729 46.5714767,14.7951505 C40.884856,19.801748 46.3334209,21.6965302 46.3334209,21.6965302" id="Fill-155" fill="#243D48" transform="translate(58.758955, 27.698995) rotate(-1.000000) translate(-58.758955, -27.698995) "></path>
                        <path d="M46.4096806,49.9242475 C46.4096806,49.9242475 46.6477365,71.9425881 77.3520878,53.3372847 C77.3520878,53.3372847 107.101786,61.8273663 112.10096,78.4893035 C117.100134,95.1512406 107.339842,113.239123 82.8249441,120.857119 L79.137507,117.704007 C79.137507,117.704007 91.633012,97.4711342 86.2767545,94.2572921 C80.9229261,91.0458792 72.5083792,127.282374 55.5626866,134.781339 C55.5626866,134.781339 47.9886227,121.576164 29.7822056,116.933948 C29.7822056,116.933948 22.727978,82.0505223 6.66163473,60.573895 C-9.40470859,39.0972678 21.2146227,1 21.2146227,1 L25.9441617,1.66803218 C25.9441617,1.66803218 14.0389381,47.8982881 46.4096806,49.9242475" id="Fill-157" fill="#E67962" transform="translate(57.685468, 67.890669) rotate(-1.000000) translate(-57.685468, -67.890669) "></path>
                        <path d="M59.4318872,235.752992 C59.4318872,235.752992 62.1743882,240.215446 58.5282465,240.038114 C54.8796756,239.858353 50.5970988,240.305327 46.0448872,239.681021 C41.4926756,239.054285 54.61247,237.448579 56.754973,235.752992 L59.4318872,235.752992 Z" id="Fill-159" fill="#FEC191" transform="translate(52.756706, 237.898127) rotate(-1.000000) translate(-52.756706, -237.898127) "></path>
                        <path d="M46.3485967,192.416529 C46.3485967,192.416529 49.472473,193.074844 49.2951456,194.707272 C49.1178183,196.342129 48.1631656,197.610175 47.9858382,200.911469 C47.8060818,204.212762 47.89596,207.292998 45.1291676,208.988585 C42.3623752,210.686602 45.0392893,206.311598 44.638481,202.249962 C44.2401017,198.227194 44.1089281,194.240864 44.1089281,194.240864 L46.3485967,192.416529 Z" id="Fill-161" fill="#FEC191" transform="translate(46.580830, 200.890452) rotate(-1.000000) translate(-46.580830, -200.890452) "></path>
                        <path d="M80.494367,117.290685 C80.494367,117.290685 72.0312373,117.70608 72.8425706,118.408121 C73.6514748,119.110162 75.5340596,119.81949 76.0004549,120.047836 C76.4692792,120.278611 71.5186884,123.971007 73.0587642,124.770216 C74.6012692,125.571855 80.1397123,126.587264 81.3591415,125.55728 C82.5785706,124.527295 83.9267443,120.613841 83.9267443,120.613841 L80.494367,117.290685 Z" id="Fill-163" fill="#FEC191" transform="translate(78.343674, 121.641856) rotate(-1.000000) translate(-78.343674, -121.641856) "></path>
                    </g>
                    <path d="M24.7027347,11.4294985 C24.7027347,11.4294985 31.3051419,6.11682074 30.2363195,6.02694005 C29.1699263,5.93463015 27.2314712,6.46905589 26.7164932,6.55650738 C26.2039443,6.64638807 28.0379463,0.750700446 26.3205431,1.00819649 C24.6031399,1.26569252 19.5262337,3.69975886 19.1424293,5.24959351 C18.7634832,6.79942817 19.9731958,10.7614663 19.9731958,10.7614663 L24.7027347,11.4294985 Z" id="Fill-151" fill="#FEC191" transform="translate(24.711152, 6.214749) rotate(-1.000000) translate(-24.711152, -6.214749) "></path>
                </g>
            </g>
            <g id="10_illustration/404/girl-orange/grey-line" transform="translate(90.145000, 0.000000)" stroke="#979797" stroke-linecap="square" stroke-width="2">
                <path d="M-5.55111512e-17,0 L0.0303592179,94.6560298 M0.0468323804,146.017174 L0.144650133,451" id="Shape"></path>
            </g>
            <g id="10_illustration/404/girl-orange/text" transform="translate(47.145000, 111.000000)" fill="#6CC1D1" fill-rule="nonzero">
                <path d="M2.664,25.416 L2.664,17.46 L9.432,17.46 C12.648,17.46 15.168,16.698 16.992,15.174 C18.816,13.65 19.728,11.544 19.728,8.856 C19.728,6.168 18.816,4.056 16.992,2.52 C15.168,0.984 12.648,0.216 9.432,0.216 L9.432,0.216 L2.20978791e-12,0.216 L2.20978791e-12,25.416 L2.664,25.416 Z M9.36,15.12 L2.664,15.12 L2.664,2.52 L9.36,2.52 C11.856,2.52 13.764,3.066 15.084,4.158 C16.404,5.25 17.064,6.816 17.064,8.856 C17.064,10.848 16.404,12.39 15.084,13.482 C13.764,14.574 11.856,15.12 9.36,15.12 L9.36,15.12 Z M36.864,25.632 C39.36,25.632 41.61,25.08 43.614,23.976 C45.618,22.872 47.196,21.342 48.348,19.386 C49.5,17.43 50.076,15.24 50.076,12.816 C50.076,10.392 49.5,8.202 48.348,6.246 C47.196,4.29 45.618,2.76 43.614,1.656 C41.61,0.552 39.36,3.01980663e-14 36.864,3.01980663e-14 C34.368,3.01980663e-14 32.106,0.558 30.078,1.674 C28.05,2.79 26.466,4.32 25.326,6.264 C24.186,8.208 23.616,10.392 23.616,12.816 C23.616,15.24 24.186,17.424 25.326,19.368 C26.466,21.312 28.05,22.842 30.078,23.958 C32.106,25.074 34.368,25.632 36.864,25.632 Z M36.864,23.256 C34.872,23.256 33.066,22.806 31.446,21.906 C29.826,21.006 28.554,19.758 27.63,18.162 C26.706,16.566 26.244,14.784 26.244,12.816 C26.244,10.848 26.706,9.066 27.63,7.47 C28.554,5.874 29.826,4.626 31.446,3.726 C33.066,2.826 34.872,2.376 36.864,2.376 C38.856,2.376 40.656,2.826 42.264,3.726 C43.872,4.626 45.132,5.874 46.044,7.47 C46.956,9.066 47.412,10.848 47.412,12.816 C47.412,14.784 46.956,16.566 46.044,18.162 C45.132,19.758 43.872,21.006 42.264,21.906 C40.656,22.806 38.856,23.256 36.864,23.256 Z M66.312,25.416 C68.976,25.416 71.328,24.882 73.368,23.814 C75.408,22.746 76.992,21.258 78.12,19.35 C79.248,17.442 79.812,15.264 79.812,12.816 C79.812,10.368 79.248,8.19 78.12,6.282 C76.992,4.374 75.408,2.886 73.368,1.818 C71.328,0.75 68.976,0.216 66.312,0.216 L66.312,0.216 L56.052,0.216 L56.052,25.416 L66.312,25.416 Z M66.168,23.112 L58.716,23.112 L58.716,2.52 L66.168,2.52 C68.376,2.52 70.308,2.958 71.964,3.834 C73.62,4.71 74.904,5.922 75.816,7.47 C76.728,9.018 77.184,10.8 77.184,12.816 C77.184,14.832 76.728,16.614 75.816,18.162 C74.904,19.71 73.62,20.922 71.964,21.798 C70.308,22.674 68.376,23.112 66.168,23.112 L66.168,23.112 Z M87.336,17.856 L87.876,0.216 L84.852,0.216 L85.356,17.856 L87.336,17.856 Z M86.364,25.596 C86.892,25.596 87.336,25.41 87.696,25.038 C88.056,24.666 88.236,24.228 88.236,23.724 C88.236,23.196 88.056,22.758 87.696,22.41 C87.336,22.062 86.892,21.888 86.364,21.888 C85.812,21.888 85.356,22.062 84.996,22.41 C84.636,22.758 84.456,23.196 84.456,23.724 C84.456,24.228 84.642,24.666 85.014,25.038 C85.386,25.41 85.836,25.596 86.364,25.596 Z" id="POD!"></path>
            </g>
        </g>
    </g>
</svg>
