<?xml version="1.0"?>
<svg xmlns="http://www.w3.org/2000/svg" xmlns:xlink="http://www.w3.org/1999/xlink" version="1.1" id="Capa_1" x="0px" y="0px" viewBox="0 0 512 512" style="enable-background:new 0 0 512 512;" xml:space="preserve" width="512px" height="512px"><g><g>
	<g>
		<rect x="50.078" y="138.817" width="140.218" height="30.047" data-original="#000000" class="active-path" data-old_color="#000000" fill="#5361FD"/>
	</g>
</g><g>
	<g>
		<rect x="50.078" y="198.91" width="170.265" height="30.047" data-original="#000000" class="active-path" data-old_color="#000000" fill="#5361FD"/>
	</g>
</g><g>
	<g>
		<rect x="50.078" y="259.004" width="60.094" height="30.047" data-original="#000000" class="active-path" data-old_color="#000000" fill="#5361FD"/>
	</g>
</g><g>
	<g>
		<path d="M175.273,259.006v45.07h-45.07c0,24.724,20.346,45.07,45.07,45.07s45.07-20.346,45.07-45.07    S199.997,259.006,175.273,259.006z" data-original="#000000" class="active-path" data-old_color="#000000" fill="#5361FD"/>
	</g>
</g><g>
	<g>
		<rect x="50.078" y="319.097" width="60.094" height="30.047" data-original="#000000" class="active-path" data-old_color="#000000" fill="#5361FD"/>
	</g>
</g><g>
	<g>
		
			<rect x="262.566" y="332.264" transform="matrix(0.7071 -0.7071 0.7071 0.7071 -143.7306 347.5772)" width="170.263" height="30.046" data-original="#000000" class="active-path" data-old_color="#000000" fill="#5361FD"/>
	</g>
</g><g>
	<g>
		<path d="M512,248.273L264.127,0.399l-80.328,80.328H0v350.546h240.455l80.328,80.328L512,320.384l-36.056-36.056L512,248.273z     M240.374,401.227H30.047V110.775h210.327V401.227z M320.783,469.109l-50.362-50.362v-58.039l0.063,0.063l105.54-105.54    l-21.246-21.246l-84.357,84.357v-42.493l63.11-63.11l-21.246-21.246l-41.864,41.864V121.298l199.086,199.087L320.783,469.109z     M454.699,263.083L264.127,72.512l-8.216,8.216h-29.62l37.836-37.836l205.381,205.381L454.699,263.083z" data-original="#000000" class="active-path" data-old_color="#000000" fill="#5361FD"/>
	</g>
</g></g> </svg>
