<?xml version="1.0"?>
<svg xmlns="http://www.w3.org/2000/svg" height="512px" viewBox="0 -40 512 511" width="512px" class=""><g><path d="m497 193.300781h-40.167969c-1.214843 0-2.417969.050781-3.613281.128907-9.023438-8.050782-19.003906-14.699219-29.679688-19.820313 24.347657-17.292969 40.261719-45.710937 40.261719-77.777344 0-52.566406-42.765625-95.332031-95.332031-95.332031-52.570312 0-95.335938 42.765625-95.335938 95.332031 0 25.261719 9.882813 48.257813 25.976563 65.332031h-70.148437c16.09375-17.074218 25.972656-40.070312 25.972656-65.332031 0-52.566406-42.765625-95.332031-95.332032-95.332031-52.566406 0-95.335937 42.765625-95.335937 95.332031 0 29.480469 13.453125 55.875 34.539063 73.378907-14.601563 5.457031-28.148438 13.617187-40.027344 24.21875-1.195313-.078126-2.394532-.128907-3.609375-.128907h-40.167969c-8.285156 0-15 6.714844-15 15v80.332031c0 8.285157 6.714844 15 15 15h1.066406v113.535157c0 8.28125 6.714844 15 15 15h449.867188c8.285156 0 15-6.71875 15-15v-113.535157h1.066406c8.285156 0 15-6.714843 15-15v-80.332031c0-8.285156-6.714844-15-15-15zm-15 80.332031h-25.167969c-13.875 0-25.167969-11.289062-25.167969-25.167968 0-13.875 11.292969-25.164063 25.167969-25.164063h25.167969zm-178.867188-177.800781c0-36.023437 29.308594-65.332031 65.332032-65.332031 36.023437 0 65.335937 29.308594 65.335937 65.332031 0 36.027344-29.308593 65.332031-65.332031 65.332031-36.027344 0-65.335938-29.304687-65.335938-65.332031zm-143.53125-65.332031c36.023438 0 65.332032 29.308594 65.332032 65.332031 0 36.023438-29.308594 65.332031-65.332032 65.332031-36.027343 0-65.335937-29.304687-65.335937-65.332031 0-36.023437 29.308594-65.332031 65.335937-65.332031zm-129.601562 192.800781h25.167969c13.875 0 25.167969 11.289063 25.167969 25.167969 0 13.875-11.292969 25.164062-25.167969 25.164062h-25.167969zm16.066406 80.332031h9.101563c30.417969 0 55.167969-24.746093 55.167969-55.167968 0-16.84375-7.601563-31.941406-19.539063-42.066406h.355469c15.503906-9.917969 33.535156-15.230469 52.382812-15.230469h142.886719c-27.757813 23.398437-45.421875 58.40625-45.421875 97.464843v113.535157h-130.667969v-65.335938c0-8.28125-6.714843-15-15-15-8.28125 0-15 6.71875-15 15v65.332031h-34.265625zm419.867188 98.53125h-34.269532v-65.332031c0-8.28125-6.714843-15-15-15-8.28125 0-15 6.71875-15 15v65.332031h-130.664062v-113.53125c0-53.742187 43.722656-97.464843 97.46875-97.464843 18.933594 0 37.039062 5.359375 52.582031 15.359375-11.851562 10.128906-19.382812 25.164062-19.382812 41.941406 0 30.417969 24.746093 55.164062 55.167969 55.164062h9.097656zm0 0" data-original="#000000" class="active-path" data-old_color="#000000" fill="#5361FD"/></g> </svg>
