<svg xmlns="http://www.w3.org/2000/svg" xmlns:xlink="http://www.w3.org/1999/xlink" width="20" height="20" viewBox="0 0 20 20">
    <defs>
        <path id="prefix__a" d="M7 0c3.866 0 7 3.134 7 7s-3.134 7-7 7-7-3.134-7-7 3.134-7 7-7zm0 1C3.686 1 1 3.686 1 7s2.686 6 6 6 6-2.686 6-6-2.686-6-6-6zM4.5 3.117L10.972 7 4.5 10.883V3.117zm1 1.766v4.233L9.028 7 5.5 4.883z"/>
    </defs>
    <g fill="none" fill-rule="evenodd">
        <path fill="#E67962" d="M0 0H20V20H0z"/>
        <g transform="translate(3 3)">
            <mask id="prefix__b" fill="#fff">
                <use xlink:href="#prefix__a"/>
            </mask>
            <use fill="#53B9C9" fill-rule="nonzero" xlink:href="#prefix__a"/>
            <g fill="#E2E6E7" mask="url(#prefix__b)">
                <path d="M0 0H20V20H0z" transform="translate(-3 -3)"/>
            </g>
        </g>
    </g>
</svg>
