<?xml version="1.0" encoding="UTF-8"?>
<svg width="46px" height="46px" viewBox="0 0 46 46" version="1.1" xmlns="http://www.w3.org/2000/svg" xmlns:xlink="http://www.w3.org/1999/xlink">
    <!-- Generator: sketchtool 63.1 (101010) - https://sketch.com -->
    <title>38AE3A5F-F2D4-4123-8DBD-FDA0B78E88AE</title>
    <desc>Created with sketchtool.</desc>
    <defs>
        <polygon id="path-1" points="0 0 39.32712 0 39.32712 39.32712 0 39.32712"></polygon>
        <polygon id="path-3" points="0 0 5.53281504 0 5.53281504 5.61804764 0 5.61804764"></polygon>
        <polygon id="path-5" points="0 0 16.8542693 0 16.8542693 0.93636 0 0.93636"></polygon>
    </defs>
    <g id="symbols" stroke="none" stroke-width="1" fill="none" fill-rule="evenodd">
        <g id="06_mainbar/search" transform="translate(-38.000000, -7.000000)">
            <g id="06_mainbar/icon/search" transform="translate(38.000000, 7.000000)">
                <path d="M31.7446289,28.8521288 C32.1752621,28.4707475 32.6797787,28.4707475 33.2581787,28.8521288 C33.8365788,29.23351 36.7505192,32.2481518 42,37.8960543 C41.5399143,38.5761079 40.9505316,39.2938931 40.2318517,40.04941 C39.1538319,41.1826854 38.3316528,42 37.7457213,42 C37.3551003,42 34.2574054,38.8463135 28.4526367,32.5389404 C28.8066944,32.0395466 29.2135954,31.5201067 29.6733398,30.9806207 C30.1330843,30.4411347 30.8235139,29.7316374 31.7446289,28.8521288 Z" id="Path-6" fill="#53B9C9"></path>
                <circle id="Oval" fill="#FDCB5B" cx="16.5" cy="16.5" r="10.5"></circle>
                <g id="Group-3" transform="translate(3.000000, 3.000000)">
                    <mask id="mask-2" fill="white">
                        <use xlink:href="#path-1"></use>
                    </mask>
                    <g id="Clip-2"></g>
                    <path d="M21.1126875,13.787802 C20.8748466,13.787802 20.6818163,13.5947728 20.6818163,13.3569332 C20.6818163,9.31796894 17.3959927,6.03216338 13.3570064,6.03216338 C13.1191655,6.03216338 12.9261352,5.83913415 12.9261352,5.60129456 C12.9261352,5.36345498 13.1191655,5.17042575 13.3570064,5.17042575 C17.8708128,5.17042575 21.5435586,8.84315151 21.5435586,13.3569332 C21.5435586,13.5956345 21.3513901,13.787802 21.1126875,13.787802 L21.1126875,13.787802 Z M13.3570064,24.1286535 C7.41701637,24.1286535 2.58522704,19.2968906 2.58522704,13.3569332 C2.58522704,7.41697574 7.41701637,2.58521288 13.3570064,2.58521288 C19.2961346,2.58521288 24.1287857,7.41697574 24.1287857,13.3569332 C24.1287857,19.2968906 19.2961346,24.1286535 13.3570064,24.1286535 L13.3570064,24.1286535 Z M13.3570064,3.4469505 C7.89269815,3.4469505 3.44696938,7.89265491 3.44696938,13.3569332 C3.44696938,18.8212115 7.89269815,23.2669159 13.3570064,23.2669159 C18.8213146,23.2669159 23.2670433,18.8212115 23.2670433,13.3569332 C23.2670433,7.89265491 18.8213146,3.4469505 13.3570064,3.4469505 L13.3570064,3.4469505 Z M38.3397787,35.2924644 L35.2926578,38.3395687 C35.124618,38.505884 34.8514457,38.505884 34.6834059,38.3395687 L26.1530185,29.8083662 C26.0720147,29.7265011 26.0272041,29.6187839 26.0272041,29.5041728 C26.0272041,29.3895617 26.0711529,29.2809828 26.1530185,29.1991177 L26.4537665,28.8983713 C26.4546283,28.8975095 26.45549,28.8975095 26.4563518,28.8966478 L28.8933591,26.4596538 C28.8942209,26.458792 28.8942209,26.4579303 28.8950826,26.4570686 L29.1992776,26.1528752 C29.2811432,26.0718718 29.3897227,26.0270615 29.5043344,26.0270615 C29.6198079,26.0270615 29.7283874,26.0718718 29.8093912,26.1520134 L38.3397787,34.6823542 C38.4207825,34.7642193 38.4655931,34.8719365 38.4655931,34.9874093 C38.4655931,35.1028822 38.4216442,35.2105994 38.3397787,35.2924644 L38.3397787,35.2924644 Z M21.8391363,23.6667621 C22.5061248,23.1178353 23.1179619,22.5051398 23.6668918,21.8390166 L27.980774,26.1528752 L26.1530185,27.9806207 L21.8391363,23.6667621 Z M0.861742346,13.3569332 C0.861742346,6.46734088 6.46737631,0.861737625 13.3570064,0.861737625 C20.2466364,0.861737625 25.8522704,6.46734088 25.8522704,13.3569332 C25.8522704,16.2204873 24.8733311,18.8548192 23.2463615,20.9652147 C22.5871286,21.8191967 21.8210397,22.5852814 20.9679148,23.2445107 C18.8575078,24.8723331 16.2222997,25.8521288 13.3570064,25.8521288 C6.46737631,25.8521288 0.861742346,20.2465255 0.861742346,13.3569332 L0.861742346,13.3569332 Z M38.9490305,34.0739674 L30.4186431,25.5436267 C29.9128003,25.0377867 29.0932833,25.0395102 28.5900258,25.5436267 L28.5883023,25.5453502 L24.1873842,21.1444561 C25.7704049,18.9487486 26.7140127,16.2644359 26.7140127,13.3569332 C26.7140127,5.99166171 20.7214564,0 13.3570064,0 C5.99169453,0 0,5.99166171 0,13.3569332 C0,20.7222047 5.99169453,26.7138664 13.3570064,26.7138664 C16.2628016,26.7138664 18.9462672,25.7702637 21.141125,24.1889751 L25.5429049,28.5907309 C25.2998935,28.8346027 25.1654617,29.1603395 25.1654617,29.5050345 C25.1654617,29.8514531 25.2998935,30.1754664 25.5437666,30.4184764 L34.0741541,38.9496789 C34.3266446,39.2013063 34.6575537,39.32712 34.9884627,39.32712 C35.3193718,39.32712 35.6502808,39.202168 35.9019096,38.9488172 L38.9490305,35.9017129 C39.4531498,35.3975964 39.4531498,34.5780839 38.9490305,34.0739674 L38.9490305,34.0739674 Z" id="Fill-1" fill="#243D48" mask="url(#mask-2)"></path>
                </g>
                <g id="Group-6" transform="translate(29.000000, 3.000000)">
                    <g id="Group-3">
                        <mask id="mask-4" fill="white">
                            <use xlink:href="#path-3"></use>
                        </mask>
                        <g id="Clip-2"></g>
                        <path d="M4.97951141,2.24715164 L3.3196005,2.24715164 L3.3196005,0.561703637 C3.3196005,0.251581205 3.07172047,-0.0001123632 2.76629686,-0.0001123632 C2.46087325,-0.0001123632 2.21299322,0.251581205 2.21299322,0.561703637 L2.21299322,2.24715164 L0.553082315,2.24715164 C0.247658708,2.24715164 -0.000221321455,2.4988452 -0.000221321455,2.80896764 C-0.000221321455,3.11909007 0.247658708,3.37078364 0.553082315,3.37078364 L2.21299322,3.37078364 L2.21299322,5.05623164 C2.21299322,5.36635407 2.46087325,5.61804764 2.76629686,5.61804764 C3.07172047,5.61804764 3.3196005,5.36635407 3.3196005,5.05623164 L3.3196005,3.37078364 L4.97951141,3.37078364 C5.28493501,3.37078364 5.53281504,3.11909007 5.53281504,2.80896764 C5.53281504,2.4988452 5.28493501,2.24715164 4.97951141,2.24715164" id="Fill-1" fill="#243D48" mask="url(#mask-4)"></path>
                    </g>
                    <path d="M11.619155,7.86531164 L9.95924413,7.86531164 L9.95924413,6.17986364 C9.95924413,5.8697412 9.7113641,5.61804764 9.4059405,5.61804764 C9.10051689,5.61804764 8.85263686,5.8697412 8.85263686,6.17986364 L8.85263686,7.86531164 L7.19272595,7.86531164 C6.88730234,7.86531164 6.63942231,8.1170052 6.63942231,8.42712764 C6.63942231,8.73725007 6.88730234,8.98894364 7.19272595,8.98894364 L8.85263686,8.98894364 L8.85263686,10.6743916 C8.85263686,10.9845141 9.10051689,11.2362076 9.4059405,11.2362076 C9.7113641,11.2362076 9.95924413,10.9845141 9.95924413,10.6743916 L9.95924413,8.98894364 L11.619155,8.98894364 C11.9245786,8.98894364 12.1724587,8.73725007 12.1724587,8.42712764 C12.1724587,8.1170052 11.9245786,7.86531164 11.619155,7.86531164" id="Fill-4" fill="#243D48"></path>
                </g>
                <g id="Group-3" transform="translate(3.000000, 38.000000)">
                    <mask id="mask-6" fill="white">
                        <use xlink:href="#path-5"></use>
                    </mask>
                    <g id="Clip-2"></g>
                    <path d="M16.8542693,0.46818 C16.8542693,0.20974464 16.6183066,0 16.3275668,0 L4.74011182,0 C4.44937204,0 4.21340932,0.20974464 4.21340932,0.46818 C4.21340932,0.72661536 4.44937204,0.93636 4.74011182,0.93636 L16.3275668,0.93636 C16.6183066,0.93636 16.8542693,0.72661536 16.8542693,0.46818 M2.63330182,0.93636 L0.526491819,0.93636 C0.235752039,0.93636 -0.000210681,0.72661536 -0.000210681,0.46818 C-0.000210681,0.20974464 0.235752039,0 0.526491819,0 L2.63330182,0 C2.9240416,0 3.16000432,0.20974464 3.16000432,0.46818 C3.16000432,0.72661536 2.9240416,0.93636 2.63330182,0.93636" id="Fill-1" fill="#243D48" mask="url(#mask-6)"></path>
                </g>
                <path d="M39,22.46818 C39,22.2097446 38.888,22 38.75,22 L33.25,22 C33.112,22 33,22.2097446 33,22.46818 C33,22.7266154 33.112,22.93636 33.25,22.93636 L38.75,22.93636 C38.888,22.93636 39,22.7266154 39,22.46818 M40.8333333,22.93636 L40.1666667,22.93636 C40.0746667,22.93636 40,22.7266154 40,22.46818 C40,22.2097446 40.0746667,22 40.1666667,22 L40.8333333,22 C40.9253333,22 41,22.2097446 41,22.46818 C41,22.7266154 40.9253333,22.93636 40.8333333,22.93636" id="Fill-4" fill="#243D48"></path>
            </g>
        </g>
    </g>
</svg>