<svg xmlns="http://www.w3.org/2000/svg" width="24" height="24" viewBox="0 0 24 24">
    <g fill="none" fill-rule="evenodd">
        <path fill="#2C4653" fill-opacity=".6" d="M20.667 18.667h-1.06l-.367-.367c1.307-1.513 2.093-3.48 2.093-5.633C21.333 7.88 17.453 4 12.667 4 7.88 4 4 7.88 4 12.667c0 4.786 3.88 8.666 8.667 8.666 2.153 0 4.12-.786 5.633-2.086l.367.366v1.054l6.666 6.653 1.987-1.987-6.653-6.666zm-8 0c-3.314 0-6-2.687-6-6 0-3.314 2.686-6 6-6 3.313 0 6 2.686 6 6 0 3.313-2.687 6-6 6z" transform="translate(-4 -4)"/>
        <path d="M0 0L32 0 32 32 0 32z" transform="translate(-4 -4)"/>
    </g>
</svg>
