<?xml version="1.0" encoding="UTF-8"?>
<svg width="75px" height="76px" viewBox="0 0 75 76" version="1.1" xmlns="http://www.w3.org/2000/svg" xmlns:xlink="http://www.w3.org/1999/xlink">
    <!-- Generator: sketchtool 63.1 (101010) - https://sketch.com -->
    <title>4F6A5FF5-294B-4CB1-81BA-CD6DBCEE9A29</title>
    <desc>Created with sketchtool.</desc>
    <g id="solid" stroke="none" stroke-width="1" fill="none" fill-rule="evenodd">
        <g id="solid_redisign/search" transform="translate(-923.000000, -456.000000)">
            <g id="10_illustration/search" transform="translate(234.000000, 81.367409)">
                <g id="08_btn/search" transform="translate(689.000000, 375.000000)">
                    <circle id="Oval" fill="#243D48" cx="37.5" cy="37.5" r="37.5"></circle>
                    <g id="01_icon/search" transform="translate(17.000000, 17.000000)" fill="#FEFEFE">
                        <path d="M9.09999028,25.6675164 C6.88566522,23.4531196 5.6669007,20.5124006 5.6669007,17.3839008 C5.6669007,14.255401 6.88566522,11.314682 9.09999028,9.10028517 C11.3143153,6.88588835 14.254939,5.66885586 17.381566,5.66885586 C20.5099645,5.66885586 23.4505881,6.88588835 25.6649132,9.10028517 C27.8792383,11.314682 29.0980028,14.255401 29.0980028,17.3839008 C29.0980028,20.5124006 27.8792383,23.4531196 25.6649132,25.6675164 C23.4505881,27.8819132 20.5099645,29.0989457 17.381566,29.0989457 C14.2478532,29.0989457 11.3072295,27.8819132 9.09999028,25.6675164 M40.1696281,36.1637573 L31.4983312,27.501037 C33.6081401,24.5674041 34.7649035,21.0704286 34.7649035,17.3839008 C34.7649035,12.7407535 32.9580142,8.38104908 29.6719558,5.09311269 C26.3912118,1.81403387 22.0245628,0 17.381566,0 C12.7385692,0 8.37369166,1.80694781 5.09294764,5.09311269 C1.80688925,8.37396301 0,12.7407535 0,17.3839008 C0,22.0252765 1.80688925,26.3938386 5.09294764,29.6800035 C8.37369166,32.9608538 12.7385692,34.7660301 17.381566,34.7660301 C21.0644315,34.7660301 24.5648365,33.6163152 27.4912885,31.5082095 L36.1554996,40.1709298 C36.715281,40.7254148 37.4362652,41 38.1625639,41 C38.8888625,41 39.6151611,40.7254148 40.1696281,40.1709298 C41.2767906,39.0637314 41.2767906,37.2709558 40.1696281,36.1637573" id="Fill-1"></path>
                    </g>
                </g>
            </g>
        </g>
    </g>
</svg>