<?xml version="1.0"?>
<svg xmlns="http://www.w3.org/2000/svg" id="regular" enable-background="new 0 0 24 24" height="512px" viewBox="0 0 24 24" width="512px"><g><g><path d="m10 24c-5.514 0-10-4.486-10-10s4.486-10 10-10 10 4.486 10 10-4.486 10-10 10zm0-18.5c-4.687 0-8.5 3.813-8.5 8.5s3.813 8.5 8.5 8.5 8.5-3.813 8.5-8.5-3.813-8.5-8.5-8.5z" data-original="#000000" class="active-path" data-old_color="#000000" fill="#5361FD"/></g><g><path d="m10 20.5c-3.584 0-6.5-2.916-6.5-6.5s2.916-6.5 6.5-6.5 6.5 2.916 6.5 6.5-2.916 6.5-6.5 6.5zm0-11.5c-2.757 0-5 2.243-5 5s2.243 5 5 5 5-2.243 5-5-2.243-5-5-5z" data-original="#000000" class="active-path" data-old_color="#000000" fill="#5361FD"/></g><g><path d="m10 17c-1.654 0-3-1.346-3-3s1.346-3 3-3 3 1.346 3 3-1.346 3-3 3zm0-4.5c-.827 0-1.5.673-1.5 1.5s.673 1.5 1.5 1.5 1.5-.673 1.5-1.5-.673-1.5-1.5-1.5z" data-original="#000000" class="active-path" data-old_color="#000000" fill="#5361FD"/></g><g><path d="m10 14.75c-.192 0-.384-.073-.53-.22-.293-.293-.293-.768 0-1.061l7.5-7.5c.293-.293.768-.293 1.061 0s.293.768 0 1.061l-7.5 7.5c-.147.147-.339.22-.531.22z" data-original="#000000" class="active-path" data-old_color="#000000" fill="#5361FD"/></g><g><path d="m20.25 7h-2.5c-.414 0-.75-.336-.75-.75v-2.5c0-.199.079-.39.22-.53l3-3c.215-.215.538-.278.817-.163.28.116.463.39.463.693v1.75h1.75c.303 0 .577.183.693.463s.052.603-.163.817l-3 3c-.14.141-.331.22-.53.22zm-1.75-1.5h1.439l1.5-1.5h-.689c-.414 0-.75-.336-.75-.75v-.689l-1.5 1.5z" data-original="#000000" class="active-path" data-old_color="#000000" fill="#5361FD"/></g></g> </svg>
