<svg xmlns="http://www.w3.org/2000/svg" width="38" height="38" viewBox="0 0 38 38" >
    <g fill="none" fill-rule="evenodd">
       
        <g fill="#FFF" fill-rule="nonzero">
            <path d="M18.75 0C8.395 0 0 8.395 0 18.75S8.395 37.5 18.75 37.5 37.5 29.105 37.5 18.75 29.105 0 18.75 0zm0 2.5C27.725 2.5 35 9.775 35 18.75S27.725 35 18.75 35 2.5 27.725 2.5 18.75 9.775 2.5 18.75 2.5z"/>
            <path d="M18.45 20.56c.166 0 .332.064.46.19l5.52 5.527c.49.493 1.347.493 1.838 0 .246-.246.382-.573.382-.92 0-.348-.136-.675-.382-.921l-5.519-5.527c-.254-.254-.254-.667 0-.921l5.52-5.527c.245-.246.38-.573.38-.92 0-.349-.135-.676-.38-.922-.492-.492-1.348-.492-1.84 0l-5.52 5.527c-.253.254-.665.254-.919 0l-5.52-5.525c-.491-.493-1.347-.493-1.839 0-.246.246-.381.573-.381.92 0 .348.135.675.381.921l5.52 5.527c.253.254.253.667 0 .921l-5.52 5.526c-.246.246-.381.573-.381.92 0 .348.135.675.381.921.492.493 1.348.493 1.84 0l5.519-5.526c.126-.127.293-.19.46-.19z"/>
        </g>
    </g>
</svg>
