<svg xmlns="http://www.w3.org/2000/svg" width="38" height="38" viewBox="0 0 38 38" >
    <g fill="none" fill-rule="evenodd">
        <path fill="#FFF" fill-rule="nonzero" d="M18.75 0C8.395 0 0 8.395 0 18.75S8.395 37.5 18.75 37.5 37.5 29.105 37.5 18.75 29.105 0 18.75 0zm0 2.5C27.725 2.5 35 9.775 35 18.75S27.725 35 18.75 35 2.5 27.725 2.5 18.75 9.775 2.5 18.75 2.5z"/>
        <path fill="#FFF" fill-rule="nonzero" d="M18.95 10.75c1.14 0 1.95-.84 1.95-1.92 0-1.02-.84-1.83-1.95-1.83C17.84 7 17 7.84 17 8.89c0 1.05.84 1.86 1.95 1.86zm1.44 18.96v-15.9h-2.88v15.9h2.88z"/>
    </g>
</svg>
