<svg xmlns="http://www.w3.org/2000/svg" width="38" height="38" viewBox="0 0 38 38">
    <g fill="#FFF">
        <path d="M10.387 16.893c-.303 0-.589.114-.804.32-.214.207-.333.482-.333.774 0 .293.118.567.333.774l5.63 5.419c.431.413 1.178.413 1.609 0l10.455-10.062c.214-.207.333-.482.333-.774 0-.292-.118-.567-.333-.774-.445-.427-1.164-.427-1.609 0l-9.249 8.902c-.222.213-.582.213-.804 0l-4.425-4.257c-.215-.208-.5-.322-.803-.322z"/>
        <path d="M18.75 0C8.395 0 0 8.395 0 18.75S8.395 37.5 18.75 37.5 37.5 29.105 37.5 18.75 29.105 0 18.75 0zm0 2.5C27.725 2.5 35 9.775 35 18.75S27.725 35 18.75 35 2.5 27.725 2.5 18.75 9.775 2.5 18.75 2.5z"/>
    </g>
</svg>
