<?xml version="1.0" encoding="UTF-8"?>
<svg width="1430px" height="650px" viewBox="0 0 1467 1009" version="1.1" xmlns="http://www.w3.org/2000/svg" xmlns:xlink="http://www.w3.org/1999/xlink">
    <!-- Generator: sketchtool 63.1 (101010) - https://sketch.com -->
    <title>3E28E59E-E976-4050-9395-9DC6925E45F8</title>
    <desc>Created with sketchtool.</desc>
    <g id="symbols" stroke="none" stroke-width="1" fill="none" fill-rule="evenodd">
        <g id="10_illustration/search/without-text">
            <g id="10_illustration/background-grey" transform="translate(101.000000, 0.000000)" fill="#F4F4F4">
                <path d="M1196.93571,293.71935 C1266.13183,402.245107 1261.14093,549.428375 1167.87756,656.327686 C1074.61419,763.226997 910.662972,832.949229 738.720764,849.213694 C566.778556,865.478159 389.118989,830.637323 243.290303,762.05482 C191.739804,737.808193 142.834484,708.678172 110.864968,670.434371 C78.9009966,632.190571 65.8858266,583.526967 88.034352,541.730132 C110.365877,499.592594 164.023647,470.551804 219.69996,450.957383 C275.376274,431.362961 335.555492,418.781323 389.340807,396.534293 C458.237472,368.032947 513.370331,325.096382 569.651098,284.386549 C625.931866,243.676715 692.127897,212.465977 760.619744,183.445467 C937.785766,108.373402 1138.03749,201.348546 1196.93571,293.71935" id="Fill-1" transform="translate(660.500000, 504.584416) rotate(-163.000000) translate(-660.500000, -504.584416) "></path>
            </g>
            <g id="illustration/girl/all" transform="translate(0.000000, 134.000000)">
                <g id="illustration/girl/text-query" transform="translate(37.000000, 0.000000)" fill="#677B8F" fill-rule="nonzero">
                    <path d="M100.59936,35 L100.59936,23.339 L106.41836,33.045 L107.47636,33.045 L113.29536,23.27 L113.31836,35 L115.52636,35 L115.50336,18.9 L113.61736,18.9 L106.99336,30.216 L100.27736,18.9 L98.39136,18.9 L98.39136,35 L100.59936,35 Z M120.28736,35 L122.05836,30.975 L130.61436,30.975 L132.38536,35 L134.80036,35 L127.48636,18.9 L125.20936,18.9 L117.91836,35 L120.28736,35 Z M129.80936,29.135 L122.86336,29.135 L126.33636,21.246 L129.80936,29.135 Z M139.49236,35 L139.49236,30.837 L142.43636,27.847 L148.60036,35 L151.29136,35 L143.97736,26.145 L150.85436,18.9 L148.23236,18.9 L139.49236,27.893 L139.49236,18.9 L137.19236,18.9 L137.19236,35 L139.49236,35 Z M165.41336,35 L165.41336,32.999 L156.02936,32.999 L156.02936,27.801 L164.10236,27.801 L164.10236,25.846 L156.02936,25.846 L156.02936,20.901 L165.09136,20.901 L165.09136,18.9 L153.72936,18.9 L153.72936,35 L165.41336,35 Z M175.25736,35 L177.02836,30.975 L185.58436,30.975 L187.35536,35 L189.77036,35 L182.45636,18.9 L180.17936,18.9 L172.88836,35 L175.25736,35 Z M184.77936,29.135 L177.83336,29.135 L181.30636,21.246 L184.77936,29.135 Z M80.55936,87.508 C81.87936,87.508 83.09736,87.256 84.21336,86.752 C85.32936,86.248 86.30736,85.504 87.14736,84.52 L87.14736,84.52 L84.98736,81.928 C83.76336,83.272 82.32336,83.944 80.66736,83.944 C79.89936,83.944 79.17936,83.776 78.50736,83.44 C77.83536,83.104 77.15136,82.564 76.45536,81.82 C78.32736,81.292 79.97136,80.434 81.38736,79.246 C82.80336,78.058 83.90736,76.618 84.69936,74.926 C85.49136,73.234 85.88736,71.392 85.88736,69.4 C85.88736,66.928 85.29936,64.708 84.12336,62.74 C82.94736,60.772 81.32736,59.23 79.26336,58.114 C77.19936,56.998 74.88336,56.44 72.31536,56.44 C69.74736,56.44 67.43136,56.998 65.36736,58.114 C63.30336,59.23 61.68336,60.778 60.50736,62.758 C59.33136,64.738 58.74336,66.952 58.74336,69.4 C58.74336,71.704 59.25936,73.798 60.29136,75.682 C61.32336,77.566 62.76336,79.09 64.61136,80.254 C66.45936,81.418 68.54736,82.096 70.87536,82.288 C72.72336,84.208 74.36736,85.558 75.80736,86.338 C77.24736,87.118 78.83136,87.508 80.55936,87.508 Z M72.31536,78.256 C70.63536,78.256 69.12336,77.878 67.77936,77.122 C66.43536,76.366 65.37936,75.31 64.61136,73.954 C63.84336,72.598 63.45936,71.08 63.45936,69.4 C63.45936,67.72 63.84336,66.202 64.61136,64.846 C65.37936,63.49 66.43536,62.434 67.77936,61.678 C69.12336,60.922 70.63536,60.544 72.31536,60.544 C73.99536,60.544 75.50736,60.922 76.85136,61.678 C78.19536,62.434 79.25136,63.49 80.01936,64.846 C80.78736,66.202 81.17136,67.72 81.17136,69.4 C81.17136,71.08 80.78736,72.598 80.01936,73.954 C79.25136,75.31 78.19536,76.366 76.85136,77.122 C75.50736,77.878 73.99536,78.256 72.31536,78.256 Z M101.69136,82.36 C105.17136,82.36 107.87736,81.382 109.80936,79.426 C111.74136,77.47 112.70736,74.668 112.70736,71.02 L112.70736,71.02 L112.70736,56.8 L108.09936,56.8 L108.09936,70.84 C108.09936,75.784 105.97536,78.256 101.72736,78.256 C97.45536,78.256 95.31936,75.784 95.31936,70.84 L95.31936,70.84 L95.31936,56.8 L90.63936,56.8 L90.63936,71.02 C90.63936,74.668 91.61136,77.47 93.55536,79.426 C95.49936,81.382 98.21136,82.36 101.69136,82.36 Z M138.15936,82 L138.15936,78.076 L123.93936,78.076 L123.93936,71.128 L136.10736,71.128 L136.10736,67.276 L123.93936,67.276 L123.93936,60.724 L137.65536,60.724 L137.65536,56.8 L119.25936,56.8 L119.25936,82 L138.15936,82 Z M148.05936,82 L148.05936,74.656 L153.74736,74.656 C154.17936,74.656 154.50336,74.644 154.71936,74.62 L154.71936,74.62 L159.86736,82 L164.90736,82 L159.11136,73.72 C160.83936,73.048 162.16536,72.028 163.08936,70.66 C164.01336,69.292 164.47536,67.66 164.47536,65.764 C164.47536,63.916 164.04336,62.32 163.17936,60.976 C162.31536,59.632 161.07336,58.6 159.45336,57.88 C157.83336,57.16 155.93136,56.8 153.74736,56.8 L153.74736,56.8 L143.37936,56.8 L143.37936,82 L148.05936,82 Z M153.53136,70.804 L148.05936,70.804 L148.05936,60.76 L153.53136,60.76 C155.57136,60.76 157.11936,61.192 158.17536,62.056 C159.23136,62.92 159.75936,64.156 159.75936,65.764 C159.75936,67.372 159.23136,68.614 158.17536,69.49 C157.11936,70.366 155.57136,70.804 153.53136,70.804 L153.53136,70.804 Z M180.20736,82 L180.20736,73.108 L190.07136,56.8 L185.46336,56.8 L178.01136,69.076 L170.63136,56.8 L165.62736,56.8 L175.52736,73.18 L175.52736,82 L180.20736,82 Z" id="MAKEAQUERY"></path>
                </g>
                <g id="10_illustration/girl/girl-with-glass" transform="translate(113.224351, 5.000000)">
                    <g id="10_illustration/girl/glass-all" transform="translate(125.479511, 0.000000)">
                        <g id="10_illustration/girl/text-lines" transform="translate(36.916941, 25.601811)" fill="#E2E6E7">
                            <g id="Group-4">
                                <rect id="Rectangle" x="0.39815844" y="-4.93827201e-13" width="83.01447" height="7.54677"></rect>
                                <rect id="Rectangle-Copy-2" x="0.39815844" y="20.48409" width="83.01447" height="7.54677"></rect>
                                <rect id="Rectangle-Copy" x="0.39815844" y="10.7811" width="83.01447" height="6.46866"></rect>
                                <path d="M26.1117272,-0.539055 L-0.539055,-0.539055 L-0.539055,8.085825 L29.9955372,8.085825 L26.1117272,-0.539055 Z" id="Rectangle" stroke="#E2E6E7" stroke-width="1.07811"></path>
                                <path d="M31.0393298,19.945035 L-0.539055,19.945035 L-0.539055,28.569915 L28.0381806,28.569915 L31.0393298,19.945035 Z" id="Rectangle-Copy-2" stroke="#E2E6E7" stroke-width="1.07811"></path>
                                <path d="M30.820056,10.242045 L-0.539055,10.242045 L-0.539055,17.788815 L30.820056,17.788815 L30.820056,10.242045 Z" id="Rectangle-Copy" stroke="#E2E6E7" stroke-width="1.07811"></path>
                            </g>
                        </g>
                        <g id="10_illustration/girl/glass">
                            <g id="Group-3">
                                <polygon id="Fill-7" fill="#FDCB5B" transform="translate(75.149789, 63.176288) rotate(-39.000000) translate(-75.149789, -63.176288) " points="81.0793937 73.2692698 76.0019884 75.0354984 69.2201837 53.0826165 74.2982397 51.3170784"></polygon>
                                <path d="M48.6204759,64.3546252 C35.6145493,68.6093214 21.6154755,61.5350063 17.3536817,48.5528525 C13.0911944,35.5713909 20.1777703,21.5979053 33.183697,17.3432091 C46.1889301,13.0885129 60.1880038,20.1628279 64.4504912,33.1449818 C68.7136721,46.1264434 61.6257091,60.099929 48.6204759,64.3546252 M31.9027315,13.4422632 C16.7385131,18.4037679 8.47500242,34.6956683 13.444899,49.8314766 C18.4154891,64.9679771 34.7372231,73.2163834 49.9014415,68.255571 C65.0649663,63.2940663 73.328477,47.0021659 68.3585804,31.8656654 C63.3886838,16.7298572 47.0669498,8.48145087 31.9027315,13.4422632" id="Fill-8" fill="#243D48" transform="translate(40.901742, 40.848914) rotate(-39.000000) translate(-40.901742, -40.848914) "></path>
                                <path d="M88.1342399,86.1235392 L78.236059,56.0104527 L86.2713956,53.3819006 L96.1695764,83.494987 C96.8964047,85.7095613 95.6868736,88.0937418 93.4682441,88.8192416 C91.2496146,89.5454336 88.8610682,88.3388057 88.1342399,86.1235392 Z" id="Fill-10" fill="#243D48" transform="translate(87.308418, 71.206178) rotate(-39.000000) translate(-87.308418, -71.206178) "></path>
                            </g>
                        </g>
                    </g>
                    <g id="10_illustration/search/girl" transform="translate(0.000000, 63.005395)">
                        <g id="Group">
                            <path d="M3.04663129,315.138386 C3.04663129,315.138386 -16.2236314,316.904088 51.8025058,369.296318 C98.952525,405.610138 139.585351,375.552281 175.816727,378.06636 C217.598266,380.960474 248.43772,373.242837 275.444219,340.477961 L3.04663129,315.138386 Z" id="Fill-189" fill="#0086B2"></path>
                            <path d="M140.050293,330.920496 C140.050293,330.920496 178.782278,409.060295 141.665098,462.702465 C126.96863,483.933743 135.718887,572.806676 135.718887,572.806676 L142.218911,572.806676 C142.218911,572.806676 144.667351,482.335817 165.887162,453.103154 C187.106973,423.864618 215.85282,316.662524 208.507501,278.482646 C208.507501,278.482646 141.350298,280.591675 140.050293,330.920496" id="Fill-191" fill="#FDCB5B"></path>
                            <path d="M139.602359,326.131417 C139.602359,326.131417 207.25557,364.67193 222.900704,375.971919 C238.545838,387.271908 210.151734,382.057879 165.533262,465.944646 L170.986241,470.386226 C170.986241,470.386226 209.391125,435.058398 244.338166,409.877739 C281.748408,382.918106 274.879527,372.6539 235.064591,332.796714 C208.759235,306.457381 189.925395,280.638866 189.925395,280.638866 C189.925395,280.638866 147.863739,282.084282 139.602359,326.131417" id="Fill-193" fill="#FDCB5B"></path>
                            <path d="M135.718887,572.806676 C135.718887,572.806676 128.819745,584.021674 137.793071,583.574766 C146.772312,583.127857 157.319075,584.251168 168.522423,582.680948 C179.72577,581.104688 147.495251,577.070429 142.218911,572.806676 L135.718887,572.806676 Z" id="Fill-195" fill="#FEC191"></path>
                            <path d="M165.533262,465.944646 C165.533262,465.944646 157.342318,467.819081 157.793997,471.879352 C158.251864,475.93366 160.708255,479.069786 161.166121,487.267835 C161.630175,495.459922 161.395054,503.097523 168.52292,507.306849 C175.644598,511.516174 168.751853,500.658976 169.785146,490.588791 C170.806065,480.602076 170.986241,470.386226 170.986241,470.386226 L165.533262,465.944646 Z" id="Fill-197" fill="#FEC191"></path>
                            <path d="M177.336209,63.4838766 C177.336209,63.4838766 200.423756,80.4884744 224.046672,117.088428 C252.705322,161.50284 295.628962,160.631969 309.355871,149.059324 C318.65531,141.221486 316.26319,146.312281 307.95803,160.287128 C299.65287,174.261975 259.010225,223.615218 177.724935,195.665525 C123.530842,177.028499 123.401267,132.96795 177.336209,63.4838766 Z" id="Fill-199" fill="#243D48"></path>
                            <path d="M180.716449,78.7779165 C186.807401,94.0638859 193.945508,107.137412 180.326675,113.106276 C176.649997,114.715325 174.026291,115.135334 172.64172,115.229984 C171.879624,115.283225 171.222243,115.774222 171.012812,116.490012 C170.698665,117.554824 171.507302,126.729955 172.862786,133.970678 C173.15948,135.556064 158.487673,139.584604 148.871299,135.165633 C148.871299,135.165633 152.844671,110.917495 151.937136,105.220751 C150.796901,98.0924251 140.267175,76.3880049 147.52745,71.7738191 C153.880191,67.74528 165.113838,54.7486566 174.008839,66.5266616 C175.27706,68.2066985 179.715834,76.2637768 180.716449,78.7779165" id="Fill-201" fill="#FEC191"></path>
                            <path d="M223.176935,24.0486861 C223.176935,24.0486861 208.665334,11.972955 211.014995,11.7648552 C213.358912,11.5567555 217.621623,12.7696797 218.747622,12.965888 C219.879366,13.1680421 215.846451,-0.239527453 219.620846,0.349097551 C223.395241,0.937722555 234.551824,6.46723017 235.390578,9.99303448 C236.229333,13.5188388 233.569447,22.5265851 233.569447,22.5265851 L223.176935,24.0486861 Z" id="Fill-203" fill="#FEC191"></path>
                            <path d="M172.942885,133.058584 L188.117309,131.781576 C188.117309,131.781576 171.807556,198.840436 91.0874092,145.972747 C91.0874092,145.972747 123.00084,136.952139 130.306675,135.490766 C137.384933,134.076344 150.035933,133.383805 150.035933,133.383805 L172.942885,133.058584 Z" id="Fill-205" fill="#FEC191"></path>
                            <path d="M198.51841,215.921572 C198.921745,202.125538 209.016796,199.451933 207.91201,187.004428 C207.029351,177.054632 192.573612,166.905488 196.338066,163.129608 C203.411032,156.035174 238.080255,155.917911 243.797082,121.155188 C251.524735,74.2205277 233.596813,22.9705761 233.596813,22.9705761 L223.022437,24.4715471 C223.022437,24.4715471 249.642508,128.15581 177.258595,132.699766 C177.258595,132.699766 178.860242,162.91267 140.128448,133.878262 C140.128448,133.878262 50.4479185,143.487995 30.3688794,196.766602 C16.6145915,233.25896 29.752652,266.942554 84.5710592,284.021962 L92.8189556,276.950982 C92.8189556,276.950982 7.93413355,209.49554 104.611638,188.364683 C117.740465,185.49173 156.782067,206.722262 150.211808,252.032824 C116.811042,282.046381 3.76049922,315.812366 3.76049922,315.812366 C5.50828166,337.717162 73.0930997,367.244076 105.242944,369.700743 C145.424404,372.76718 159.611253,357.956818 185.611709,361.814782 C267.77502,374.016035 275.444219,341.223336 275.444219,341.223336 C222.595721,310.11923 202.709581,253.275816 202.709581,253.275816 C202.709581,253.275816 198.009858,233.405539 198.51841,215.921572 Z" id="Fill-207" fill="#53B9C9"></path>
                            <path d="M91.3980243,276.191396 C91.3980243,276.191396 110.189821,277.118384 108.390174,278.680853 C106.596332,280.243323 102.410702,281.829113 101.377356,282.342162 C100.338205,282.855212 111.333467,291.087328 107.908333,292.871341 C104.483199,294.655355 92.1875468,296.923268 89.4764658,294.626205 C86.7711902,292.334971 83.775649,283.601466 83.775649,283.601466 L91.3980243,276.191396 Z" id="Fill-209" fill="#FEC191"></path>
                            <polygon id="Fill-211" fill="#243D48" points="150.059115 251.361122 149.305349 227.811476 198.410296 228.334932 202.132739 252.608006"></polygon>
                            <path d="M190.248929,230.966366 C190.248929,230.966366 193.607723,222.829015 200.15852,227.799925 C206.427502,232.55246 190.910336,250.987926 190.910336,250.987926 C190.910336,250.987926 170.792083,234.87988 176.946036,228.569985 C183.105742,222.248597 190.248929,230.966366 190.248929,230.966366" id="Fill-213" fill="#D44A6F"></path>
                            <path d="M177.318784,63.5471498 C177.318784,63.5471498 179.074172,74.649547 147.348026,94.3526404 C147.348026,94.3526404 183.764992,147.878499 114.805829,138.246656 C114.805829,138.246656 133.962457,115.883675 122.590594,94.5694155 C109.979979,70.9292187 148.804,37.8798134 177.318784,63.5471498" id="Fill-215" fill="#243D48"></path>
                            <path d="M146.880201,91.5504711 C145.680923,90.4101086 142.21964,88.3934675 140.296045,91.3524082 C138.366514,94.3053469 140.153557,101.027484 149.593419,104.388552 C159.021406,107.743619 149.243135,93.8011867 146.880201,91.5504711" id="Fill-217" fill="#FEC191"></path>
                        </g>
                    </g>
                </g>
                <g id="10_illustration/girl/grey-line" transform="translate(0.000000, 71.906155)" stroke="#979797">
                    <path d="M84.3852645,52.3085294 C32.4472474,101.020855 0,170.26812 0,247.093845 C0,394.553873 119.539972,514.093845 267,514.093845 C414.460028,514.093845 534,394.553873 534,247.093845 C534,135.508241 465.548832,39.9102636 368.346583,0" id="Path"></path>
                </g>
            </g>
            <g id="10_illustration/boy/all" transform="translate(870.000000, 243.001413)">
                <g id="10_illustration/search/boy/question-small" transform="translate(497.725084, 46.568640)" fill="#243D48" fill-rule="nonzero">
                    <path d="M29.1967718,75.4588558 C29.905162,75.4588558 30.259357,75.0603863 30.259357,74.2634474 C30.259357,73.7321548 30.2150827,73.3336853 30.1265339,73.068039 C29.0639487,69.6146371 28.5326561,67.179546 28.5326561,65.7627657 C28.5326561,61.6895224 31.7646861,56.8636145 38.2287462,51.2850421 C43.630221,46.6805062 46.9065254,43.780534 48.0576594,42.5851257 C49.2087934,41.3897173 50.4042018,39.7737023 51.6438845,37.7370806 C54.0347012,33.752386 55.2301096,29.369222 55.2301096,24.5875886 C55.2301096,18.3891748 53.1270764,13.4083066 48.9210099,9.64498396 C44.7149434,5.88166132 39.1585082,4 32.2517043,4 C25.9647418,4 20.8510504,5.72670098 16.9106303,9.18010293 C12.9702101,12.6335049 11,17.0609433 11,22.4624181 C11,25.4730762 11.7969389,27.8860302 13.3908167,29.7012799 C14.9846946,31.5165297 17.1541394,32.4241545 19.8991512,32.4241545 C24.5036871,32.4241545 26.8059551,30.2989841 26.8059551,26.0486432 C26.8059551,21.9753999 24.8136078,19.9387782 20.8289132,19.9387782 C18.4380965,19.9387782 16.7999443,20.7799915 15.9144566,22.4624181 C15.4717128,23.1708083 15.2060665,23.6135521 15.1175177,23.7906496 C14.8518714,23.7906496 14.7190483,23.3036314 14.7190483,22.329595 C14.7190483,17.9907053 16.0915542,14.382343 18.836566,11.5045081 C21.5815778,8.62667313 24.9907053,7.18775565 29.0639487,7.18775565 C33.4913871,7.18775565 36.9890634,8.58239874 39.5569777,11.3716849 C42.124892,14.1609711 43.4088491,17.9907053 43.4088491,22.8608876 C43.4088491,28.1738137 40.5752885,34.4607762 34.9081674,41.7217752 C31.1005703,46.5919574 28.4883817,50.5987892 27.0716014,53.7422704 C25.6548211,56.8857517 24.946431,60.2284677 24.946431,63.7704184 C24.946431,66.4268814 25.411312,69.0390701 26.3410741,71.6069844 C27.2708361,74.1748986 28.2227354,75.4588558 29.1967718,75.4588558 Z M29.1967718,98.7029074 C31.2333935,98.7029074 32.9379573,97.9945172 34.3104632,96.5777369 C35.6829691,95.1609567 36.369222,93.4785301 36.369222,91.5304572 C36.369222,89.5823843 35.6829691,87.8999577 34.3104632,86.4831774 C32.9379573,85.0663971 31.2776679,84.358007 29.329595,84.358007 C27.2929733,84.358007 25.5662723,85.0442599 24.149492,86.4167658 C22.7327118,87.7892717 22.0243216,89.4938355 22.0243216,91.5304572 C22.0243216,93.4785301 22.7327118,95.1609567 24.149492,96.5777369 C25.5662723,97.9945172 27.2486989,98.7029074 29.1967718,98.7029074 Z" id="?" transform="translate(33.115055, 51.351454) rotate(-14.000000) translate(-33.115055, -51.351454) "></path>
                </g>
                <g id="10_illustration/search/boy/text-browse" transform="translate(426.104000, 169.438587)" fill="#5A6F83" fill-rule="nonzero">
                    <path d="M14.808,25.56 C18.024,25.56 20.472,24.966 22.152,23.778 C23.832,22.59 24.672,20.904 24.672,18.72 C24.672,17.136 24.264,15.81 23.448,14.742 C22.632,13.674 21.528,12.912 20.136,12.456 C21.144,11.928 21.936,11.184 22.512,10.224 C23.088,9.264 23.376,8.16 23.376,6.912 C23.376,4.872 22.572,3.27 20.964,2.106 C19.356,0.942 17.064,0.36 14.088,0.36 L14.088,0.36 L2.28,0.36 L2.28,25.56 L14.808,25.56 Z M13.584,10.98 L6.96,10.98 L6.96,4.032 L13.584,4.032 C15.216,4.032 16.47,4.326 17.346,4.914 C18.222,5.502 18.66,6.372 18.66,7.524 C18.66,8.652 18.222,9.51 17.346,10.098 C16.47,10.686 15.216,10.98 13.584,10.98 L13.584,10.98 Z M14.52,21.888 L6.96,21.888 L6.96,14.616 L14.52,14.616 C18.144,14.616 19.956,15.828 19.956,18.252 C19.956,20.676 18.144,21.888 14.52,21.888 L14.52,21.888 Z M34.356,25.56 L34.356,18.216 L40.044,18.216 C40.476,18.216 40.8,18.204 41.016,18.18 L41.016,18.18 L46.164,25.56 L51.204,25.56 L45.408,17.28 C47.136,16.608 48.462,15.588 49.386,14.22 C50.31,12.852 50.772,11.22 50.772,9.324 C50.772,7.476 50.34,5.88 49.476,4.536 C48.612,3.192 47.37,2.16 45.75,1.44 C44.13,0.72 42.228,0.36 40.044,0.36 L40.044,0.36 L29.676,0.36 L29.676,25.56 L34.356,25.56 Z M39.828,14.364 L34.356,14.364 L34.356,4.32 L39.828,4.32 C41.868,4.32 43.416,4.752 44.472,5.616 C45.528,6.48 46.056,7.716 46.056,9.324 C46.056,10.932 45.528,12.174 44.472,13.05 C43.416,13.926 41.868,14.364 39.828,14.364 L39.828,14.364 Z M67.764,25.92 C70.332,25.92 72.648,25.362 74.712,24.246 C76.776,23.13 78.396,21.588 79.572,19.62 C80.748,17.652 81.336,15.432 81.336,12.96 C81.336,10.488 80.748,8.268 79.572,6.3 C78.396,4.332 76.776,2.79 74.712,1.674 C72.648,0.558 70.332,-1.42108547e-13 67.764,-1.42108547e-13 C65.196,-1.42108547e-13 62.88,0.558 60.816,1.674 C58.752,2.79 57.132,4.338 55.956,6.318 C54.78,8.298 54.192,10.512 54.192,12.96 C54.192,15.408 54.78,17.622 55.956,19.602 C57.132,21.582 58.752,23.13 60.816,24.246 C62.88,25.362 65.196,25.92 67.764,25.92 Z M67.764,21.816 C66.084,21.816 64.572,21.438 63.228,20.682 C61.884,19.926 60.828,18.87 60.06,17.514 C59.292,16.158 58.908,14.64 58.908,12.96 C58.908,11.28 59.292,9.762 60.06,8.406 C60.828,7.05 61.884,5.994 63.228,5.238 C64.572,4.482 66.084,4.104 67.764,4.104 C69.444,4.104 70.956,4.482 72.3,5.238 C73.644,5.994 74.7,7.05 75.468,8.406 C76.236,9.762 76.62,11.28 76.62,12.96 C76.62,14.64 76.236,16.158 75.468,17.514 C74.7,18.87 73.644,19.926 72.3,20.682 C70.956,21.438 69.444,21.816 67.764,21.816 Z M96.456,25.56 L102.792,6.912 L109.02,25.56 L113.988,25.56 L122.34,0.36 L117.876,0.36 L111.432,19.62 L105.06,0.36 L100.74,0.36 L94.224,19.512 L87.96,0.36 L83.1,0.36 L91.452,25.56 L96.456,25.56 Z M133.968,25.92 C136.176,25.92 138.048,25.584 139.584,24.912 C141.12,24.24 142.266,23.34 143.022,22.212 C143.778,21.084 144.156,19.824 144.156,18.432 C144.156,16.8 143.73,15.504 142.878,14.544 C142.026,13.584 141,12.87 139.8,12.402 C138.6,11.934 137.064,11.484 135.192,11.052 C133.824,10.716 132.744,10.416 131.952,10.152 C131.16,9.888 130.506,9.528 129.99,9.072 C129.474,8.616 129.216,8.028 129.216,7.308 C129.216,6.276 129.666,5.448 130.566,4.824 C131.466,4.2 132.84,3.888 134.688,3.888 C135.816,3.888 136.98,4.056 138.18,4.392 C139.38,4.728 140.532,5.22 141.636,5.868 L141.636,5.868 L143.112,2.232 C142.032,1.512 140.748,0.96 139.26,0.576 C137.772,0.192 136.26,-1.42108547e-13 134.724,-1.42108547e-13 C132.516,-1.42108547e-13 130.65,0.336 129.126,1.008 C127.602,1.68 126.462,2.586 125.706,3.726 C124.95,4.866 124.572,6.132 124.572,7.524 C124.572,9.18 124.998,10.494 125.85,11.466 C126.702,12.438 127.722,13.152 128.91,13.608 C130.098,14.064 131.652,14.52 133.572,14.976 C134.94,15.312 136.02,15.612 136.812,15.876 C137.604,16.14 138.258,16.506 138.774,16.974 C139.29,17.442 139.548,18.036 139.548,18.756 C139.548,19.74 139.086,20.532 138.162,21.132 C137.238,21.732 135.84,22.032 133.968,22.032 C132.456,22.032 130.95,21.774 129.45,21.258 C127.95,20.742 126.684,20.076 125.652,19.26 L125.652,19.26 L124.032,22.896 C125.088,23.808 126.522,24.54 128.334,25.092 C130.146,25.644 132.024,25.92 133.968,25.92 Z M167.7,25.56 L167.7,21.636 L153.48,21.636 L153.48,14.688 L165.648,14.688 L165.648,10.836 L153.48,10.836 L153.48,4.284 L167.196,4.284 L167.196,0.36 L148.8,0.36 L148.8,25.56 L167.7,25.56 Z M8.579,59.744 C13.478,59.744 17.112,56.248 17.112,51.51 C17.112,46.772 13.478,43.276 8.579,43.276 C3.634,43.276 2.16004992e-12,46.795 2.16004992e-12,51.51 C2.16004992e-12,56.225 3.634,59.744 8.579,59.744 Z M8.579,57.697 C4.968,57.697 2.3,55.075 2.3,51.51 C2.3,47.945 4.968,45.323 8.579,45.323 C12.144,45.323 14.812,47.945 14.812,51.51 C14.812,55.075 12.144,57.697 8.579,57.697 Z M27.301,59.744 C31.556,59.744 34.109,57.283 34.109,52.614 L34.109,43.46 L31.878,43.46 L31.878,52.522 C31.878,56.087 30.222,57.697 27.324,57.697 C24.426,57.697 22.793,56.087 22.793,52.522 L22.793,43.46 L20.493,43.46 L20.493,52.614 C20.493,57.283 23.069,59.744 27.301,59.744 Z M41.124,59.56 L41.124,54.661 L45.103,54.661 C45.448,54.661 45.793,54.638 46.115,54.615 L49.588,59.56 L52.095,59.56 L48.277,54.155 C50.531,53.35 51.819,51.556 51.819,49.072 C51.819,45.576 49.289,43.46 45.103,43.46 L38.824,43.46 L38.824,59.56 L41.124,59.56 Z M45.034,52.706 L41.124,52.706 L41.124,45.461 L45.034,45.461 C47.978,45.461 49.519,46.772 49.519,49.072 C49.519,51.372 47.978,52.706 45.034,52.706 Z M68.931,59.744 C71.438,59.744 73.6,58.87 75.072,57.214 L73.577,55.765 C72.335,57.076 70.817,57.697 69.046,57.697 C65.412,57.697 62.721,55.075 62.721,51.51 C62.721,47.945 65.412,45.323 69.046,45.323 C70.817,45.323 72.335,45.921 73.577,47.232 L75.072,45.783 C73.6,44.127 71.438,43.276 68.954,43.276 C64.055,43.276 60.421,46.749 60.421,51.51 C60.421,56.271 64.055,59.744 68.931,59.744 Z M77.901,59.56 L79.672,55.535 L88.228,55.535 L89.999,59.56 L92.414,59.56 L85.1,43.46 L82.823,43.46 L75.532,59.56 L77.901,59.56 Z M87.423,53.695 L80.477,53.695 L83.95,45.806 L87.423,53.695 Z M99.475,59.56 L99.475,45.461 L104.995,45.461 L104.995,43.46 L91.678,43.46 L91.678,45.461 L97.198,45.461 L97.198,59.56 L99.475,59.56 Z M106.628,59.56 L108.399,55.535 L116.955,55.535 L118.726,59.56 L121.141,59.56 L113.827,43.46 L111.55,43.46 L104.259,59.56 L106.628,59.56 Z M116.15,53.695 L109.204,53.695 L112.677,45.806 L116.15,53.695 Z M134.55,59.56 L134.55,57.559 L125.833,57.559 L125.833,43.46 L123.533,43.46 L123.533,59.56 L134.55,59.56 Z M144.164,59.744 C149.063,59.744 152.697,56.248 152.697,51.51 C152.697,46.772 149.063,43.276 144.164,43.276 C139.219,43.276 135.585,46.795 135.585,51.51 C135.585,56.225 139.219,59.744 144.164,59.744 Z M144.164,57.697 C140.553,57.697 137.885,55.075 137.885,51.51 C137.885,47.945 140.553,45.323 144.164,45.323 C147.729,45.323 150.397,47.945 150.397,51.51 C150.397,55.075 147.729,57.697 144.164,57.697 Z M163.484,59.744 C165.738,59.744 167.969,59.054 169.579,57.697 L169.579,51.418 L167.371,51.418 L167.371,56.662 C166.221,57.398 164.956,57.697 163.599,57.697 C159.896,57.697 157.205,55.052 157.205,51.51 C157.205,47.922 159.896,45.323 163.622,45.323 C165.439,45.323 166.957,45.898 168.291,47.186 L169.717,45.76 C168.245,44.127 166.083,43.276 163.53,43.276 C158.539,43.276 154.905,46.749 154.905,51.51 C154.905,56.271 158.539,59.744 163.484,59.744 Z" id="BROWSEOURCATALOG" transform="translate(84.858500, 29.872000) rotate(-360.000000) translate(-84.858500, -29.872000) "></path>
                </g>
                <g id="10_illustration/boy/grey-line" transform="translate(0.000000, 70.998587)" stroke="#979797">
                    <path d="M454.615343,74.2997133 C434.588439,55.2016104 411.619102,39.1619216 386.456668,26.9299831 C350.966445,9.67750891 311.113374,0 269,0 C120.435402,0 0,120.435402 0,269 C0,417.564598 120.435402,538 269,538 C417.564598,538 538,417.564598 538,269 C538,239.048136 533.104791,210.239609 524.070782,183.330828" id="Path"></path>
                </g>
                <g id="10_illustration/search/boy/question-big" transform="translate(343.293201, 0.000000)" fill="#243D48" fill-rule="nonzero">
                    <path d="M44.4942354,132.6051 C45.7592178,132.6051 46.391709,131.893547 46.391709,130.470442 C46.391709,129.521705 46.3126476,128.810152 46.1545248,128.335784 C44.2570512,122.168995 43.3083144,117.820618 43.3083144,115.290653 C43.3083144,108.017004 49.0797966,99.3993116 60.622761,89.4375752 C70.2682518,81.2151896 76.1187954,76.0366679 78.1743918,73.9020101 C80.2299882,71.7673523 82.364646,68.8816112 84.5783652,65.2447868 C88.8476808,58.1292608 90.9823386,50.3021822 90.9823386,41.763551 C90.9823386,30.694955 87.2269221,21.8005475 79.7160891,15.0803285 C72.2052561,8.3601095 62.2830504,5 49.949472,5 C38.7227532,5 29.5911615,8.0833946 22.5546969,14.2501838 C15.5182323,20.416973 12,28.323113 12,37.9686038 C12,43.344779 13.4231052,47.6536253 16.2693156,50.8951427 C19.115526,54.1366601 22.9895346,55.7574188 27.8913414,55.7574188 C36.113727,55.7574188 40.2249198,51.9624716 40.2249198,44.3725772 C40.2249198,37.0989284 36.6671568,33.462104 29.5516308,33.462104 C25.2823152,33.462104 22.3570434,34.9642706 20.7758154,37.9686038 C19.9852014,39.2335862 19.510833,40.0242002 19.3527102,40.3404458 C18.8783418,40.3404458 18.6411576,39.4707704 18.6411576,37.7314196 C18.6411576,29.9834024 21.092061,23.5398983 25.9938678,18.4009073 C30.8956746,13.2619163 36.9834024,10.6924208 44.2570512,10.6924208 C52.1631912,10.6924208 58.4090418,13.1828549 62.994603,18.1637231 C67.5801642,23.1445913 69.8729448,29.9834024 69.8729448,38.6801564 C69.8729448,48.1675244 64.8130152,59.3942432 54.693156,72.3603128 C47.8938756,81.0570668 43.229253,88.2121235 40.6992882,93.8254829 C38.1693234,99.4388423 36.904341,105.407978 36.904341,111.73289 C36.904341,116.476574 37.7344857,121.141197 39.3947751,125.726758 C41.0550645,130.312319 42.7548846,132.6051 44.4942354,132.6051 Z M44.4942354,174.112335 C48.1310598,174.112335 51.1749237,172.847352 53.6258271,170.317387 C56.0767305,167.787423 57.3021822,164.783089 57.3021822,161.304388 C57.3021822,157.825686 56.0767305,154.821353 53.6258271,152.291388 C51.1749237,149.761423 48.2101212,148.496441 44.7314196,148.496441 C41.0945952,148.496441 38.0112006,149.721893 35.4812358,152.172796 C32.951271,154.6237 31.6862886,157.667563 31.6862886,161.304388 C31.6862886,164.783089 32.951271,167.787423 35.4812358,170.317387 C38.0112006,172.847352 41.0155338,174.112335 44.4942354,174.112335 Z" id="?" transform="translate(51.491169, 89.556167) rotate(8.000000) translate(-51.491169, -89.556167) "></path>
                </g>
                <g id="10_illustration/boy" transform="translate(88.000000, 140.998587)">
                    <g id="Group-2">
                        <path d="M135.939424,11.0739529 C135.939424,11.0739529 141.108816,-0.714575982 151.955162,0.159447672 C162.801507,1.03347133 165.024842,9.83845036 165.024842,9.83845036 C165.024842,9.83845036 167.948832,7.99328931 175.606374,12.0127191 C180.439231,14.5538619 182.105354,26.8063787 176.41185,27.0491631 C176.41185,27.0491631 182.105354,30.7934372 179.424111,36.5878903 C176.737351,42.371553 162.282913,39.0588955 162.282913,39.0588955 L135.939424,11.0739529 Z" id="Fill-1122" fill="#3C1506" transform="translate(158.040679, 20.058177) scale(-1, 1) translate(-158.040679, -20.058177) "></path>
                        <path d="M183.45548,30.246775 C190.48026,50.2537675 201.055431,66.5279485 183.439194,74.404674 C178.683624,76.5314447 175.27438,77.1069883 173.482898,77.2495039 C172.48944,77.3317244 171.642558,77.9785258 171.381979,78.8939142 C170.887964,80.6369892 170.073654,88.9412614 172.19086,92.1259361 C172.19086,92.1259361 165.383229,99.9642921 144.466323,89.6922088 C144.466323,89.6922088 147.69099,71.9928722 146.431524,64.6807275 C144.846334,55.5213619 130.85649,27.758234 140.221054,21.723248 C148.798452,16.1980293 167.299572,-2.38380758 180.095095,22.3152358 C181.267701,24.5790407 182.391449,27.2100972 183.45548,30.246775" id="Fill-1124" fill="#FEC191" transform="translate(165.048394, 52.401477) scale(-1, 1) translate(-165.048394, -52.401477) "></path>
                        <path d="M181.915818,7.96314265 C181.915818,7.96314265 165.810302,-0.687480731 153.533292,9.06637344 C145.872525,15.1577349 150.307417,32.3846094 152.082472,33.9252688 C152.082472,33.9252688 144.152425,37.5877615 144.581076,43.9477788 C145.009727,50.3023134 151.48346,57.4682985 164.683719,62.6221056 C164.683719,62.6221056 172.976471,63.6419015 168.431669,51.6072135 C163.886867,39.5725255 170.800242,34.8518575 175.982525,40.8719429 C178.570919,43.8819856 178.702812,48.7342402 179.428221,51.1850399 C180.159127,53.6358397 183.434462,51.9032833 183.434462,51.9032833 C183.434462,51.9032833 175.944056,32.2804367 184.390683,28.8482205 C192.842806,25.4160042 204.938464,26.9292497 204.938464,26.9292497 L192.710913,6.80198796 L181.915818,7.96314265 Z" id="Fill-1126" fill="#3C1506" transform="translate(174.751384, 33.534552) scale(-1, 1) translate(-174.751384, -33.534552) "></path>
                        <path d="M158.361563,49.9979498 L160.306704,57.8058235 C160.306704,57.8058235 178.424615,69.6742311 168.594215,78.5645476 C158.769326,87.4548641 127.57544,86.8614437 127.299925,69.3500478 C127.024409,51.8386519 126.236434,40.003212 126.236434,40.003212 C126.236434,40.003212 129.33323,50.6957682 133.950873,55.0035606 C138.568516,59.311353 141.329183,45.5802647 158.361563,49.9979498" id="Fill-1128" fill="#3C1506" transform="translate(148.876744, 62.104467) scale(-1, 1) translate(-148.876744, -62.104467) "></path>
                        <path d="M149.864985,55.7401056 C150.454867,57.3150132 148.078952,59.2738318 144.556043,60.1114557 C141.038596,60.9447171 137.695929,60.3470375 137.106046,58.7677673 C136.521626,57.1928597 138.892079,55.2340412 142.42045,54.3964172 C145.937897,53.5587932 149.275102,54.1608354 149.864985,55.7401056" id="Fill-1130" fill="#FEC191" transform="translate(143.486194, 57.252972) scale(-1, 1) translate(-143.486194, -57.252972) "></path>
                        <path d="M162.847507,225.438132 C162.847507,225.438132 216.646893,298.846331 208.388983,354.868664 C200.136537,410.890998 177.357602,479.517402 177.357602,479.517402 C177.357602,479.517402 159.448156,488.22944 157.939762,462.688321 C157.251147,451.110481 160.000141,373.335346 151.512692,354.917792 C143.686532,337.93041 93.893134,226.382482 93.893134,226.382482 L162.847507,225.438132 Z" id="Fill-1136" fill="#243D48" transform="translate(151.572019, 353.194167) scale(-1, 1) translate(-151.572019, -353.194167) "></path>
                        <path d="M240.213894,374.90515 C171.559099,357.646741 128.153764,288.350288 144.943185,281.330846 C157.486255,276.085429 234.824294,340.941346 251.080199,314.051738 C267.336104,287.16213 279.639635,226.385373 279.639635,226.385373 L348.327094,225.438132 C348.327094,225.438132 315.069451,393.724043 240.213894,374.90515" id="Fill-1138" fill="#243D48" transform="translate(244.828534, 300.905832) scale(-1, 1) translate(-244.828534, -300.905832) "></path>
                        <path d="M46.5164508,104.689812 C46.5164508,104.689812 54.728342,118.390618 74.6668573,133.652067 C93.6399058,148.157836 142.037994,152.494782 142.037994,152.494782 L143.486194,166.606284 C143.486194,166.606284 87.8037137,181.172288 56.4640126,164.930645 C37.306549,155.002763 36.753304,149.734908 36.753304,149.734908 L46.5164508,104.689812 Z" id="Fill-1140" fill="#FDCB5B" transform="translate(90.119749, 138.650277) scale(-1, 1) translate(-90.119749, -138.650277) "></path>
                        <path d="M254.602858,91.875291 C254.602858,91.875291 266.596719,90.3039007 285.126254,97.569528 C303.661231,104.835155 296.233091,152.398459 287.003696,173.784699 C277.7743,195.176414 279.175554,231.464202 279.175554,231.464202 L202.922137,236.986174 C202.922137,236.986174 193.88802,201.325095 187.575462,176.823451 C181.257461,152.316331 162.640856,143.961133 151.914949,156.439178 C141.189042,168.922697 154.815461,226.505668 154.815461,226.505668 L142.935879,228.712185 C142.935879,228.712185 100.358762,164.91483 128.046949,118.391819 C155.735135,71.8688086 232.155183,87.9824041 232.155183,87.9824041 C232.155183,87.9824041 241.732858,96.9946291 254.602858,91.875291 Z" id="Fill-1142" fill="#FDCB5B" transform="translate(207.633739, 161.135003) scale(-1, 1) translate(-207.633739, -161.135003) "></path>
                        <path d="M0.79749,152.833837 C0.79749,152.833837 17.0903584,134.784814 15.8357741,139.336355 C14.5923416,143.893509 8.79895001,152.575673 13.5942501,150.920057 C18.3895502,149.26444 38.3179251,143.657794 36.7622405,145.812901 C35.2957709,147.838927 20.5362833,152.020059 22.6997443,152.57006 C24.8520534,153.108837 42.1262855,153.46241 37.8551229,154.674657 C33.5895362,155.892517 19.7668049,156.622111 22.9841167,158.114972 C26.2739156,159.647118 39.0037645,162.346614 34.643387,162.756309 C29.7365683,163.216514 20.2630627,162.750697 22.3094292,164.07519 C24.3613715,165.399683 34.2530719,167.807342 29.6529294,167.706321 C25.0583628,167.610913 1.14877361,167.408871 1.14877361,167.408871 L0.79749,152.833837 Z" id="Fill-1144" fill="#FEC191" transform="translate(19.664415, 153.154917) scale(-1, 1) translate(-19.664415, -153.154917) "></path>
                        <path d="M98.886254,499.124665 C110.127079,499.276402 162.627514,503.134851 148.699489,496.366307 C134.771464,489.592344 120.97861,485.387068 121.573363,483.295269 C122.178929,481.203469 140.064763,471.373094 136.106954,470.267583 C132.143739,469.162073 114.241685,477.756877 107.942714,476.423761 C101.643743,475.079806 99.3188014,472.662857 98.9024745,474.868459 C98.4807409,477.074061 98.8970677,480.601941 98.8970677,480.601941 C98.8970677,480.601941 87.6454295,498.972928 98.886254,499.124665 Z" id="Fill-1146" fill="#E67962" transform="translate(122.463049, 485.262642) scale(-1, 1) translate(-122.463049, -485.262642) "></path>
                        <path d="M123.226351,485.818947 L120.621637,489.018777 L123.226351,485.818947 Z" id="Fill-1148" fill="#FCA397" transform="translate(121.923994, 487.418862) scale(-1, 1) translate(-121.923994, -487.418862) "></path>
                        <polygon id="Fill-1150" fill="#FCA397" transform="translate(121.923994, 487.418862) scale(-1, 1) translate(-121.923994, -487.418862) " points="121.029163 489.350835 120.214112 488.686719 122.814513 485.486889 123.633876 486.151005"></polygon>
                        <path d="M118.913911,487.975167 L116.309197,491.174997 L118.913911,487.975167 Z" id="Fill-1152" fill="#FCA397" transform="translate(117.611554, 489.575082) scale(-1, 1) translate(-117.611554, -489.575082) "></path>
                        <polygon id="Fill-1154" fill="#FCA397" transform="translate(117.611554, 489.575082) scale(-1, 1) translate(-117.611554, -489.575082) " points="116.716723 491.507055 115.901672 490.842939 118.502073 487.643109 119.321436 488.307225"></polygon>
                        <path d="M115.679581,490.131387 L113.074867,493.331217 L115.679581,490.131387 Z" id="Fill-1156" fill="#FCA397" transform="translate(114.377224, 491.731302) scale(-1, 1) translate(-114.377224, -491.731302) "></path>
                        <polygon id="Fill-1158" fill="#FCA397" transform="translate(114.377224, 491.731302) scale(-1, 1) translate(-114.377224, -491.731302) " points="113.482393 493.663275 112.667342 492.999159 115.267743 489.799329 116.087106 490.463445"></polygon>
                        <path d="M112.445251,491.209497 L109.840537,494.409327 L112.445251,491.209497 Z" id="Fill-1160" fill="#FCA397" transform="translate(111.142894, 492.809412) scale(-1, 1) translate(-111.142894, -492.809412) "></path>
                        <polygon id="Fill-1162" fill="#FCA397" transform="translate(111.142894, 492.809412) scale(-1, 1) translate(-111.142894, -492.809412) " points="110.245907 494.741385 109.435168 494.077269 112.035569 490.877439 112.85062 491.541555"></polygon>
                        <path d="M368.225211,279.743793 C368.225211,279.743793 355.021067,262.521134 350.798144,273.048818 C346.575222,283.571051 323.920035,331.597136 335.337768,320.933153 C346.755502,310.269171 355.720335,298.798302 357.468504,300.11767 C359.216674,301.437038 361.98643,321.821819 364.466646,318.490687 C366.941399,315.165007 365.346194,295.210929 368.880775,289.764447 C372.420819,284.317966 375.540209,283.009501 373.611759,281.815528 C371.694236,280.627006 368.225211,279.743793 368.225211,279.743793" id="Fill-1164" fill="#E67962" transform="translate(353.178589, 296.054337) scale(-1, 1) translate(-353.178589, -296.054337) "></path>
                        <path d="M353.668051,301.617385 L351.611017,298.038059 L353.668051,301.617385 Z" id="Fill-1166" fill="#FCA397" transform="translate(352.639534, 299.827722) scale(-1, 1) translate(-352.639534, -299.827722) "></path>
                        <polygon id="Fill-1168" fill="#FCA397" transform="translate(352.639534, 299.827722) scale(-1, 1) translate(-352.639534, -299.827722) " points="353.213089 301.878287 351.156055 298.298962 352.06598 297.777157 354.123013 301.356482"></polygon>
                        <path d="M357.980491,303.773605 L355.923457,300.194279 L357.980491,303.773605 Z" id="Fill-1170" fill="#FCA397" transform="translate(356.951974, 301.983942) scale(-1, 1) translate(-356.951974, -301.983942) "></path>
                        <polygon id="Fill-1172" fill="#FCA397" transform="translate(356.951974, 301.983942) scale(-1, 1) translate(-356.951974, -301.983942) " points="357.521216 304.034507 355.468495 300.459495 356.37842 299.933377 358.435453 303.512702"></polygon>
                        <path d="M360.136711,307.007935 L358.079677,303.428609 L360.136711,307.007935 Z" id="Fill-1174" fill="#FCA397" transform="translate(359.108194, 305.218272) scale(-1, 1) translate(-359.108194, -305.218272) "></path>
                        <polygon id="Fill-1176" fill="#FCA397" transform="translate(359.108194, 305.218272) scale(-1, 1) translate(-359.108194, -305.218272) " points="359.679592 307.268837 357.622558 303.689512 358.536796 303.167707 360.59383 306.747032"></polygon>
                        <path d="M363.368885,310.242265 L361.316163,306.662939 L363.368885,310.242265 Z" id="Fill-1178" fill="#FCA397" transform="translate(362.342524, 308.452602) scale(-1, 1) translate(-362.342524, -308.452602) "></path>
                        <polygon id="Fill-1180" fill="#FCA397" transform="translate(362.342524, 308.452602) scale(-1, 1) translate(-362.342524, -308.452602) " points="362.913922 310.505323 360.856888 306.925998 361.771126 306.399881 363.82816 309.979206"></polygon>
                        <path d="M261.054295,225.438132 C261.054295,225.438132 277.375795,239.251855 274.724308,239.469124 C272.07282,239.686393 267.259435,238.285581 265.983201,238.051159 C264.712467,237.81102 269.19029,253.059861 264.921506,252.368031 C260.663723,251.676201 248.08291,245.323947 247.15874,241.310191 C246.23457,237.302153 249.293132,227.101954 249.293132,227.101954 L261.054295,225.438132 Z" id="Fill-1208" fill="#FEC191" transform="translate(261.000184, 238.914507) scale(-1, 1) translate(-261.000184, -238.914507) "></path>
                    </g>
                </g>
            </g>
        </g>
    </g>
</svg>
