<?xml version="1.0" encoding="UTF-8"?>
<svg  viewBox="0 0 507 546" version="1.1" xmlns="http://www.w3.org/2000/svg" xmlns:xlink="http://www.w3.org/1999/xlink">
    <!-- Generator: sketchtool 63.1 (101010) - https://sketch.com -->
    <title>B53EC5C9-8C1A-4DA3-99D9-2934EE29CC60</title>
    <desc>Created with sketchtool.</desc>
    <g id="breackpoints" stroke="none" stroke-width="1" fill="none" fill-rule="evenodd">
        <g id="Search_768" transform="translate(-146.000000, -984.000000)">
            <g id="10_illustration/boy/all" transform="translate(146.000000, 984.000000)">
                <g id="10_illustration/search/boy/question-small" transform="translate(422.691152, 39.605105)" fill="#243D48" fill-rule="nonzero">
                    <path d="M24.7952484,64.1752886 C25.3968461,64.1752886 25.6976449,63.8364033 25.6976449,63.1586328 C25.6976449,62.7067859 25.6600451,62.3679006 25.5848454,62.1419771 C24.6824489,59.2049717 24.2312506,57.1340064 24.2312506,55.9290811 C24.2312506,52.4649209 26.97604,48.3606441 32.4656186,43.6162508 C37.0528008,39.7002436 39.8351899,37.2339121 40.8127861,36.2172564 C41.7903823,35.2006007 42.8055784,33.8262328 43.8583743,32.0941527 C45.8887664,28.7053003 46.9039624,24.9775627 46.9039624,20.9109398 C46.9039624,15.6393917 45.1179694,11.4033262 41.5459833,8.20274337 C37.9739972,5.00216056 33.2552155,3.40186916 27.3896383,3.40186916 C22.0504591,3.40186916 17.707676,4.87037186 14.361289,7.80737726 C11.014902,10.7443827 9.34170854,14.5097742 9.34170854,19.1035519 C9.34170854,21.6640181 10.0185059,23.7161565 11.3721006,25.259967 C12.7256954,26.8037776 14.5680882,27.5756828 16.8992791,27.5756828 C20.8096639,27.5756828 22.7648563,25.7682949 22.7648563,22.153519 C22.7648563,18.6893588 21.0728629,16.9572787 17.6888761,16.9572787 C15.658484,16.9572787 14.2672894,17.6727031 13.5152923,19.1035519 C13.1392938,19.7060145 12.9136946,20.0825537 12.8384949,20.2331693 C12.6128958,20.2331693 12.5000963,19.8189763 12.5000963,18.9905901 C12.5000963,15.3005064 13.6656917,12.2317123 15.9968827,9.78420781 C18.3280736,7.33670331 21.2232623,6.11295107 24.6824489,6.11295107 C28.4424342,6.11295107 31.4128227,7.2990494 33.5936142,9.67124607 C35.7744057,12.0434427 36.8648015,15.3005064 36.8648015,19.4424371 C36.8648015,23.9609069 34.4584108,29.3077629 29.6456296,35.483005 C26.4120421,39.6249357 24.1936508,43.0326151 22.9904555,45.7060431 C21.7872601,48.3794711 21.1856625,51.2223417 21.1856625,54.2346549 C21.1856625,56.4938898 21.5804609,58.7154708 22.3700579,60.8993979 C23.1596548,63.083325 23.9680517,64.1752886 24.7952484,64.1752886 Z M24.7952484,83.9435941 C26.5248417,83.9435941 27.9724361,83.3411315 29.1380315,82.1362062 C30.303627,80.9312809 30.8864247,79.5004321 30.8864247,77.8436598 C30.8864247,76.1868876 30.303627,74.7560388 29.1380315,73.5511135 C27.9724361,72.3461882 26.5624416,71.7437255 24.908048,71.7437255 C23.1784547,71.7437255 21.7120604,72.3273612 20.5088651,73.4946326 C19.3056698,74.661904 18.7040721,76.1115797 18.7040721,77.8436598 C18.7040721,79.5004321 19.3056698,80.9312809 20.5088651,82.1362062 C21.7120604,83.3411315 23.1408549,83.9435941 24.7952484,83.9435941 Z" id="?" transform="translate(28.122835, 43.672732) rotate(-14.000000) translate(-28.122835, -43.672732) "></path>
                </g>
                <g id="10_illustration/search/boy/text-browse" transform="translate(361.867216, 144.101976)" fill="#5A6F83" fill-rule="nonzero">
                    <path d="M12.5756382,21.7379439 C15.3068141,21.7379439 17.3857688,21.2327664 18.8125025,20.2224112 C20.2392362,19.2120561 20.952603,17.7781682 20.952603,15.9207477 C20.952603,14.5736075 20.6061106,13.4458879 19.9131256,12.5375888 C19.2201407,11.6292897 18.2825729,10.9812336 17.1004221,10.5934206 C17.9564623,10.1443738 18.6290653,9.51162617 19.1182312,8.69517757 C19.607397,7.87872897 19.8519799,6.93981308 19.8519799,5.87842991 C19.8519799,4.14347664 19.1691859,2.78102804 17.803598,1.79108411 C16.4380101,0.801140187 14.4915377,0.306168224 11.9641809,0.306168224 L11.9641809,0.306168224 L1.93628141,0.306168224 L1.93628141,21.7379439 L12.5756382,21.7379439 Z M11.5361608,9.33813084 L5.91075377,9.33813084 L5.91075377,3.42908411 L11.5361608,3.42908411 C12.9221307,3.42908411 13.9870854,3.6791215 14.7310251,4.17919626 C15.4749648,4.67927103 15.8469347,5.41917757 15.8469347,6.39891589 C15.8469347,7.35824299 15.4749648,8.08794393 14.7310251,8.58801869 C13.9870854,9.08809346 12.9221307,9.33813084 11.5361608,9.33813084 L11.5361608,9.33813084 Z M12.3310553,18.615028 L5.91075377,18.615028 L5.91075377,12.4304299 L12.3310553,12.4304299 C15.4087236,12.4304299 16.9475578,13.4611963 16.9475578,15.522729 C16.9475578,17.5842617 15.4087236,18.615028 12.3310553,18.615028 L12.3310553,18.615028 Z M29.1767035,21.7379439 L29.1767035,15.4921121 L34.0072161,15.4921121 C34.3740905,15.4921121 34.6492462,15.4819065 34.8326834,15.4614953 L34.8326834,15.4614953 L39.204603,21.7379439 L43.484804,21.7379439 L38.5625729,14.6960748 C40.0300704,14.1245607 41.1561709,13.2570841 41.9408744,12.0936449 C42.7255779,10.9302056 43.1179296,9.54224299 43.1179296,7.92975701 C43.1179296,6.35809346 42.7510553,5.00074766 42.0173065,3.85771963 C41.2835578,2.71469159 40.228794,1.83700935 38.8530151,1.2246729 C37.4772362,0.612336449 35.8619698,0.306168224 34.0072161,0.306168224 L34.0072161,0.306168224 L25.2022312,0.306168224 L25.2022312,21.7379439 L29.1767035,21.7379439 Z M33.8237789,12.2161121 L29.1767035,12.2161121 L29.1767035,3.67401869 L33.8237789,3.67401869 C35.5562412,3.67401869 36.8708744,4.04142056 37.7676784,4.7762243 C38.6644824,5.51102804 39.1128844,6.56220561 39.1128844,7.92975701 C39.1128844,9.29730841 38.6644824,10.3535888 37.7676784,11.0985981 C36.8708744,11.8436075 35.5562412,12.2161121 33.8237789,12.2161121 L33.8237789,12.2161121 Z M57.5483216,22.0441121 C59.7291859,22.0441121 61.6960402,21.5695514 63.4488844,20.6204299 C65.2017286,19.6713084 66.5775075,18.3598879 67.5762211,16.6861682 C68.5749347,15.0124486 69.0742915,13.1244112 69.0742915,11.0220561 C69.0742915,8.91970093 68.5749347,7.03166355 67.5762211,5.35794393 C66.5775075,3.6842243 65.2017286,2.37280374 63.4488844,1.42368224 C61.6960402,0.474560748 59.7291859,-1.20858671e-13 57.5483216,-1.20858671e-13 C55.3674573,-1.20858671e-13 53.400603,0.474560748 51.6477588,1.42368224 C49.8949146,2.37280374 48.5191357,3.6893271 47.5204221,5.37325234 C46.5217085,7.05717757 46.0223518,8.94011215 46.0223518,11.0220561 C46.0223518,13.104 46.5217085,14.9869346 47.5204221,16.6708598 C48.5191357,18.354785 49.8949146,19.6713084 51.6477588,20.6204299 C53.400603,21.5695514 55.3674573,22.0441121 57.5483216,22.0441121 Z M57.5483216,18.5537944 C56.1215879,18.5537944 54.8375276,18.2323178 53.6961407,17.5893645 C52.5547538,16.9464112 51.6579497,16.0483178 51.0057286,14.8950841 C50.3535075,13.7418505 50.027397,12.4508411 50.027397,11.0220561 C50.027397,9.59327103 50.3535075,8.30226168 51.0057286,7.14902804 C51.6579497,5.99579439 52.5547538,5.09770093 53.6961407,4.45474766 C54.8375276,3.81179439 56.1215879,3.49031776 57.5483216,3.49031776 C58.9750553,3.49031776 60.2591156,3.81179439 61.4005025,4.45474766 C62.5418894,5.09770093 63.4386935,5.99579439 64.0909146,7.14902804 C64.7431357,8.30226168 65.0692462,9.59327103 65.0692462,11.0220561 C65.0692462,12.4508411 64.7431357,13.7418505 64.0909146,14.8950841 C63.4386935,16.0483178 62.5418894,16.9464112 61.4005025,17.5893645 C60.2591156,18.2323178 58.9750553,18.5537944 57.5483216,18.5537944 Z M81.9148945,21.7379439 L87.2957186,5.87842991 L92.5848241,21.7379439 L96.8038794,21.7379439 L103.896784,0.306168224 L100.105749,0.306168224 L94.633206,16.6861682 L89.221809,0.306168224 L85.5530653,0.306168224 L80.0193769,16.5943178 L74.6996985,0.306168224 L70.5723618,0.306168224 L77.6652663,21.7379439 L81.9148945,21.7379439 Z M113.771819,22.0441121 C115.646955,22.0441121 117.236744,21.7583551 118.541186,21.1868411 C119.845628,20.6153271 120.818864,19.8499065 121.460894,18.8905794 C122.102925,17.9312523 122.42394,16.8596636 122.42394,15.6758131 C122.42394,14.2878505 122.062161,13.1856449 121.338603,12.3691963 C120.615045,11.5527477 119.743719,10.945514 118.724623,10.5474953 C117.705528,10.1494766 116.401085,9.76676636 114.811296,9.39936449 C113.649528,9.11360748 112.732342,8.85846729 112.059739,8.63394393 C111.387136,8.40942056 110.831729,8.10325234 110.393518,7.71543925 C109.955307,7.32762617 109.736201,6.8275514 109.736201,6.21521495 C109.736201,5.33753271 110.118362,4.63334579 110.882683,4.10265421 C111.647005,3.57196262 112.813869,3.30661682 114.383276,3.30661682 C115.341226,3.30661682 116.329749,3.44949533 117.348844,3.73525234 C118.36794,4.02100935 119.346271,4.43943925 120.283839,4.99054206 L120.283839,4.99054206 L121.537327,1.89824299 C120.620141,1.28590654 119.529709,0.816448598 118.26603,0.489869159 C117.002352,0.16328972 115.718291,-1.20858671e-13 114.413849,-1.20858671e-13 C112.538714,-1.20858671e-13 110.95402,0.285757009 109.659769,0.857271028 C108.365518,1.42878505 107.397377,2.19930841 106.755347,3.16884112 C106.113317,4.13837383 105.792302,5.21506542 105.792302,6.39891589 C105.792302,7.80728972 106.15408,8.92480374 106.877638,9.75145794 C107.601196,10.5781121 108.467427,11.1853458 109.476332,11.5731589 C110.485236,11.960972 111.804965,12.348785 113.435518,12.7365981 C114.597286,13.0223551 115.514472,13.2774953 116.187075,13.5020187 C116.859678,13.7265421 117.415085,14.0378131 117.853296,14.4358318 C118.291508,14.8338505 118.510613,15.339028 118.510613,15.9513645 C118.510613,16.7882243 118.118261,17.4617944 117.333558,17.9720748 C116.548854,18.4823551 115.361608,18.7374953 113.771819,18.7374953 C112.487759,18.7374953 111.208794,18.5180748 109.934925,18.0792336 C108.661055,17.6403925 107.58591,17.0739813 106.709487,16.38 L106.709487,16.38 L105.333709,19.4722991 C106.230513,20.2479252 107.448332,20.8704673 108.987166,21.3399252 C110.526,21.8093832 112.120884,22.0441121 113.771819,22.0441121 Z M142.418593,21.7379439 L142.418593,18.4007103 L130.342312,18.4007103 L130.342312,12.4916636 L140.67594,12.4916636 L140.67594,9.21566355 L130.342312,9.21566355 L130.342312,3.64340187 L141.990573,3.64340187 L141.990573,0.306168224 L126.367839,0.306168224 L126.367839,21.7379439 L142.418593,21.7379439 Z M7.28568342,50.8103178 C11.4461407,50.8103178 14.5323015,47.8370841 14.5323015,43.8075701 C14.5323015,39.7780561 11.4461407,36.8048224 7.28568342,36.8048224 C3.0861608,36.8048224 1.8315746e-12,39.7976168 1.8315746e-12,43.8075701 C1.8315746e-12,47.8175234 3.0861608,50.8103178 7.28568342,50.8103178 Z M7.28568342,49.0694112 C4.21905528,49.0694112 1.95326633,46.839486 1.95326633,43.8075701 C1.95326633,40.7756542 4.21905528,38.545729 7.28568342,38.545729 C10.3132462,38.545729 12.5790352,40.7756542 12.5790352,43.8075701 C12.5790352,46.839486 10.3132462,49.0694112 7.28568342,49.0694112 Z M23.1852714,50.8103178 C26.7988141,50.8103178 28.9669397,48.7173178 28.9669397,44.746486 L28.9669397,36.9613084 L27.0722714,36.9613084 L27.0722714,44.668243 C27.0722714,47.7001589 25.6659196,49.0694112 23.204804,49.0694112 C20.7436884,49.0694112 19.3568693,47.7001589 19.3568693,44.668243 L19.3568693,36.9613084 L17.403603,36.9613084 L17.403603,44.746486 C17.403603,48.7173178 19.5912613,50.8103178 23.1852714,50.8103178 Z M34.924402,50.6538318 L34.924402,46.4873925 L38.3035528,46.4873925 C38.5965427,46.4873925 38.8895327,46.4678318 39.1629899,46.448271 L42.1124221,50.6538318 L44.2414824,50.6538318 L40.9990603,46.0570561 C42.9132613,45.3724299 44.0070905,43.8466916 44.0070905,41.7341308 C44.0070905,38.7608972 41.8584975,36.9613084 38.3035528,36.9613084 L32.9711357,36.9613084 L32.9711357,50.6538318 L34.924402,50.6538318 Z M38.2449548,44.824729 L34.924402,44.824729 L34.924402,38.6630935 L38.2449548,38.6630935 C40.7451357,38.6630935 42.0538241,39.7780561 42.0538241,41.7341308 C42.0538241,43.6902056 40.7451357,44.824729 38.2449548,44.824729 Z M58.539392,50.8103178 C60.6684523,50.8103178 62.5045226,50.0670093 63.7546131,48.6586355 L62.4849899,47.4263084 C61.4302261,48.541271 60.1410704,49.0694112 58.6370553,49.0694112 C55.5508945,49.0694112 53.2655729,46.839486 53.2655729,43.8075701 C53.2655729,40.7756542 55.5508945,38.545729 58.6370553,38.545729 C60.1410704,38.545729 61.4302261,39.0543084 62.4849899,40.169271 L63.7546131,38.9369439 C62.5045226,37.5285701 60.6684523,36.8048224 58.5589246,36.8048224 C54.3984673,36.8048224 51.3123065,39.7584953 51.3123065,43.8075701 C51.3123065,47.8566449 54.3984673,50.8103178 58.539392,50.8103178 Z M66.1571307,50.6538318 L67.6611457,47.2307009 L74.9272965,47.2307009 L76.4313116,50.6538318 L78.4822412,50.6538318 L72.2708543,36.9613084 L70.3371206,36.9613084 L64.1452663,50.6538318 L66.1571307,50.6538318 Z M74.2436533,45.6658411 L68.3447889,45.6658411 L71.2942211,38.9565047 L74.2436533,45.6658411 Z M84.4787688,50.6538318 L84.4787688,38.6630935 L89.166608,38.6630935 L89.166608,36.9613084 L77.857196,36.9613084 L77.857196,38.6630935 L82.5450352,38.6630935 L82.5450352,50.6538318 L84.4787688,50.6538318 Z M90.5534271,50.6538318 L92.0574422,47.2307009 L99.323593,47.2307009 L100.827608,50.6538318 L102.878538,50.6538318 L96.6671508,36.9613084 L94.7334171,36.9613084 L88.5415628,50.6538318 L90.5534271,50.6538318 Z M98.6399497,45.6658411 L92.7410854,45.6658411 L95.6905176,38.9565047 L98.6399497,45.6658411 Z M114.26608,50.6538318 L114.26608,48.9520467 L106.863201,48.9520467 L106.863201,36.9613084 L104.909935,36.9613084 L104.909935,50.6538318 L114.26608,50.6538318 Z M122.430734,50.8103178 C126.591191,50.8103178 129.677352,47.8370841 129.677352,43.8075701 C129.677352,39.7780561 126.591191,36.8048224 122.430734,36.8048224 C118.231211,36.8048224 115.14505,39.7976168 115.14505,43.8075701 C115.14505,47.8175234 118.231211,50.8103178 122.430734,50.8103178 Z M122.430734,49.0694112 C119.364106,49.0694112 117.098317,46.839486 117.098317,43.8075701 C117.098317,40.7756542 119.364106,38.545729 122.430734,38.545729 C125.458296,38.545729 127.724085,40.7756542 127.724085,43.8075701 C127.724085,46.839486 125.458296,49.0694112 122.430734,49.0694112 Z M138.838171,50.8103178 C140.752372,50.8103178 142.64704,50.2234953 144.014327,49.0694112 L144.014327,43.7293271 L142.139191,43.7293271 L142.139191,48.1891776 C141.162558,48.8151215 140.088261,49.0694112 138.935834,49.0694112 C135.791075,49.0694112 133.505754,46.8199252 133.505754,43.8075701 C133.505754,40.7560935 135.791075,38.545729 138.955367,38.545729 C140.498447,38.545729 141.787603,39.0347477 142.920497,40.1301495 L144.131523,38.9173832 C142.881432,37.5285701 141.045362,36.8048224 138.877236,36.8048224 C134.638648,36.8048224 131.552487,39.7584953 131.552487,43.8075701 C131.552487,47.8566449 134.638648,50.8103178 138.838171,50.8103178 Z" id="BROWSEOURCATALOG" transform="translate(72.065761, 25.405159) rotate(-360.000000) translate(-72.065761, -25.405159) "></path>
                </g>
                <g id="10_illustration/boy/grey-line" transform="translate(0.000000, 60.381976)" stroke="#979797" stroke-width="0.85">
                    <path d="M386.080367,63.1894758 C369.072594,46.947164 349.565971,33.3059334 328.196869,22.9030697 C298.05693,8.23040478 264.21186,0 228.447236,0 C102.279312,0 0,102.42637 0,228.775701 C0,355.125032 102.279312,457.551402 228.447236,457.551402 C354.615161,457.551402 456.894472,355.125032 456.894472,228.775701 C456.894472,203.30262 452.737235,178.801911 445.065137,155.916873" id="Path"></path>
                </g>
                <g id="10_illustration/search/boy/question-big" transform="translate(291.540457, 0.000000)" fill="#243D48" fill-rule="nonzero">
                    <path d="M37.7865617,112.7763 C38.8608433,112.7763 39.397984,112.171147 39.397984,110.960843 C39.397984,110.153973 39.3308414,109.548821 39.1965562,109.145386 C37.5851339,103.900734 36.7794228,100.202581 36.7794228,98.0509292 C36.7794228,91.8649288 41.6808323,84.5358631 51.4836513,76.0637322 C59.675048,69.0708622 64.6436001,64.6666989 66.3893076,62.8512422 C68.1350151,61.0357856 69.9478652,58.5815572 71.8278579,55.488557 C75.4535581,49.4370349 77.2664082,42.7803606 77.2664082,35.518534 C77.2664082,26.1050552 74.0771348,18.5406525 67.6985882,12.8253261 C61.3200416,7.10999967 52.8936458,4.25233645 42.4194008,4.25233645 C32.8851522,4.25233645 25.1301824,6.8746627 19.1544913,12.1193152 C13.1788003,17.3639677 10.1909548,24.0878811 10.1909548,32.2910556 C10.1909548,36.8633167 11.3995215,40.5278496 13.816655,43.2846541 C16.2337884,46.0414586 19.5237756,47.4198608 23.6866166,47.4198608 C30.6694465,47.4198608 34.1608615,44.1923824 34.1608615,37.7374255 C34.1608615,31.5514251 31.1394447,28.4584249 25.0966111,28.4584249 C21.4709109,28.4584249 18.9866348,29.7359685 17.6437829,32.2910556 C16.972357,33.3668817 16.5695014,34.0392731 16.4352162,34.3082296 C16.0323606,34.3082296 15.8309328,33.5685991 15.8309328,32.0893382 C15.8309328,25.499903 17.9123533,20.0199135 22.0751943,15.6493698 C26.2380352,11.278826 31.4080151,9.09355414 37.5851339,9.09355414 C44.2993935,9.09355414 49.6036586,11.2115869 53.4979292,15.4476524 C57.3921997,19.6837178 59.339335,25.499903 59.339335,32.8962078 C59.339335,40.9649039 55.0422089,50.512861 46.4479566,61.5400791 C40.6736933,68.9363839 36.7122802,75.0215256 34.5637171,79.7955041 C32.415154,84.5694827 31.3408725,89.6460374 31.3408725,95.0251681 C31.3408725,99.0595162 32.0458698,103.026625 33.4558643,106.926495 C34.8658588,110.826365 36.3094246,112.7763 37.7865617,112.7763 Z M37.7865617,148.076845 C40.8751211,148.076845 43.4601111,147.001019 45.5415316,144.849367 C47.622952,142.697715 48.6636623,140.142627 48.6636623,137.184106 C48.6636623,134.225584 47.622952,131.670496 45.5415316,129.518844 C43.4601111,127.367192 40.9422637,126.291366 37.9879895,126.291366 C34.8994301,126.291366 32.2808689,127.333572 30.1323058,129.417985 C27.9837427,131.502399 26.9094612,134.091105 26.9094612,137.184106 C26.9094612,140.142627 27.9837427,142.697715 30.1323058,144.849367 C32.2808689,147.001019 34.8322875,148.076845 37.7865617,148.076845 Z" id="?" transform="translate(43.728681, 76.164591) rotate(8.000000) translate(-43.728681, -76.164591) "></path>
                </g>
                <g id="10_illustration/boy" transform="translate(74.733668, 119.914686)">
                    <g id="Group-2">
                        <path d="M115.446044,9.41803474 C115.446044,9.41803474 119.836131,-0.607723499 129.047348,0.135605029 C138.258566,0.878933558 140.146725,8.36728021 140.146725,8.36728021 C140.146725,8.36728021 142.629912,6.7980311 149.133051,10.2164246 C153.237337,12.3775835 154.652285,22.7979482 149.817099,23.0044284 C149.817099,23.0044284 154.652285,26.1888111 152.37525,31.1168039 C150.093529,36.0356199 137.818152,33.218313 137.818152,33.218313 L115.446044,9.41803474 Z" id="Fill-1122" fill="#3C1506" transform="translate(134.215451, 17.058823) scale(-1, 1) translate(-134.215451, -17.058823) "></path>
                        <path d="M155.798875,25.7238927 C161.764643,42.7391854 170.745567,56.579844 155.785044,63.2787414 C151.746394,65.0874904 148.851107,65.5769714 147.329698,65.6981762 C146.486007,65.7681021 145.766796,66.3181855 145.5455,67.0966934 C145.12596,68.5791217 144.43441,75.6416336 146.232439,78.3500952 C146.232439,78.3500952 140.451084,85.0163606 122.68748,76.2802897 C122.68748,76.2802897 125.426017,61.2275829 124.35642,55.008843 C123.010203,47.2191022 111.129381,23.60747 119.082202,18.4749119 C126.366524,13.7758941 142.078531,-2.02735037 152.94508,18.9783781 C153.940912,20.9036701 154.89525,23.1412976 155.798875,25.7238927" id="Fill-1124" fill="#FEC191" transform="translate(140.166727, 44.565742) scale(-1, 1) translate(-140.166727, -44.565742) "></path>
                        <path d="M154.491323,6.77239235 C154.491323,6.77239235 140.813774,-0.584679874 130.387569,7.71065405 C123.881692,12.8911577 127.648007,27.542051 129.155466,28.8523314 C129.155466,28.8523314 122.420904,31.9671617 122.784934,37.3761484 C123.148964,42.7804721 128.646757,48.874908 139.857028,53.2580524 C139.857028,53.2580524 146.899616,54.1253555 143.03996,43.890247 C139.180304,33.6551385 145.051462,29.6403648 149.452496,34.7602505 C151.65068,37.3201933 151.762689,41.4468772 152.378741,43.5312022 C152.999459,45.6155272 155.781025,44.1420447 155.781025,44.1420447 C155.781025,44.1420447 149.419827,27.4534555 156.593093,24.5344679 C163.771026,21.6154802 174.043218,22.902446 174.043218,22.902446 L163.659017,5.78486826 L154.491323,6.77239235 Z" id="Fill-1126" fill="#3C1506" transform="translate(148.406954, 28.520040) scale(-1, 1) translate(-148.406954, -28.520040) "></path>
                        <path d="M134.48796,42.5216208 L136.139864,49.161962 C136.139864,49.161962 151.526432,59.2556545 143.178002,66.8165779 C134.834252,74.3775012 108.342962,73.8728166 108.108981,58.9799472 C107.875001,44.0870778 107.205816,34.0214233 107.205816,34.0214233 C107.205816,34.0214233 109.835758,43.1150926 113.757274,46.7787291 C117.67879,50.4423656 120.023276,38.7645242 134.48796,42.5216208" id="Fill-1128" fill="#3C1506" transform="translate(126.433014, 52.817818) scale(-1, 1) translate(-126.433014, -52.817818) "></path>
                        <path d="M127.272273,47.4051366 C127.773229,48.7445439 125.755492,50.4104551 122.763674,51.1228268 C119.776496,51.8314884 116.937748,51.3231814 116.436793,49.9800638 C115.940476,48.6406564 117.953575,46.9747453 120.95003,46.2623735 C123.937209,45.5500017 126.771318,46.0620189 127.272273,47.4051366" id="Fill-1130" fill="#FEC191" transform="translate(121.855110, 48.691780) scale(-1, 1) translate(-121.855110, -48.691780) "></path>
                        <path d="M138.297632,191.727757 C138.297632,191.727757 183.986558,254.159029 176.973558,301.804191 C169.9652,349.449354 150.620275,407.813865 150.620275,407.813865 C150.620275,407.813865 135.410745,415.223168 134.129747,393.501282 C133.544944,383.654708 135.879516,317.5095 128.671582,301.845973 C122.025245,287.39876 79.7383902,192.530896 79.7383902,192.530896 L138.297632,191.727757 Z" id="Fill-1136" fill="#243D48" transform="translate(128.721966, 300.380086) scale(-1, 1) translate(-128.721966, -300.380086) "></path>
                        <path d="M204.000744,318.844566 C145.695918,304.166854 108.834101,245.232488 123.092454,239.262682 C133.744608,234.801627 199.423647,289.959463 213.228912,267.09073 C227.034178,244.221998 237.482906,192.533355 237.482906,192.533355 L295.815472,191.727757 C295.815472,191.727757 267.571544,334.849419 204.000744,318.844566" id="Fill-1138" fill="#243D48" transform="translate(207.919710, 255.910567) scale(-1, 1) translate(-207.919710, -255.910567) "></path>
                        <path d="M39.5039205,89.0352607 C39.5039205,89.0352607 46.4778382,100.687348 63.4105472,113.666711 C79.5233371,126.003394 120.625231,129.691824 120.625231,129.691824 L121.85511,141.693194 C121.85511,141.693194 74.5669729,154.081105 47.9518499,140.268119 C31.6824462,131.82478 31.2126049,127.344641 31.2126049,127.344641 L39.5039205,89.0352607 Z" id="Fill-1140" fill="#FDCB5B" transform="translate(76.533857, 117.917525) scale(-1, 1) translate(-76.533857, -117.917525) "></path>
                        <path d="M216.220518,78.1369298 C216.220518,78.1369298 226.406259,76.8005136 242.142397,82.979692 C257.883156,89.1588704 251.574836,129.609905 243.736807,147.798202 C235.898778,165.991156 237.088787,196.852732 237.088787,196.852732 L172.33086,201.548989 C172.33086,201.548989 164.65867,171.220408 159.297754,150.382561 C153.932216,129.540057 138.122134,122.434235 129.013198,133.046403 C119.904262,143.663228 131.476447,192.635662 131.476447,192.635662 L121.387757,194.512232 C121.387757,194.512232 85.2293007,140.254669 108.743389,100.68837 C132.257477,61.1220708 197.156914,74.8261567 197.156914,74.8261567 C197.156914,74.8261567 205.290719,82.4907593 216.220518,78.1369298 Z" id="Fill-1142" fill="#FDCB5B" transform="translate(176.332170, 137.040049) scale(-1, 1) translate(-176.332170, -137.040049) "></path>
                        <path d="M0.677265377,129.980179 C0.677265377,129.980179 14.5139224,114.630075 13.4484714,118.501012 C12.3924911,122.376723 7.47247513,129.760619 11.5448656,128.352571 C15.6172562,126.944524 32.5413535,122.176255 31.2201942,124.009103 C29.9748004,125.732171 17.4403612,129.288088 19.2776723,129.755846 C21.1055127,130.214058 35.7755892,130.514759 32.1483204,131.545737 C28.525787,132.581487 16.7868846,133.201982 19.5191745,134.471611 C22.3130238,135.774652 33.1238,138.070485 29.4207659,138.418917 C25.2536686,138.810307 17.2083297,138.414144 18.9461986,139.540582 C20.6888029,140.66702 29.0892922,142.714655 25.1826385,142.62874 C21.2807202,142.547599 0.975591659,142.375769 0.975591659,142.375769 L0.677265377,129.980179 Z" id="Fill-1144" fill="#FEC191" transform="translate(16.699930, 130.253247) scale(-1, 1) translate(-16.699930, -130.253247) "></path>
                        <path d="M83.9787785,424.489201 C93.5250064,424.618248 138.110803,427.899733 126.282481,422.143308 C114.454158,416.382274 102.740629,412.805824 103.24572,411.026817 C103.759995,409.24781 118.949472,400.887398 115.588318,399.947197 C112.222572,399.006996 97.0193206,406.316596 91.6699433,405.182824 C86.320566,404.039835 84.3461178,401.984299 83.9925538,403.860091 C83.634398,405.735884 83.987962,408.73623 83.987962,408.73623 C83.987962,408.73623 74.4325507,424.360154 83.9787785,424.489201 Z" id="Fill-1146" fill="#E67962" transform="translate(104.001283, 412.700004) scale(-1, 1) translate(-104.001283, -412.700004) "></path>
                        <path d="M104.649514,413.173123 L102.437471,415.894474 L104.649514,413.173123 Z" id="Fill-1148" fill="#FCA397" transform="translate(103.543492, 414.533799) scale(-1, 1) translate(-103.543492, -414.533799) "></path>
                        <polygon id="Fill-1150" fill="#FCA397" transform="translate(103.543492, 414.533799) scale(-1, 1) translate(-103.543492, -414.533799) " points="102.78356 416.176879 102.091381 415.61207 104.299762 412.890719 104.995604 413.455527"></polygon>
                        <path d="M100.987191,415.006918 L98.7751473,417.728269 L100.987191,415.006918 Z" id="Fill-1152" fill="#FCA397" transform="translate(99.881169, 416.367593) scale(-1, 1) translate(-99.881169, -416.367593) "></path>
                        <polygon id="Fill-1154" fill="#FCA397" transform="translate(99.881169, 416.367593) scale(-1, 1) translate(-99.881169, -416.367593) " points="99.1212369 418.010673 98.4290578 417.445864 100.637439 414.724513 101.33328 415.289322"></polygon>
                        <path d="M98.2404481,416.840712 L96.0284048,419.562063 L98.2404481,416.840712 Z" id="Fill-1156" fill="#FCA397" transform="translate(97.134426, 418.201388) scale(-1, 1) translate(-97.134426, -418.201388) "></path>
                        <polygon id="Fill-1158" fill="#FCA397" transform="translate(97.134426, 418.201388) scale(-1, 1) translate(-97.134426, -418.201388) " points="96.3744943 419.844468 95.6823152 419.279659 97.8906962 416.558308 98.5865377 417.123117"></polygon>
                        <path d="M95.4937056,417.757609 L93.2816622,420.478961 L95.4937056,417.757609 Z" id="Fill-1160" fill="#FCA397" transform="translate(94.387684, 419.118285) scale(-1, 1) translate(-94.387684, -419.118285) "></path>
                        <polygon id="Fill-1162" fill="#FCA397" transform="translate(94.387684, 419.118285) scale(-1, 1) translate(-94.387684, -419.118285) " points="93.6259206 420.761365 92.9374038 420.196556 95.1457848 417.475205 95.837964 418.040014"></polygon>
                        <path d="M312.713873,237.912945 C312.713873,237.912945 301.500303,223.265637 297.914002,232.219088 C294.327701,241.167903 275.087869,282.012518 284.784336,272.943149 C294.480803,263.873781 302.094153,254.118182 303.57878,255.240261 C305.063407,256.362341 307.415612,273.69893 309.521926,270.865911 C311.6236,268.03753 310.268878,251.067239 313.270608,246.435184 C316.276977,241.80313 318.926107,240.690324 317.288378,239.674888 C315.659929,238.664089 312.713873,237.912945 312.713873,237.912945" id="Fill-1164" fill="#E67962" transform="translate(299.935586, 251.784530) scale(-1, 1) translate(-299.935586, -251.784530) "></path>
                        <path d="M300.351259,256.51572 L298.604331,253.471621 L300.351259,256.51572 Z" id="Fill-1166" fill="#FCA397" transform="translate(299.477795, 254.993670) scale(-1, 1) translate(-299.477795, -254.993670) "></path>
                        <polygon id="Fill-1168" fill="#FCA397" transform="translate(299.477795, 254.993670) scale(-1, 1) translate(-299.477795, -254.993670) " points="299.964884 256.737609 298.217956 253.69351 298.990706 253.249732 300.737634 256.293831"></polygon>
                        <path d="M304.013583,258.349514 L302.266655,255.305415 L304.013583,258.349514 Z" id="Fill-1170" fill="#FCA397" transform="translate(303.140119, 256.827465) scale(-1, 1) translate(-303.140119, -256.827465) "></path>
                        <polygon id="Fill-1172" fill="#FCA397" transform="translate(303.140119, 256.827465) scale(-1, 1) translate(-303.140119, -256.827465) " points="303.623545 258.571403 301.880279 255.530972 302.65303 255.083526 304.399958 258.127625"></polygon>
                        <path d="M305.844745,261.100206 L304.097816,258.056107 L305.844745,261.100206 Z" id="Fill-1174" fill="#FCA397" transform="translate(304.971280, 259.578157) scale(-1, 1) translate(-304.971280, -259.578157) "></path>
                        <polygon id="Fill-1176" fill="#FCA397" transform="translate(304.971280, 259.578157) scale(-1, 1) translate(-304.971280, -259.578157) " points="305.456538 261.322095 303.70961 258.277996 304.486023 257.834218 306.232951 260.878317"></polygon>
                        <path d="M308.589656,263.850898 L306.84639,260.806799 L308.589656,263.850898 Z" id="Fill-1178" fill="#FCA397" transform="translate(307.718023, 262.328848) scale(-1, 1) translate(-307.718023, -262.328848) "></path>
                        <polygon id="Fill-1180" fill="#FCA397" transform="translate(307.718023, 262.328848) scale(-1, 1) translate(-307.718023, -262.328848) " points="308.203281 264.074621 306.456353 261.030522 307.232765 260.583076 308.979693 263.627175"></polygon>
                        <path d="M221.699376,191.727757 C221.699376,191.727757 235.560349,203.475877 233.308583,203.660657 C231.056817,203.845437 226.969068,202.654092 225.885231,202.454724 C224.806065,202.250493 228.60884,215.219134 224.98359,214.630755 C221.367684,214.042377 210.683476,208.639992 209.898628,205.226424 C209.113781,201.817719 211.711253,193.142783 211.711253,193.142783 L221.699376,191.727757 Z" id="Fill-1208" fill="#FEC191" transform="translate(221.653423, 203.188973) scale(-1, 1) translate(-221.653423, -203.188973) "></path>
                    </g>
                </g>
            </g>
        </g>
    </g>
</svg>
