<svg xmlns="http://www.w3.org/2000/svg" width="45" height="45" viewBox="0 0 45 45">
    <g fill="none">
        <path fill="#FDCB5B" d="M27.82 5.5H8.86C7.832 5.5 7 6.322 7 7.337v32.326c0 1.015.832 1.837 1.859 1.837H36V13.582L27.82 5.5z" transform="translate(4.434 1.536)"/>
        <path fill="#37474F" d="M27.633 41.76H7.208c-.812 0-1.472-.663-1.472-1.48V15.87c0-.204-.165-.37-.368-.37-.203 0-.368.166-.368.37v24.41c0 1.224.99 2.22 2.208 2.22h20.424c.203 0 .368-.166.368-.37s-.164-.37-.367-.37zM6.5 10.5c-.276 0-.5.112-.5.25v1.5c0 .138.224.25.5.25s.5-.112.5-.25v-1.5c0-.138-.223-.25-.5-.25zM35.89 12.854l-8.25-8.245c-.07-.07-.165-.109-.264-.109H8.25C7.01 4.5 6 5.509 6 6.748v1.5c0 .206.168.374.375.374s.375-.168.375-.375V6.748c0-.826.673-1.499 1.5-1.499h18.97l8.03 8.025v12.851c0 .207.168.375.375.375s.375-.168.375-.375V13.12c0-.1-.039-.195-.11-.265z" transform="translate(4.434 1.536)"/>
        <path fill="#37474F" d="M27.75.5H2.25C1.01.5 0 1.496 0 2.72v32.56c0 1.224 1.01 2.22 2.25 2.22h1.125c.207 0 .375-.166.375-.37s-.168-.37-.375-.37H2.25c-.827 0-1.5-.664-1.5-1.48V2.72c0-.816.673-1.48 1.5-1.48h25.5c.827 0 1.5.664 1.5 1.48v4.197c0 .205.168.37.375.37s.375-.165.375-.37V2.72C30 1.496 28.99.5 27.75.5z" transform="translate(4.434 1.536)"/>
        <path fill="#FFF" d="M28 5.5v6.182c0 1.004.814 1.818 1.818 1.818H36l-8-8z" transform="translate(4.434 1.536)"/>
        <path fill="#37474F" d="M35.902 12.93L28.57 5.598c-.096-.095-.239-.123-.364-.072-.124.052-.205.174-.205.308V11.5c0 1.103.897 2 2 2h5.667c.134 0 .257-.081.308-.206.051-.125.023-.268-.073-.363zM30 12.834c-.735 0-1.333-.598-1.333-1.333V6.638l6.195 6.195H30zM31.617 17.5H9.383c-.211 0-.383.224-.383.5s.172.5.383.5h22.234c.211 0 .383-.224.383-.5s-.172-.5-.383-.5zM31.617 19.5H9.383c-.211 0-.383.224-.383.5s.172.5.383.5h22.234c.211 0 .383-.224.383-.5s-.172-.5-.383-.5zM31.617 24.5H9.383c-.211 0-.383.224-.383.5s.172.5.383.5h22.234c.211 0 .383-.224.383-.5s-.172-.5-.383-.5zM24.625 28.5h-14.25c-.207 0-.375.224-.375.5s.168.5.375.5h14.25c.207 0 .375-.224.375-.5s-.168-.5-.375-.5zM17.667 33.5h-7.334c-.184 0-.333.224-.333.5s.15.5.333.5h7.334c.184 0 .333-.224.333-.5s-.149-.5-.333-.5z" transform="translate(4.434 1.536)"/>
        <path fill="#53B9C9" d="M9 10H19V14H9z" transform="translate(4.434 1.536)"/>
        <path fill="#37474F" d="M18.643 9.5H9.357C9.16 9.5 9 9.724 9 10v4c0 .276.16.5.357.5h9.286c.197 0 .357-.224.357-.5v-4c0-.276-.16-.5-.357-.5zm-.357 4H9.714v-3h8.572v3z" transform="translate(4.434 1.536)"/>
    </g>
</svg>
