<svg xmlns="http://www.w3.org/2000/svg" width="42" height="42" viewBox="0 0 42 42">
    <g fill="none" transform="translate(1 7)">
        <path fill="#53B9C9" d="M11.997 16.586c-.074-.024-.147-.047-.222-.069L9.982 16c-.936 1.2-2.807 1.2-3.743 0l-1.792.517C1.807 17.28 0 19.614 0 22.264V25h9.67v-3.192c0-2.018.86-3.886 2.33-5.221l-.003-.001zM35.553 16.517L33.761 16c-.936 1.2-2.807 1.2-3.743 0l-1.793.517c-.075.022-.149.045-.222.069H28c1.47 1.336 2.33 3.203 2.33 5.222V25H40v-2.736c0-2.65-1.807-4.985-4.447-5.747z"/>
        <path fill="#37474F" d="M14.5 11c-.276 0-.5.146-.5.326v3.348c0 .18.224.326.5.326s.5-.146.5-.326v-3.348c0-.18-.224-.326-.5-.326zM11.8 16.626c-.074-.026-.148-.05-.223-.075l-1.704-.538c-.118-.038-.248.008-.322.112-.368.516-.93.813-1.543.813-.613 0-1.174-.297-1.542-.813-.074-.104-.203-.15-.322-.112l-1.705.538C1.784 17.391 0 19.917 0 22.837v2.85c0 .173.133.313.297.313.163 0 .296-.14.296-.313v-2.85c0-2.642 1.614-4.928 4.016-5.688l1.515-.478c.478.569 1.154.891 1.884.891s1.407-.322 1.884-.89l1.515.478c.067.02.134.044.2.068.157.054.324-.032.377-.195.053-.164-.03-.342-.185-.397z"/>
        <circle cx="10.5" cy="8.5" r="1" fill="#37474F"/>
        <circle cx="6.5" cy="8.5" r="1" fill="#37474F"/>
        <path fill="#37474F" d="M3.5 23c-.276 0-.5.134-.5.3v2.4c0 .166.224.3.5.3s.5-.134.5-.3v-2.4c0-.166-.224-.3-.5-.3zM13.873 9.642c-.135-.093-.318-.06-.41.077-.166.244-.439.39-.73.39-.162 0-.294.133-.294.298v.3c0 1.485-1.191 2.694-2.655 2.694h-2.36c-1.463 0-2.654-1.209-2.654-2.694v-.3c0-.165-.132-.299-.295-.299-.488 0-.885-.403-.885-.898s.397-.898.885-.898c.163 0 .295-.134.295-.3V6.3c0-.165-.132-.299-.295-.299-.163 0-.295.134-.295.3v1.443C3.507 7.882 3 8.487 3 9.21c0 .723.507 1.328 1.18 1.467v.03C4.18 12.522 5.635 14 7.424 14h2.36c1.789 0 3.244-1.478 3.244-3.293v-.03c.37-.077.701-.296.92-.618.092-.137.059-.323-.075-.417z"/>
        <path fill="#37474F" d="M9.714 10H6.286c-.158 0-.286.112-.286.25 0 .965.897 1.75 2 1.75s2-.785 2-1.75c0-.138-.128-.25-.286-.25zM8 11.5c-.69 0-1.267-.43-1.4-1h2.8c-.133.57-.71 1-1.4 1zM35.561 16.551l-1.705-.538c-.118-.038-.247.008-.322.112-.367.516-.93.813-1.542.813-.613 0-1.174-.297-1.542-.813-.074-.104-.203-.15-.322-.112l-1.706.538c-.074.024-.148.049-.221.075-.155.055-.238.233-.185.397.053.164.222.25.376.195.066-.024.133-.047.2-.068l1.515-.479c.479.569 1.155.891 1.885.891s1.406-.322 1.884-.89l1.515.478c2.402.76 4.016 3.045 4.016 5.687v2.85c0 .173.133.313.296.313.164 0 .297-.14.297-.313v-2.85c0-2.92-1.784-5.446-4.439-6.286z"/>
        <circle cx="33.5" cy="8.5" r="1" fill="#37474F"/>
        <circle cx="29.5" cy="8.5" r="1" fill="#37474F"/>
        <path fill="#37474F" d="M36.5 23c-.276 0-.5.134-.5.3v2.4c0 .166.224.3.5.3s.5-.134.5-.3v-2.4c0-.166-.224-.3-.5-.3zM35.525 8c-.163 0-.295.128-.295.286 0 .157.132.285.295.285.487 0 .884.385.884.858 0 .472-.397.857-.884.857-.163 0-.295.128-.295.285v.286c0 1.418-1.192 2.572-2.655 2.572h-2.36c-1.464 0-2.655-1.154-2.655-2.572v-.286c0-.157-.132-.285-.295-.285-.29 0-.562-.138-.728-.37-.093-.13-.276-.16-.41-.071-.134.09-.167.268-.074.397.219.305.55.513.918.586v.03c0 1.732 1.455 3.142 3.245 3.142h2.36c1.789 0 3.244-1.41 3.244-3.143v-.028c.673-.133 1.18-.71 1.18-1.4C37 8.64 36.337 8 35.525 8z"/>
        <path fill="#37474F" d="M33.667 10h-3.334c-.184 0-.333.128-.333.286 0 .945.897 1.714 2 1.714s2-.77 2-1.714c0-.158-.15-.286-.333-.286zM32 11.429c-.62 0-1.143-.366-1.291-.858h2.582c-.148.492-.671.858-1.291.858z"/>
        <path fill="#53B9C9" d="M29 28v-5.292c0-2.273-1.3-4.35-3.356-5.366L22.929 16c-.935 2.08-3.923 2.08-4.858 0l-2.715 1.342C13.3 18.358 12 20.435 12 22.708V28"/>
        <path fill="#37474F" d="M26.398 16.417l-2.776-1.384c-.076-.038-.164-.042-.244-.014-.08.028-.144.088-.179.166-.392.878-1.234 1.425-2.199 1.425-.965 0-1.807-.547-2.2-1.426-.034-.077-.098-.137-.178-.166-.079-.028-.167-.023-.244.014l-2.776 1.384C13.38 17.525 12 19.753 12 22.23v5.46c0 .17.139.31.31.31.172 0 .31-.14.31-.31v-5.46c0-2.242 1.25-4.257 3.26-5.26l2.5-1.247c.539.937 1.516 1.506 2.62 1.506s2.081-.57 2.62-1.505l2.5 1.247c2.01 1.003 3.26 3.018 3.26 5.26v5.46c0 .17.138.309.31.309.171 0 .31-.139.31-.31v-5.46c0-2.477-1.38-4.705-3.602-5.813z"/>
        <circle cx="22.5" cy="6.5" r="1" fill="#37474F"/>
        <circle cx="17.5" cy="6.5" r="1" fill="#37474F"/>
        <path fill="#D44A6F" d="M24 2v3.333C24 6.254 24.895 7 26 7V3.667C26 2.747 25.105 2 24 2z"/>
        <path fill="#37474F" d="M24.286 2c-.158 0-.286.132-.286.294v2.941C24 6.208 24.77 7 25.714 7c.158 0 .286-.132.286-.294V3.765C26 2.792 25.23 2 24.286 2zm1.143 4.375c-.493-.131-.858-.592-.858-1.14v-2.61c.493.131.858.592.858 1.14v2.61z"/>
        <path fill="#D44A6F" d="M21.715 0h-3.906C15.153 0 13 1.866 13 4.167V5l3.22-.254c2.46-.194 4.74-1.2 6.367-2.812l.093-.092c.726-.718.137-1.842-.965-1.842z"/>
        <path fill="#37474F" d="M22.863.88C22.615.337 22.09 0 21.49 0h-3.67C15.161 0 13 2.153 13 4.8v.9c0 .085.036.164.098.221.056.051.129.079.203.079l.027-.001 3.026-.274c2.4-.217 4.596-1.332 6.183-3.137l.088-.1c.394-.45.485-1.065.238-1.608zm-.691 1.212l-.088.1c-1.485 1.69-3.539 2.732-5.785 2.936l-2.696.243V4.8c0-2.315 1.891-4.2 4.217-4.2h3.67c.365 0 .673.197.824.529.15.33.098.69-.142.963zM34.286 3c-.158 0-.286.132-.286.294v2.941C34 7.208 34.77 8 35.714 8c.158 0 .286-.132.286-.294V4.765C36 3.792 35.23 3 34.286 3zm1.143 4.375c-.493-.131-.858-.592-.858-1.14v-2.61c.493.131.858.592.858 1.14v2.61z"/>
        <path fill="#37474F" d="M34.873 3.715C34.657 3.274 34.207 3 33.701 3h-3.135C28.6 3 27 4.543 27 6.438v1.25c0 .091.042.18.116.239.06.047.132.073.208.073.019 0 .038-.002.057-.005l3.202-.544c1.566-.267 2.982-1.066 3.989-2.253l.133-.157c.32-.377.385-.885.168-1.326zm-.67.931l-.133.157c-.91 1.07-2.187 1.792-3.6 2.033l-2.822.479v-.878c0-1.55 1.31-2.812 2.918-2.812h3.135c.257 0 .476.134.586.357.11.224.079.472-.084.664zM25.452 6.36c-.17 0-.31.143-.31.318 0 .176.14.319.31.319.512 0 .929.428.929.955 0 .526-.417.955-.929.955-.17 0-.31.142-.31.318 0 2.282-1.804 4.138-4.023 4.138h-1.238c-2.219 0-4.024-1.856-4.024-4.138 0-.176-.139-.318-.31-.318-.511 0-.928-.429-.928-.955 0-.527.417-.955.929-.955.17 0 .31-.143.31-.319v-1.36c0-.175-.14-.318-.31-.318-.171 0-.31.143-.31.318v1.074c-.706.147-1.238.791-1.238 1.56 0 .771.537 1.417 1.247 1.56.145 2.5 2.168 4.488 4.634 4.488h1.238c2.466 0 4.49-1.988 4.634-4.487.71-.145 1.247-.79 1.247-1.561 0-.878-.695-1.592-1.548-1.592zM12.872 6.441l-.058-.04c-.04-.028-.08-.054-.117-.088L11.3 5.073c-.1-.088-.246-.098-.357-.022l-1.023.705c-.898.62-2.058.62-2.956 0l-1.022-.705c-.11-.076-.256-.065-.357.022l-1.399 1.24-.073.063c-.128.104-.15.297-.048.43.1.132.287.155.416.05L5.799 5.69l.836.576c1.097.757 2.515.757 3.613 0l.836-.576 1.228 1.088c.055.05.115.09.174.133l.05.034c.051.038.11.055.168.055.094 0 .186-.046.244-.132.093-.14.058-.331-.076-.427z"/>
        <path fill="#37474F" d="M12.914 2.617C11.977 1.574 10.72 1 9.376 1H6.917C4.206 1 2 3.367 2 6.275V16.67c0 .182.138.33.307.33.17 0 .308-.148.308-.33V6.275c0-2.544 1.93-4.616 4.302-4.616h2.459c1.176 0 2.275.503 3.095 1.416.118.132.313.134.435.009.122-.128.126-.337.008-.467zM22.714 9h-3.428c-.158 0-.286.112-.286.25 0 .965.897 1.75 2 1.75s2-.785 2-1.75c0-.138-.128-.25-.286-.25zM21 10.5c-.69 0-1.267-.43-1.4-1h2.8c-.133.57-.71 1-1.4 1zM14.5 23c-.276 0-.5.132-.5.294v4.412c0 .162.224.294.5.294s.5-.132.5-.294v-4.412c0-.162-.224-.294-.5-.294zM25.5 23c-.276 0-.5.132-.5.294v4.412c0 .162.224.294.5.294s.5-.132.5-.294v-4.412c0-.162-.224-.294-.5-.294z"/>
    </g>
</svg>
