<?xml version="1.0" encoding="UTF-8"?>
<svg   viewBox="0 0 454 555" version="1.1" xmlns="http://www.w3.org/2000/svg" xmlns:xlink="http://www.w3.org/1999/xlink">
    <!-- Generator: sketchtool 63.1 (101010) - https://sketch.com -->
    <title>E7A8FB42-5A33-4941-ADEA-97C7B4456FE5</title>
    <desc>Created with sketchtool.</desc>
    <g id="breackpoints" stroke="none" stroke-width="1" fill="none" fill-rule="evenodd">
        <g id="Search_768" transform="translate(-173.000000, -118.000000)">
            <g id="illustration/girl/all" transform="translate(173.000000, 118.000000)">
                <g id="10_illustration/girl/grey-line" transform="translate(0.000000, 61.114726)" stroke="#979797" stroke-width="0.85">
                    <path d="M71.7432773,44.4582448 C27.5862366,85.859992 0,144.714865 0,210.010848 C0,335.340581 101.631362,436.940404 227,436.940404 C352.368638,436.940404 454,335.340581 454,210.010848 C454,115.171629 395.803689,33.9206681 313.163574,0" id="Path"></path>
                </g>
                <g id="illustration/girl/text-query" transform="translate(31.456929, 0.000000)" fill="#677B8F" fill-rule="nonzero">
                    <path d="M85.5282948,29.7473201 L85.5282948,19.8363629 L90.4755345,28.0857198 L91.3750327,28.0857198 L96.3222724,19.7777182 L96.3418267,29.7473201 L98.2190401,29.7473201 L98.1994858,16.0635528 L96.5960327,16.0635528 L90.9643922,25.6812864 L85.2545345,16.0635528 L83.6510813,16.0635528 L83.6510813,29.7473201 L85.5282948,29.7473201 Z M102.266782,29.7473201 L103.772463,26.3263783 L111.046666,26.3263783 L112.552347,29.7473201 L114.60555,29.7473201 L108.38728,16.0635528 L106.451403,16.0635528 L100.252688,29.7473201 L102.266782,29.7473201 Z M110.362265,24.7625191 L104.456864,24.7625191 L107.409564,18.0574732 L110.362265,24.7625191 Z M118.594628,29.7473201 L118.594628,26.2090888 L121.097579,23.6678178 L126.338134,29.7473201 L128.625988,29.7473201 L122.407718,22.2212481 L128.254456,16.0635528 L126.025265,16.0635528 L118.594628,23.7069142 L118.594628,16.0635528 L116.639197,16.0635528 L116.639197,29.7473201 L118.594628,29.7473201 Z M140.632332,29.7473201 L140.632332,28.0466233 L132.654175,28.0466233 L132.654175,23.6287213 L139.517737,23.6287213 L139.517737,21.967121 L132.654175,21.967121 L132.654175,17.7642496 L140.358572,17.7642496 L140.358572,16.0635528 L130.698744,16.0635528 L130.698744,29.7473201 L140.632332,29.7473201 Z M149.001576,29.7473201 L150.507257,26.3263783 L157.78146,26.3263783 L159.287141,29.7473201 L161.340344,29.7473201 L155.122074,16.0635528 L153.186197,16.0635528 L146.987482,29.7473201 L149.001576,29.7473201 Z M157.097059,24.7625191 L151.191658,24.7625191 L154.144359,18.0574732 L157.097059,24.7625191 Z M68.490542,74.3750995 C69.6127892,74.3750995 70.6483173,74.1609188 71.5971263,73.7325574 C72.5459353,73.304196 73.3774184,72.671853 74.0915757,71.8355283 L74.0915757,71.8355283 L72.2551712,69.6325268 C71.214542,70.7748239 69.9902724,71.3459724 68.5823622,71.3459724 C67.9294184,71.3459724 67.3172836,71.2031853 66.7459578,70.917611 C66.1746319,70.6320368 65.5931038,70.1730781 65.0013735,69.5407351 C66.592924,69.0919755 67.9906319,68.3627412 69.1944971,67.3530322 C70.3983622,66.3433231 71.336969,65.1194334 72.0103173,63.6813629 C72.6836656,62.2432925 73.0203398,60.6777335 73.0203398,58.9846861 C73.0203398,56.8836753 72.5204297,54.9968453 71.5206094,53.324196 C70.5207892,51.6515467 69.1434858,50.3409648 67.3886993,49.3924502 C65.6339128,48.4439357 63.6648791,47.9696784 61.4815982,47.9696784 C59.2983173,47.9696784 57.3292836,48.4439357 55.5744971,49.3924502 C53.8197106,50.3409648 52.4424072,51.6566462 51.442587,53.3394946 C50.4427667,55.022343 49.9428566,56.9040735 49.9428566,58.9846861 C49.9428566,60.9429096 50.3815533,62.7226493 51.2589465,64.3239051 C52.1363398,65.9251608 53.3606094,67.2204441 54.9317555,68.209755 C56.5029016,69.1990658 58.2780926,69.7753139 60.2573285,69.9384992 C61.8284746,71.5703522 63.2261825,72.7177489 64.4504521,73.3806891 C65.6747218,74.0436294 67.0214184,74.3750995 68.490542,74.3750995 Z M61.4815982,66.511608 C60.0532836,66.511608 58.7678004,66.1903369 57.6251488,65.5477948 C56.4824971,64.9052527 55.5846993,64.0077335 54.9317555,62.8552374 C54.2788117,61.7027412 53.9523398,60.4125574 53.9523398,58.9846861 C53.9523398,57.5568147 54.2788117,56.2666309 54.9317555,55.1141348 C55.5846993,53.9616386 56.4824971,53.0641194 57.6251488,52.4215773 C58.7678004,51.7790352 60.0532836,51.4577642 61.4815982,51.4577642 C62.9099128,51.4577642 64.195396,51.7790352 65.3380476,52.4215773 C66.4806993,53.0641194 67.3784971,53.9616386 68.0314409,55.1141348 C68.6843847,56.2666309 69.0108566,57.5568147 69.0108566,58.9846861 C69.0108566,60.4125574 68.6843847,61.7027412 68.0314409,62.8552374 C67.3784971,64.0077335 66.4806993,64.9052527 65.3380476,65.5477948 C64.195396,66.1903369 62.9099128,66.511608 61.4815982,66.511608 Z M86.4566993,69.9996937 C89.415351,69.9996937 91.7159578,69.1684686 93.3585196,67.5060184 C95.0010813,65.8435681 95.8223622,63.4620827 95.8223622,60.361562 L95.8223622,60.361562 L95.8223622,48.2756508 L91.9046993,48.2756508 L91.9046993,60.2085758 C91.9046993,64.4105972 90.0989016,66.511608 86.4873061,66.511608 C82.8553061,66.511608 81.0393061,64.4105972 81.0393061,60.2085758 L81.0393061,60.2085758 L81.0393061,48.2756508 L77.0604297,48.2756508 L77.0604297,60.361562 C77.0604297,63.4620827 77.8868117,65.8435681 79.5395757,67.5060184 C81.1923398,69.1684686 83.4980476,69.9996937 86.4566993,69.9996937 Z M117.461329,69.6937213 L117.461329,66.3586217 L105.371666,66.3586217 L105.371666,60.4533538 L115.716744,60.4533538 L115.716744,57.1794487 L105.371666,57.1794487 L105.371666,51.6107504 L117.032834,51.6107504 L117.032834,48.2756508 L101.392789,48.2756508 L101.392789,69.6937213 L117.461329,69.6937213 Z M125.878182,69.6937213 L125.878182,63.4518836 L130.714048,63.4518836 C131.081329,63.4518836 131.356789,63.4416845 131.54043,63.4212864 L131.54043,63.4212864 L135.917194,69.6937213 L140.202138,69.6937213 L135.274452,62.6563553 C136.743576,62.0852067 137.870924,61.2182848 138.656497,60.0555896 C139.44207,58.8928943 139.834857,57.5058193 139.834857,55.8943645 C139.834857,54.323706 139.467576,52.9672282 138.733014,51.8249311 C137.998452,50.682634 136.94252,49.805513 135.565216,49.1935681 C134.187913,48.5816233 132.570857,48.2756508 130.714048,48.2756508 L130.714048,48.2756508 L121.899306,48.2756508 L121.899306,69.6937213 L125.878182,69.6937213 Z M130.530407,60.1779786 L125.878182,60.1779786 L125.878182,51.6413476 L130.530407,51.6413476 C132.264789,51.6413476 133.580879,52.0085145 134.478677,52.7428484 C135.376475,53.4771822 135.825373,54.5276876 135.825373,55.8943645 C135.825373,57.2610413 135.376475,58.3166462 134.478677,59.0611792 C133.580879,59.8057121 132.264789,60.1779786 130.530407,60.1779786 L130.530407,60.1779786 Z M153.210003,69.6937213 L153.210003,62.1362021 L161.59625,48.2756508 L157.678587,48.2756508 L151.342991,58.7093109 L145.068609,48.2756508 L140.814272,48.2756508 L149.231126,62.1973966 L149.231126,69.6937213 L153.210003,69.6937213 Z" id="MAKEAQUERY"></path>
                </g>
                <g id="10_illustration/girl/girl-with-glass" transform="translate(96.261901, 4.249617)">
                    <g id="10_illustration/girl/glass-all" transform="translate(106.681082, 0.000000)">
                        <g id="10_illustration/girl/text-lines" transform="translate(31.386313, 21.759579)" fill="#E2E6E7">
                            <g id="Group-4">
                                <rect id="Rectangle" x="0.338509235" y="-4.19715309e-13" width="70.5778453" height="6.41417665"></rect>
                                <rect id="Rectangle-Copy-2" x="0.338509235" y="17.409908" width="70.5778453" height="6.41417665"></rect>
                                <rect id="Rectangle-Copy" x="0.338509235" y="9.16310949" width="70.5778453" height="5.4978657"></rect>
                                <path d="M22.199755,-0.45819675 L-0.45819675,-0.45819675 L-0.45819675,6.8723734 L25.501758,6.8723734 L22.199755,-0.45819675 Z" id="Rectangle" stroke="#E2E6E7" stroke-width="0.9163935"></path>
                                <path d="M26.3891667,16.9517113 L-0.45819675,16.9517113 L-0.45819675,24.2822814 L23.8375991,24.2822814 L26.3891667,16.9517113 Z" id="Rectangle-Copy-2" stroke="#E2E6E7" stroke-width="0.9163935"></path>
                                <path d="M26.2027182,8.70491274 L-0.45819675,8.70491274 L-0.45819675,15.1191719 L26.2027182,15.1191719 L26.2027182,8.70491274 Z" id="Rectangle-Copy" stroke="#E2E6E7" stroke-width="0.9163935"></path>
                            </g>
                        </g>
                        <g id="10_illustration/girl/glass">
                            <g id="Group-3">
                                <polygon id="Fill-7" fill="#FDCB5B" transform="translate(63.891393, 53.695008) rotate(-39.000000) translate(-63.891393, -53.695008) " points="68.9333508 62.2750889 64.617364 63.7757773 58.8494359 45.1143397 63.1659761 43.6142382"></polygon>
                                <path d="M41.3365095,54.6965038 C30.2790363,58.3126698 18.3772021,52.3000436 14.7538792,41.2662069 C11.1299668,30.2329585 17.1548834,18.3565657 28.2123566,14.7403997 C39.2692402,11.1242338 51.1710744,17.1368599 54.7949869,28.1706966 C58.419489,39.203945 52.3933931,51.0803378 41.3365095,54.6965038 M27.123296,11.4248945 C14.2308707,15.6417935 7.20533914,29.4886614 11.4306819,42.3529395 C15.6566143,55.2178059 29.5331448,62.2283197 42.4255701,58.012009 C55.3174058,53.79511 62.3429373,39.9482421 58.1175946,27.0833756 C53.8922518,14.2190976 40.0157214,7.20858382 27.123296,11.4248945" id="Fill-8" fill="#243D48" transform="translate(34.774140, 34.718450) rotate(-39.000000) translate(-34.774140, -34.718450) "></path>
                                <path d="M74.9326244,73.2000891 L66.5144657,47.6018476 L73.3448277,45.3685417 L81.7629864,70.9667832 C82.3811364,72.8493269 81.3532425,74.8757909 79.4673174,75.4921997 C77.5813923,76.1091969 75.5507744,75.0832212 74.9326244,73.2000891 Z" id="Fill-10" fill="#243D48" transform="translate(74.228580, 60.520054) rotate(-39.000000) translate(-74.228580, -60.520054) "></path>
                            </g>
                        </g>
                    </g>
                    <g id="10_illustration/search/girl" transform="translate(0.000000, 53.549761)">
                        <g id="Group">
                            <path d="M2.59020713,267.843498 C2.59020713,267.843498 -13.7931248,269.344209 44.0418308,313.873594 C84.1281767,344.73756 118.673688,319.190683 149.477142,321.327458 C184.999275,323.787233 211.218586,317.227832 234.179168,289.380196 L2.59020713,267.843498 Z" id="Fill-189" fill="#0086B2"></path>
                            <path d="M119.068976,281.257083 C119.068976,281.257083 151.998416,347.669929 120.441862,393.261666 C107.947112,411.306627 115.38647,486.841815 115.38647,486.841815 L120.912708,486.841815 C120.912708,486.841815 122.99434,409.948512 141.035153,385.102987 C159.075965,360.25247 183.515319,269.138898 177.270422,236.688926 C177.270422,236.688926 120.174224,238.481439 119.068976,281.257083" id="Fill-191" fill="#FDCB5B"></path>
                            <path d="M118.688148,277.186733 C118.688148,277.186733 176.206047,309.943217 189.50734,319.547343 C202.808634,329.151469 178.668328,324.719943 140.734272,396.017272 L145.370325,399.792275 C145.370325,399.792275 178.021668,369.766326 207.733197,348.364694 C239.538908,325.45107 233.699073,316.727281 199.848922,282.851725 C177.484443,260.465309 161.472153,238.521548 161.472153,238.521548 C161.472153,238.521548 125.711868,239.75004 118.688148,277.186733" id="Fill-193" fill="#FDCB5B"></path>
                            <path d="M115.38647,486.841815 C115.38647,486.841815 109.520907,496.373705 117.149914,495.993867 C124.78395,495.614028 133.750674,496.568757 143.275618,495.23419 C152.800561,493.89449 125.398584,490.465678 120.912708,486.841815 L115.38647,486.841815 Z" id="Fill-195" fill="#FEC191"></path>
                            <path d="M140.734272,396.017272 C140.734272,396.017272 133.770435,397.610399 134.154447,401.061317 C134.543719,404.507169 136.632112,407.172636 137.021384,414.14035 C137.415917,421.102997 137.21602,427.594373 143.276041,431.171977 C149.330801,434.749582 143.470677,425.521794 144.349169,416.962908 C145.217141,408.474965 145.370325,399.792275 145.370325,399.792275 L140.734272,396.017272 Z" id="Fill-197" fill="#FEC191"></path>
                            <path d="M150.768987,53.9564341 C150.768987,53.9564341 170.397725,68.4090402 190.481627,99.5161985 C214.846847,137.265048 251.339979,136.524874 263.010422,126.689012 C270.916687,120.02745 268.882937,124.354236 261.821996,136.231786 C254.761055,148.109335 220.207195,190.055813 151.099476,166.300714 C105.024349,150.460669 104.914186,113.012576 150.768987,53.9564341 Z" id="Fill-199" fill="#243D48"></path>
                            <path d="M153.642824,66.9551971 C158.821274,79.9471006 164.890002,91.0585971 153.311442,96.131674 C150.185578,97.4992427 147.954937,97.8562184 146.777792,97.9366637 C146.129867,97.9819141 145.57097,98.3992237 145.392915,99.0075907 C145.125832,99.9125994 145.813324,107.710758 146.965739,113.864818 C147.217985,115.212275 134.744202,118.636225 126.568483,114.880439 C126.568483,114.880439 129.946593,94.2713782 129.175019,89.4295813 C128.205605,83.3710504 119.253366,64.9239552 125.425959,61.0022505 C130.826979,57.5783007 140.377683,46.532166 147.940099,56.5425685 C149.018324,57.9704712 152.792114,64.8183708 153.642824,66.9551971" id="Fill-201" fill="#FEC191"></path>
                            <path d="M189.742188,20.4395418 C189.742188,20.4395418 177.40461,10.1760949 179.402262,9.99922609 C181.39503,9.82235724 185.019132,10.85325 185.976442,11.020012 C186.938637,11.1918275 183.509904,-0.203579995 186.718846,0.296706188 C189.927789,0.79699237 199.412974,5.49665045 200.126072,8.49331415 C200.83917,11.4899778 198.577769,19.1458725 198.577769,19.1458725 L189.742188,20.4395418 Z" id="Fill-203" fill="#FEC191"></path>
                            <path d="M147.033839,113.089608 L159.934941,112.004249 C159.934941,112.004249 146.068597,168.999145 77.4413554,124.065658 C77.4413554,124.065658 104.573748,116.398832 110.785076,115.156776 C116.802921,113.954626 127.558639,113.366021 127.558639,113.366021 L147.033839,113.089608 Z" id="Fill-205" fill="#FEC191"></path>
                            <path d="M168.777824,183.516803 C169.120734,171.791231 177.703418,169.518871 176.764143,158.939445 C176.013718,150.48288 163.723632,141.856885 166.924124,138.647676 C172.937469,132.617951 202.412801,132.518286 207.273174,102.972633 C213.843127,63.0817655 198.601036,19.5232308 198.601036,19.5232308 L189.610836,20.7989413 C189.610836,20.7989413 212.242881,108.922626 150.703,112.78464 C150.703,112.78464 152.0647,138.463296 119.135422,113.786272 C119.135422,113.786272 42.8901779,121.953809 25.8192345,167.236546 C14.1255141,198.252256 25.2953259,226.880731 71.9012376,241.396921 L78.9134941,235.387129 C78.9134941,235.387129 6.74549931,178.055168 88.9394824,160.095557 C100.101444,157.653768 133.294117,175.698094 127.708166,214.208602 C99.3112607,239.717828 3.19712855,268.416329 3.19712855,268.416329 C4.68307093,287.033728 62.1428226,312.129345 89.4762107,314.217324 C123.637976,316.82356 135.699455,304.235886 157.804711,307.514861 C227.658912,317.884991 234.179168,290.013708 234.179168,290.013708 C189.248047,263.577599 172.341104,215.26505 172.341104,215.26505 C172.341104,215.26505 168.34546,198.376837 168.777824,183.516803 Z" id="Fill-207" fill="#53B9C9"></path>
                            <path d="M77.7054364,234.741539 C77.7054364,234.741539 93.6819824,235.529407 92.1519455,236.857387 C90.6268443,238.185366 87.0682747,239.533166 86.1897375,239.969219 C85.3062646,240.405272 94.6542961,247.40194 91.7422905,248.918215 C88.8302849,250.43449 78.3766783,252.362043 76.0717519,250.409715 C73.771761,248.462342 71.22499,241.039531 71.22499,241.039531 L77.7054364,234.741539 Z" id="Fill-209" fill="#FEC191"></path>
                            <polygon id="Fill-211" fill="#243D48" points="127.578349 213.637707 126.937507 193.622311 168.685907 194.067209 171.850681 214.697463"></polygon>
                            <path d="M161.747217,196.303726 C161.747217,196.303726 164.602821,189.387601 170.172225,193.612494 C175.502033,197.651784 162.309536,213.320519 162.309536,213.320519 C162.309536,213.320519 145.205254,199.629913 150.437267,194.266986 C155.67417,188.89429 161.747217,196.303726 161.747217,196.303726" id="Fill-213" fill="#D44A6F"></path>
                            <path d="M150.754172,54.0102115 C150.754172,54.0102115 152.246581,63.4463991 125.273415,80.1925198 C125.273415,80.1925198 156.234656,125.685401 97.6064541,117.499072 C97.6064541,117.499072 113.893175,98.4922503 104.224962,80.376762 C93.503578,60.2844048 126.511266,32.194941 150.754172,54.0102115" id="Fill-215" fill="#243D48"></path>
                            <path d="M124.875676,77.8108905 C123.856065,76.8416696 120.913327,75.1276791 119.277911,77.6425521 C117.637448,80.152324 119.156769,85.8656257 127.18242,88.7222766 C135.197975,91.5738263 126.884613,79.7238263 124.875676,77.8108905" id="Fill-217" fill="#FEC191"></path>
                        </g>
                    </g>
                </g>
            </g>
        </g>
    </g>
</svg>
