<?xml version="1.0" encoding="UTF-8"?>
<svg  viewBox="0 0 1321 1009" version="1.1" xmlns="http://www.w3.org/2000/svg" xmlns:xlink="http://www.w3.org/1999/xlink">
    <!-- Generator: sketchtool 63.1 (101010) - https://sketch.com -->
    <title>DF847A64-28FE-4550-AE06-E79A9BA0B045</title>
    <desc>Created with sketchtool.</desc>
    <g id="symbols" stroke="none" stroke-width="1" fill="none" fill-rule="evenodd">
        <g id="10_illustration/search/background-grey" fill="#F4F4F4">
            <path d="M1196.93571,293.71935 C1266.13183,402.245107 1261.14093,549.428375 1167.87756,656.327686 C1074.61419,763.226997 910.662972,832.949229 738.720764,849.213694 C566.778556,865.478159 389.118989,830.637323 243.290303,762.05482 C191.739804,737.808193 142.834484,708.678172 110.864968,670.434371 C78.9009966,632.190571 65.8858266,583.526967 88.034352,541.730132 C110.365877,499.592594 164.023647,470.551804 219.69996,450.957383 C275.376274,431.362961 335.555492,418.781323 389.340807,396.534293 C458.237472,368.032947 513.370331,325.096382 569.651098,284.386549 C625.931866,243.676715 692.127897,212.465977 760.619744,183.445467 C937.785766,108.373402 1138.03749,201.348546 1196.93571,293.71935" id="Fill-1" transform="translate(660.500000, 504.584416) rotate(-163.000000) translate(-660.500000, -504.584416) "></path>
        </g>
    </g>
</svg>
