<?xml version="1.0" encoding="UTF-8"?>
<svg width="593px" height="94px" viewBox="0 0 593 94" version="1.1" xmlns="http://www.w3.org/2000/svg" xmlns:xlink="http://www.w3.org/1999/xlink">
    <!-- Generator: Sketch 63.1 (92452) - https://sketch.com -->
    <title>logo/pod</title>
    <desc>Created with Sketch.</desc>
    <g id="SOLID" stroke="none" stroke-width="1" fill="none" fill-rule="evenodd">
        <g id="solid_redisign/landing" transform="translate(-662.000000, -243.000000)">
            <g id="logo/pod" transform="translate(662.000000, 243.000000)">
                <g>
                    <g id="HMYPOD!" transform="translate(110.843000, 12.673412)" fill-rule="nonzero">
                        <polygon id="H" fill="#53B9C9" points="7.363 70.2677647 7.363 38.1197647 50.944 38.1197647 50.944 70.2677647 58.2075 70.2677647 58.2075 0.597176471 50.944 0.597176471 50.944 31.6503529 7.363 31.6503529 7.363 0.597176471 1.80675228e-12 0.597176471 1.80675228e-12 70.2677647"></polygon>
                        <path d="M87.958,70.2677647 L87.958,14.8298824 L115.3205,61.4096471 L118.803,61.4096471 L146.1655,14.5312941 L146.1655,70.2677647 L153.23,70.2677647 L153.23,0.597176471 L147.1605,0.597176471 L117.211,52.2529412 L86.963,0.597176471 L80.8935,0.597176471 L80.8935,70.2677647 L87.958,70.2677647 Z M199.796,70.2677647 L199.796,46.1816471 L227.656,0.597176471 L220.293,0.597176471 L196.413,39.7122353 L172.533,0.597176471 L164.6725,0.597176471 L192.5325,46.1816471 L192.5325,70.2677647 L199.796,70.2677647 Z" id="MY" fill="#9EA9AF"></path>
                        <path d="M244.969,70.2677647 L244.969,48.2717647 L263.675,48.2717647 C272.563667,48.2717647 279.528667,46.1650588 284.57,41.9516471 C289.611333,37.7382353 292.132,31.9157647 292.132,24.4842353 C292.132,17.0527059 289.611333,11.2136471 284.57,6.96705882 C279.528667,2.72047059 272.563667,0.597176471 263.675,0.597176471 L263.675,0.597176471 L237.606,0.597176471 L237.606,70.2677647 L244.969,70.2677647 Z M263.476,41.8023529 L244.969,41.8023529 L244.969,6.96705882 L263.476,6.96705882 C270.374667,6.96705882 275.648167,8.47658824 279.2965,11.4956471 C282.944833,14.5147059 284.769,18.8442353 284.769,24.4842353 C284.769,29.9915294 282.944833,34.2547059 279.2965,37.2737647 C275.648167,40.2928235 270.374667,41.8023529 263.476,41.8023529 L263.476,41.8023529 Z M339.494,70.8649412 C346.392667,70.8649412 352.611417,69.3388235 358.15025,66.2865882 C363.689083,63.2343529 368.0505,59.0043529 371.2345,53.5965882 C374.4185,48.1888235 376.0105,42.1341176 376.0105,35.4324706 C376.0105,28.7308235 374.4185,22.6761176 371.2345,17.2683529 C368.0505,11.8605882 363.689083,7.63058824 358.15025,4.57835294 C352.611417,1.52611765 346.392667,8.83998757e-14 339.494,8.83998757e-14 C332.595333,8.83998757e-14 326.343417,1.54270588 320.73825,4.62811765 C315.133083,7.71352941 310.755083,11.9435294 307.60425,17.3181176 C304.453417,22.6927059 302.878,28.7308235 302.878,35.4324706 C302.878,42.1341176 304.453417,48.1722353 307.60425,53.5468235 C310.755083,58.9214118 315.133083,63.1514118 320.73825,66.2368235 C326.343417,69.3222353 332.595333,70.8649412 339.494,70.8649412 Z M339.494,64.296 C333.988333,64.296 328.99675,63.0518824 324.51925,60.5636471 C320.04175,58.0754118 316.526083,54.6250588 313.97225,50.2125882 C311.418417,45.8001176 310.1415,40.8734118 310.1415,35.4324706 C310.1415,29.9915294 311.418417,25.0648235 313.97225,20.6523529 C316.526083,16.2398824 320.04175,12.7895294 324.51925,10.3012941 C328.99675,7.81305882 333.988333,6.56894118 339.494,6.56894118 C344.999667,6.56894118 349.974667,7.81305882 354.419,10.3012941 C358.863333,12.7895294 362.345833,16.2398824 364.8665,20.6523529 C367.387167,25.0648235 368.6475,29.9915294 368.6475,35.4324706 C368.6475,40.8734118 367.387167,45.8001176 364.8665,50.2125882 C362.345833,54.6250588 358.863333,58.0754118 354.419,60.5636471 C349.974667,63.0518824 344.999667,64.296 339.494,64.296 Z M420.885,70.2677647 C428.248,70.2677647 434.748667,68.7914118 440.387,65.8387059 C446.025333,62.886 450.403333,58.7721176 453.521,53.4970588 C456.638667,48.222 458.1975,42.2004706 458.1975,35.4324706 C458.1975,28.6644706 456.638667,22.6429412 453.521,17.3678824 C450.403333,12.0928235 446.025333,7.97894118 440.387,5.02623529 C434.748667,2.07352941 428.248,0.597176471 420.885,0.597176471 L420.885,0.597176471 L392.5275,0.597176471 L392.5275,70.2677647 L420.885,70.2677647 Z M420.487,63.8978824 L399.8905,63.8978824 L399.8905,6.96705882 L420.487,6.96705882 C426.589667,6.96705882 431.9295,8.178 436.5065,10.5998824 C441.0835,13.0217647 444.632333,16.3725882 447.153,20.6523529 C449.673667,24.9321176 450.934,29.8588235 450.934,35.4324706 C450.934,41.0061176 449.673667,45.9328235 447.153,50.2125882 C444.632333,54.4923529 441.0835,57.8431765 436.5065,60.2650588 C431.9295,62.6869412 426.589667,63.8978824 420.487,63.8978824 L420.487,63.8978824 Z M478.993,49.3665882 L480.4855,0.597176471 L472.1275,0.597176471 L473.5205,49.3665882 L478.993,49.3665882 Z M476.3065,70.7654118 C477.765833,70.7654118 478.993,70.2511765 479.988,69.2227059 C480.983,68.1942353 481.4805,66.9832941 481.4805,65.5898824 C481.4805,64.1301176 480.983,62.9191765 479.988,61.9570588 C478.993,60.9949412 477.765833,60.5138824 476.3065,60.5138824 C474.780833,60.5138824 473.5205,60.9949412 472.5255,61.9570588 C471.5305,62.9191765 471.033,64.1301176 471.033,65.5898824 C471.033,66.9832941 471.547083,68.1942353 472.57525,69.2227059 C473.603417,70.2511765 474.847167,70.7654118 476.3065,70.7654118 Z" id="POD!" fill="#6CC1D1"></path>
                    </g>
                    <path d="M46.9861111,0 C72.9358237,0 93.9722222,21.0426168 93.9722222,47 C93.9722222,72.9573832 72.9358237,94 46.9861111,94 C21.0363985,94 0,72.9573832 0,47 C0,21.0426168 21.0363985,0 46.9861111,0 Z M46.9861111,13.8235294 C28.6686669,13.8235294 13.8194444,28.6771412 13.8194444,47 C13.8194444,65.3228588 28.6686669,80.1764706 46.9861111,80.1764706 C65.3035553,80.1764706 80.1527778,65.3228588 80.1527778,47 C80.1527778,28.6771412 65.3035553,13.8235294 46.9861111,13.8235294 Z" id="Oval-Copy-4" fill="#53B9C9" fill-rule="nonzero"></path>
                </g>
            </g>
        </g>
    </g>
</svg>