<svg xmlns="http://www.w3.org/2000/svg" width="42" height="35" viewBox="0 0 42 35">
    <g fill="none">
        <g>
            <path fill="#53B9C9" d="M12.986 10.496L10.51 12.97c-.249.25-.652.25-.9 0l-9-9c-.249-.248-.249-.65 0-.899L3.086.596c.249-.249.651-.249.9 0l8.999 9c.249.248.249.65 0 .9z" transform="translate(0 -.583) translate(28 6)"/>
            <path fill="#263238" d="M10.06 13.474c-.243 0-.488-.093-.674-.278l-9-9c-.373-.373-.373-.978 0-1.35L2.86.37c.372-.372.978-.372 1.35 0l9 9c.18.18.279.42.279.675 0 .255-.1.494-.28.675l-2.475 2.475c-.185.185-.43.278-.674.278zM3.537.728c-.081 0-.163.03-.225.093L.836 3.296c-.125.124-.125.326 0 .45l9 9c.124.123.325.123.45 0l2.474-2.476c.06-.06.093-.14.093-.224 0-.085-.033-.165-.093-.226l-9-9C3.7.76 3.619.729 3.537.729z" transform="translate(0 -.583) translate(28 6)"/>
        </g>
        <g>
            <path fill="#53B9C9" d="M1.04 11.217l3.228 3.229c.255.255.668.255.922 0l9.223-9.223c.255-.255.255-.668 0-.923l-3.228-3.228c-.255-.255-.668-.255-.922 0L1.04 10.295c-.255.255-.255.667 0 .922z" transform="translate(0 -.583) translate(0 6)"/>
            <path fill="#263238" d="M4.729 14.962c-.25 0-.501-.096-.692-.286L.809 11.447c-.184-.185-.286-.43-.286-.692 0-.26.102-.507.286-.692L10.032.841c.381-.381 1.003-.381 1.384 0l3.228 3.229c.184.184.286.43.286.692 0 .261-.102.507-.286.691L5.42 14.676c-.19.19-.442.286-.692.286zm5.995-13.755c-.084 0-.167.031-.231.095L1.27 10.525c-.062.062-.095.144-.095.231 0 .088.034.17.095.23l3.228 3.229c.127.126.334.127.461 0l9.224-9.223c.062-.062.095-.144.095-.231 0-.087-.034-.169-.095-.231l-3.228-3.228c-.064-.063-.148-.095-.231-.095z" transform="translate(0 -.583) translate(0 6)"/>
        </g>
        <path fill="#263238" d="M28.68 30c-.083 0-.165-.031-.228-.094l-6.358-6.358c-.125-.125-.125-.329 0-.454s.329-.125.454 0l6.358 6.358c.125.125.125.329 0 .454-.062.063-.144.094-.227.094zM25.706 33c-.075 0-.15-.029-.208-.086l-5.412-5.412c-.115-.114-.115-.301 0-.416.115-.115.302-.115.416 0l5.412 5.412c.115.115.115.301 0 .416-.057.057-.133.086-.208.086zM12.733 30c-.444 0-.888-.17-1.226-.509-.676-.678-.676-1.782 0-2.46l1.533-1.538c.655-.657 1.797-.658 2.452 0 .327.328.508.766.508 1.23 0 .465-.18.902-.508 1.23l-1.533 1.538c-.338.34-.782.509-1.226.509zm-.818-.919c.45.453 1.185.452 1.636 0l1.532-1.537c.219-.22.339-.51.339-.82 0-.311-.12-.602-.339-.82-.437-.44-1.198-.44-1.635 0l-1.533 1.537c-.45.452-.45 1.188 0 1.64zM14.924 34c-.493 0-.985-.187-1.36-.562-.363-.363-.564-.847-.564-1.36 0-.515.2-.998.564-1.362l2.153-2.153c.75-.75 1.97-.75 2.72 0 .75.75.75 1.97 0 2.72l-2.153 2.155c-.375.375-.867.562-1.36.562zm2.154-5.36c-.33 0-.658.126-.908.376l-2.153 2.154c-.242.242-.376.564-.376.907 0 .343.134.665.376.907.5.5 1.314.5 1.813 0l2.154-2.154c.5-.5.5-1.314 0-1.814-.249-.25-.578-.375-.906-.375z" transform="translate(0 -.583)"/>
        <path fill="#263238" d="M17.733 35c-.444 0-.888-.169-1.226-.507-.676-.676-.676-1.776 0-2.453l1.532-1.533c.677-.675 1.777-.677 2.453 0 .327.328.508.763.508 1.227 0 .463-.18.899-.508 1.226l-1.532 1.533c-.338.338-.782.507-1.227.507zm-.817-.916c.45.451 1.185.45 1.635 0l1.532-1.533c.219-.218.339-.509.339-.817 0-.309-.12-.6-.339-.818-.45-.451-1.185-.45-1.635 0l-1.532 1.533c-.451.45-.451 1.184 0 1.635z" transform="translate(0 -.583)"/>
        <path fill="#263238" d="M20.887 37c-.483 0-.967-.184-1.335-.554-.736-.74-.736-1.941 0-2.68l1.224-1.23c.713-.714 1.957-.716 2.67 0 .357.359.554.835.554 1.341 0 .507-.196.983-.553 1.34l-1.224 1.229c-.368.369-.852.554-1.336.554zm-.89-1c.491.492 1.291.491 1.78 0l1.225-1.23c.238-.238.368-.555.368-.893 0-.337-.13-.655-.368-.894-.476-.477-1.305-.477-1.78 0l-1.225 1.23c-.491.492-.491 1.293 0 1.786zM9.677 27c-.082 0-.165-.032-.228-.094L5.094 22.55c-.125-.126-.125-.33 0-.456.126-.125.33-.125.456 0l4.356 4.355c.125.126.125.33 0 .456-.064.064-.146.095-.229.095zM22.701 14c-.076 0-.153-.024-.211-.072l-.093-.077c-.277-.229-.662-.36-1.055-.36h-6.043c-.165 0-.299-.11-.299-.245 0-.136.134-.246.299-.246h6.043c.55 0 1.088.184 1.478.504l.093.077c.116.096.116.251 0 .347-.059.048-.135.072-.212.072zM25.095 35l-.084-.001c-.191-.007-.341-.155-.334-.331.007-.176.144-.325.36-.308.233.01.581-.031.886-.26.31-.234.492-.564.512-.93.02-.36-.129-.713-.405-.969-.135-.124-.135-.327 0-.451.135-.125.356-.125.49 0l.004.002.418.386c.539.495 1.384.562 1.926.154.31-.234.493-.565.513-.93.019-.36-.129-.713-.406-.968-.135-.124-.135-.327 0-.452.136-.124.356-.124.491 0l.004.004.487.448c.277.255.66.396 1.053.373.396-.018.755-.186 1.009-.472.443-.5.37-1.278-.168-1.774l-9.75-8.976c-.135-.124-.135-.327 0-.452.136-.124.356-.124.491 0l9.75 8.976c.787.724.88 1.88.213 2.63-.373.422-.924.68-1.51.706-.341.017-.67-.045-.97-.17.002.052.002.105-.001.158-.03.54-.308 1.048-.767 1.393-.607.457-1.458.526-2.18.232.004.061.004.122 0 .184-.028.54-.307 1.048-.766 1.392-.352.266-.79.406-1.266.406z" transform="translate(0 -.583)"/>
        <path fill="#263238" d="M18.19 21c-.562 0-1.122-.206-1.549-.617-.413-.398-.641-.927-.641-1.49 0-.564.228-1.093.641-1.491l1.67-1.609c.445-.429 1.037-.665 1.667-.665h4.26l4.187-4.033c.132-.127.345-.127.477 0 .13.126.13.332 0 .458l-4.286 4.129c-.063.06-.149.094-.238.094h-4.4c-.45 0-.873.169-1.191.475l-1.67 1.609c-.286.275-.444.642-.444 1.032s.158.756.444 1.032c.591.57 1.554.568 2.143 0l2.5-2.408c.131-.126.345-.126.476 0 .131.127.131.332 0 .459l-2.5 2.407c-.426.412-.987.618-1.547.618zM31.316 27c-.08 0-.161-.031-.223-.092-.124-.124-.124-.324 0-.448l5.367-5.367c.124-.124.324-.124.447 0 .124.123.124.323 0 .447l-5.367 5.368c-.062.062-.143.092-.224.092zM19.7 6h-2.4c-.166 0-.3-.224-.3-.5s.134-.5.3-.5h2.4c.166 0 .3.224.3.5s-.134.5-.3.5z" transform="translate(0 -.583)"/>
        <path fill="#263238" d="M18.5 7c-.276 0-.5-.134-.5-.3V4.3c0-.166.224-.3.5-.3s.5.134.5.3v2.4c0 .166-.224.3-.5.3zM24.7 2h-2.4c-.166 0-.3-.224-.3-.5s.134-.5.3-.5h2.4c.166 0 .3.224.3.5s-.134.5-.3.5z" transform="translate(0 -.583)"/>
        <path fill="#263238" d="M23.5 3c-.276 0-.5-.134-.5-.3V.3c0-.166.224-.3.5-.3s.5.134.5.3v2.4c0 .166-.224.3-.5.3zM.75 36h-.5c-.138 0-.25-.224-.25-.5s.112-.5.25-.5h.5c.138 0 .25.224.25.5s-.112.5-.25.5zM8.708 36H2.292C2.13 36 2 35.776 2 35.5s.13-.5.292-.5h6.416c.161 0 .292.224.292.5s-.13.5-.292.5zM41.75 36h-.5c-.138 0-.25-.224-.25-.5s.112-.5.25-.5h.5c.138 0 .25.224.25.5s-.112.5-.25.5zM39.708 36h-6.416c-.161 0-.292-.224-.292-.5s.13-.5.292-.5h6.416c.161 0 .292.224.292.5s-.13.5-.292.5z" transform="translate(0 -.583)"/>
    </g>
</svg>
